 <svg xmlns="http://www.w3.org/2000/svg" viewBox="0 0 300.000000 52.000000"  preserveAspectRatio="xMidYMid meet">  <g transform="translate(0.000000,52.000000) scale(0.050000,-0.050000)" stroke="none"> <path d="M0 531 l0 -511 3000 0 3000 0 0 283 0 283 -43 -38 c-24 -21 -60 -76 -81 -123 -45 -100 -34 -103 -266 74 -88 67 -197 140 -243 162 -246 120 -1016 66 -1300 -92 -111 -62 -139 -69 -277 -69 l-154 0 -119 -121 -119 -122 -144 34 c-79 18 -171 46 -204 62 -93 43 -278 67 -526 67 -264 0 -286 -8 -476 -181 -165 -149 -131 -153 -523 64 -350 195 -526 276 -600 277 -55 0 -125 -66 -125 -118 0 -125 -152 -39 -431 245 -133 135 -270 265 -305 290 l-64 46 0 -512z"/> </g> </svg>