<?xml version="1.0" encoding="UTF-8"?><svg id="Layer_2" xmlns="http://www.w3.org/2000/svg" viewBox="0 0 322.19836 40"><defs><style>.cls-1{fill:#374297;}</style></defs><g id="Layer_1-2"><path class="cls-1" d="m32.85711,28.22991V8.10506H5.58091S.51181,7.75009.06377,11.7586C.06377,11.7586-1.08987-.00285,6.41639.00138h29.5207s4.16221-.19261,4.16221,3.96967v19.85641s-.65365,4.19253-7.24219,4.40245"/><path class="cls-1" d="m7.24623,11.76785v20.12709h27.27186s5.0691.35286,5.5193-3.65354c0,0,1.15148,11.75933-6.35044,11.75722H4.16407S.00187,40.19123.00187,36.02684v-19.85641s.65149-4.19253,7.24436-4.40258"/><path class="cls-1" d="m59.8253,7.00858h5.25524l11.45202,23.58577h-4.86565l-2.46529-5.4198h-13.5948l-2.49775,5.4198h-4.89811l11.61435-23.58577Zm7.5582,14.20938l-4.93059-10.51264-4.93274,10.51264h9.86333Z"/><path class="cls-1" d="m104.36977,22.19119c-.45455,2.62773-2.33543,8.98681-13.17275,8.98681-7.4608,0-13.33291-4.15356-13.33291-12.75066,0-6.87641,4.31372-12.00399,13.69004-12.00399,10.54512,0,12.10135,6.84616,12.45848,8.11227h-4.60592c-.25973-.81166-2.07785-4.15356-7.59283-4.15356-6.52144,0-9.24646,3.66662-9.24646,8.56473,0,5.41756,3.92628,8.27251,8.98673,8.27251,5.38727,0,7.75517-3.21204,8.20969-5.02811h4.60592Z"/><path class="cls-1" d="m133.21259,22.19119c-.45455,2.62773-2.33543,8.98681-13.17276,8.98681-7.4608,0-13.3329-4.15356-13.3329-12.75066,0-6.87641,4.31371-12.00399,13.69004-12.00399,10.54512,0,12.10136,6.84616,12.45849,8.11227h-4.60593c-.25972-.81166-2.07785-4.15356-7.59282-4.15356-6.52144,0-9.24647,3.66662-9.24647,8.56473,0,5.41756,3.92629,8.27251,8.98673,8.27251,5.38511,0,7.75517-3.21204,8.20969-5.02811h4.60593Z"/><polygon class="cls-1" points="137.26938 7.00792 158.42238 7.00792 158.42238 10.96675 141.8753 10.96675 141.8753 16.44931 156.11944 16.44931 156.11944 20.40577 141.8753 20.40577 141.8753 26.63512 158.81198 26.63512 158.81198 30.59382 137.26938 30.59382 137.26938 7.00792"/><path class="cls-1" d="m180.87341,14.17734c-.74673-2.10816-2.6601-3.92621-8.27248-3.92621-3.11461,0-6.2617.77916-6.2617,2.95232,0,1.00639.58439,2.07777,5.28771,2.66221l5.57992.84191c5.2877.81166,8.40232,2.85495,8.40232,6.81366,0,5.57992-5.32018,7.65557-11.61434,7.65557-10.1209,0-12.58835-4.99548-13.13811-6.77892l4.44357-1.3961c.84414,1.71857,2.59517,4.21843,8.8244,4.21843,3.76395,0,6.87857-1.23361,6.87857-3.2769,0-1.52372-1.75102-2.53024-5.12539-2.95232l-5.64483-.77916c-5.45222-.74667-8.5019-3.11454-8.5019-6.71616,0-7.07127,9.18152-7.07127,10.99965-7.07127,10.15335,0,11.90655,4.70326,12.48877,6.32658l-4.34617,1.42635Z"/><path class="cls-1" d="m207.89939,14.17734c-.74673-2.10816-2.6601-3.92621-8.27248-3.92621-3.11461,0-6.2617.77916-6.2617,2.95232,0,1.00639.58439,2.07777,5.28771,2.66221l5.57992.84191c5.2877.81166,8.40232,2.85495,8.40232,6.81366,0,5.57992-5.32018,7.65557-11.61434,7.65557-10.1209,0-12.58835-4.99548-13.13811-6.77892l4.44357-1.3961c.84414,1.71857,2.59517,4.21843,8.8244,4.21843,3.76395,0,6.87857-1.23361,6.87857-3.2769,0-1.52372-1.75102-2.53024-5.12539-2.95232l-5.64483-.77916c-5.45222-.74667-8.5019-3.11454-8.5019-6.71616,0-7.07127,9.18152-7.07127,10.99965-7.07127,10.15335,0,11.90655,4.70326,12.48877,6.32658l-4.34617,1.42635Z"/><polygon class="cls-1" points="214.38902 7.00792 218.99493 7.00792 223.53808 23.23047 223.60301 23.23047 228.11152 7.00792 232.52481 7.00792 237.09825 23.19572 237.16318 23.19572 241.67384 7.00792 246.18238 7.00792 239.30597 30.59382 234.8927 30.59382 230.41449 13.85407 230.35172 13.85407 225.84102 30.59382 221.33251 30.59382 214.38902 7.00792"/><rect class="cls-1" x="249.88357" y="7.00765" width="4.60593" height="23.58577"/><path class="cls-1" d="m260.36289,7.00911h14.17701c5.57992,0,9.60362,1.264,9.60362,7.03864,0,4.34842-3.11464,6.74879-6.58637,6.94352l7.23353,9.60362h-5.67731l-6.84394-9.2789h-7.30064v9.2789h-4.60589V7.00911Zm13.49524,10.4779c3.76395,0,5.67728-.55181,5.67728-3.34177,0-2.75759-1.91333-3.30953-5.67728-3.30953h-8.88935v6.6513h8.88935Z"/><polygon class="cls-1" points="289.20482 7.00792 310.35782 7.00792 310.35782 10.96675 293.81072 10.96675 293.81072 16.44931 308.05487 16.44931 308.05487 20.40577 293.81072 20.40577 293.81072 26.63512 310.7474 26.63512 310.7474 30.59382 289.20482 30.59382 289.20482 7.00792"/><path class="cls-1" d="m318.45823,7.09828c-2.06053,0-3.74013,1.67313-3.74013,3.73795,0,2.06271,1.6796,3.73795,3.74013,3.73795,2.06704,0,3.74013-1.67524,3.74013-3.73795,0-2.06483-1.6731-3.73795-3.74013-3.73795m0,6.87205c-1.72505-.00647-3.12762-1.40469-3.12977-3.1341.00215-1.72941,1.40472-3.12974,3.12977-3.13198,1.73155.00225,3.12977,1.40258,3.13628,3.13198-.00651,1.72941-1.40472,3.12762-3.13628,3.1341m1.03245-2.6774c-.10823-.12127-.2511-.22947-.42208-.32683.34414-.0498.59739-.17095.77487-.36369.17316-.19037.25539-.43278.25539-.725,0-.23158-.0541-.43503-.17098-.61469-.11255-.17966-.2619-.30517-.45237-.37452-.19046-.06922-.49566-.10595-.90906-.10595h-1.6623v3.90454h.79436v-1.62768h.15582c.17966,0,.31603.01308.39827.04333.08224.02814.16018.0823.23591.16025.07144.08217.21213.27267.41557.57572l.5671.84839h.94585l-.47618-.7575c-.18828-.30741-.33763-.51944-.45019-.63636m-1.21208-.85935h-.58008v-.98908h.61037c.32033,0,.51082.00436.57575.01295.12986.01955.22726.07358.29651.15377.07358.08006.1039.18389.1039.316,0,.11678-.02381.21639-.07576.29433s-.12553.13197-.22293.16447-.33116.04756-.70776.04756"/></g></svg>