<?xml version="1.0" encoding="utf-8"?>
<!-- Generator: Adobe Illustrator 27.2.0, SVG Export Plug-In . SVG Version: 6.00 Build 0)  -->
<svg version="1.1" id="Layer_1" xmlns="http://www.w3.org/2000/svg" xmlns:xlink="http://www.w3.org/1999/xlink" x="0px" y="0px"
	 viewBox="0 0 254 80" style="enable-background:new 0 0 254 80;" xml:space="preserve">
<style type="text/css">
	.st0{fill:#1E1E1E;}
	.st1{fill:#CE8E00;}
</style>
<g>
	<path class="st0" d="M100.5,56h2.7c7.5,0,11.3-3.8,11.3-10.4c0-3.5-1.9-6.7-7.6-6.7h-9.4l-3.6,25.5h5.4L100.5,56z M101,51.9
		l1.2-8.8h2.3c2.4,0,4.2,0.6,4.2,3.3c0,4.3-2.5,5.4-5.6,5.4L101,51.9L101,51.9z M133.7,46.1h-5l-0.3,1.5c-1.1-1-2.6-1.8-4.8-1.8
		c-4.8,0-8.9,4.3-8.9,12c0,5,2.5,7.2,6.2,7.2c2.3,0,4.4-1,5.7-2.6c0.2,1.8,1.4,2.5,3.5,2.5c1.1,0,2.6-0.3,3.3-0.6l0.3-2.9
		c-0.5,0.1-0.8,0.2-1.1,0.2c-0.9,0-1-0.4-0.9-1.4L133.7,46.1z M126.5,59.3c-1.3,1.1-2.4,1.5-3.4,1.5c-1.8,0-2.8-1.2-2.8-3.7
		c0-2.9,1-7.2,4.4-7.2c1.1,0,2.2,0.5,2.9,1.1L126.5,59.3z M147.3,60.1c-0.8,0.4-1.8,0.8-2.9,0.8c-1.7,0-2-1.1-1.8-2.7l1.2-8.3h4.9
		l0.5-3.8h-4.9l0.9-6.1l-5.4,0.8l-0.8,5.3h-2.8l-0.5,3.8h2.8l-1.3,8.8c-0.6,4.1,1.3,6.2,5.4,6.2c2,0,4.2-0.7,5.2-1.3L147.3,60.1z
		 M156.9,51.9c1.1-0.8,2.5-1.8,4-1.8c1.5,0,2.1,0.7,1.9,2.8l-1.6,11.7h5.3l1.8-12.5c0.6-4.2-1-6.2-4.9-6.2c-2.7,0-4.7,1.4-6.1,2.6
		l1.6-10.5h-5.3l-3.7,26.6h5.3L156.9,51.9z M179.6,64.5l4.4-12.2l1.3,12.2h6l8-18.3H194l-4.9,13l-1.5-13h-5.2l-5,13l-1.5-13h-5.3
		l2.7,18.3H179.6z M217.6,46.1h-5l-0.3,1.5c-1.1-1-2.6-1.8-4.8-1.8c-4.8,0-8.9,4.3-8.9,12c0,5,2.5,7.2,6.2,7.2c2.3,0,4.4-1,5.7-2.6
		c0.2,1.8,1.4,2.5,3.4,2.5c1.1,0,2.6-0.3,3.3-0.6l0.3-2.9c-0.5,0.1-0.8,0.2-1.1,0.2c-0.9,0-1-0.4-0.9-1.4L217.6,46.1z M210.4,59.3
		c-1.3,1.1-2.4,1.5-3.4,1.5c-1.8,0-2.8-1.2-2.8-3.7c0-2.9,1-7.2,4.4-7.2c1.1,0,2.2,0.5,2.9,1.1L210.4,59.3z M224.1,64.8
		c-1.2,2.5-1.9,3.6-3.5,3.6c-0.8,0-1.6-0.2-2.6-0.5l-0.9,3.7c0.7,0.4,2.4,0.8,3.8,0.8c4,0,5.7-1.8,8-6.6l9.6-19.6h-5.6l-5.4,13h-0.1
		l-2-13h-5.5L224.1,64.8z M246.9,45.8c-4.1,0-8,1.8-8,6.1c0,3.6,2.6,4.6,5.1,5.2c2.1,0.6,4,0.8,4,2.4c0,1.3-1.2,1.9-2.9,1.9
		c-2.6,0-3.2-1.5-3.4-2.9l-4.5,1.2c0.3,3,2.5,5.3,7.5,5.3c4.9,0,8.5-2.2,8.5-6.4c0-3.7-2.8-4.6-5.3-5.2c-2-0.5-3.8-0.8-3.8-2.2
		c0-1,0.7-1.7,2.6-1.7c1.9,0,2.7,1.2,2.9,2.8l4.4-1C253.5,47.8,251.2,45.8,246.9,45.8"/>
	<path class="st0" d="M37.5,0.3c6.1,8.3,9.8,18.5,9.8,29.6c0,26.6-20.9,48.3-47.3,50.3c1.3,0.1,2.6,0.1,3.9,0.1
		c27.6,0,50-20.6,50-46C53.8,20.9,47.6,8.8,37.5,0.3"/>
	<path class="st1" d="M72,33.6c0,9.8-23,19.3-47.4,19.5c7.3,1,59.3,3.3,59.3-17.5c0-8.9-12.6-16.2-31.7-18
		C65.4,20.9,72,26.2,72,33.6"/>
	<path class="st1" d="M7.2,65.8L7.5,66l0.1,0L7.8,66l0.3,0.2l0,0.1c0,0-0.2,0-0.1,0c0,0,0.2,0.1,0.2,0.1l-0.1,0.1l-0.3,0.1l-0.3,0.1
		l-0.1,0l0,0.1l-0.2,0.1c0,0-0.2,0.1-0.3,0.1S7,66.7,7,66.7l0.2-0.2l-0.1-0.1l0.1-0.1l0.1-0.2L7.1,66L7.2,65.8z M19.3,49l0.2,0
		l0.1,0l0.2,0.1v0.1l0.1,0l0.1,0l0.4,0.1l0.2,0.1l0.1,0.3l0.1,0.1l0.1,0.2l0.1,0.3v0.3l-0.1,0.3l-0.1,0.2l-0.1,0.2l-0.1,0.3
		l-0.2,0.2L20.2,52L20,52.3l-0.2,0.1v0.1v0.1l-0.1,0l-0.1,0v0.1v0.1v0.2l0.1,0l0.1,0l0.1,0l0.1,0v-0.2v-0.1l0.1,0l0.2,0.1v0.1V53
		l0.1,0l0.1,0l0.1,0v0.2l0.1,0l0.1,0.1v0.1v0.2v0.2l0.1,0l0.1,0v-0.2l0.2,0l0.1,0l0.1,0v-0.2l0.2,0l0.2-0.1l0.3,0l0.1-0.3l0.2-0.2
		l0.1,0l0.1-0.1l0.1-0.1v-0.1l0.1-0.2l0.2-0.2l0.1-0.1l0.1-0.2v-0.1v-0.2l0.2-0.1l0.1-0.3l0.1-0.1l0.1-0.1l0.2,0l0.2-0.2l0.1-0.5
		l0.1-0.1l0.1-0.1l0.1-0.1v-0.2l0.1-0.1v-0.1l0.2-0.3l0.2-0.3l0.2-0.1l-0.3-0.2l-0.1,0l0.1-0.4l-0.3-0.2l0.4-0.2V48l0.2-0.2l0.2-0.1
		l0.1,0l0.2,0l0.1-0.2l0.2,0.1l0.2,0.1l0.2,0l0.2,0l0.2,0V48v0.2v0.2l0.2,0.1v-0.1v-0.2l0.1,0l0.1-0.1l0.1-0.1l-0.1-0.1l-0.2,0v-0.2
		v-0.2l0.5-0.6l-0.1,0l0.2,0l0.2,0v-0.2l0.2-0.1L27.2,46l0.2-0.6l0.5-0.4l-0.3-0.7L27.2,44l-0.6,0l-0.1,0.3l-0.2,0l-0.4,0.2v0.3
		l-1,0.3l-0.1-0.3l-0.4,0.1L24,44.4l-0.5-0.2l-0.3-0.2l-0.3,0l-0.2-0.5v-0.3l-0.3-1.3l-0.4,0l0.1-0.4l-0.1-0.1l-0.2-0.6l-0.4-0.1
		l0.3,0.7l-0.3,0.5l0.4,0.6l-0.5,0l-0.2-0.7l-0.9-0.2v-0.2l-0.1-0.3l0.3,0l-0.3-0.6l0.3-0.3l-0.3-0.2V40L20,39.6v-0.2l-0.7-0.6
		l0.3-0.3l0.5,0.3l0.1-0.1l-0.3-0.6l-0.5-0.5v-0.3l-0.1-0.1l-0.2,0.1l-0.2-0.5l-0.5-0.1l-0.2,0l-0.1-0.4l-0.5,0v-0.5l-0.3,0.4
		l-0.2-0.3l0.1-0.3l-0.3-0.3l-0.4-0.2v-0.4l-0.2,0l-0.4,0.1l-0.1,0.1l0.7,0.6l0.5,1.1v0.6l0.4,0l-0.3,0.3l1.4,1.9l0.4,0.9l0.2-0.3
		l-0.2-0.5l0.5,0.2l0.3,0.3l-0.3,0.2l0.4,0.2l-0.1,0.4l-0.4-0.2l0.3,0.8l0.1,0.3l0.1,0.2l0.5,0l0.1,0.2v0.4l-0.1,0.1l-0.4-0.3v0.5
		l0.4,0.1v0.4l0.2,0.6l0.1,0.1l-0.3,0.7l0.3,0.1v0.2l-0.5-0.1L20,45l-0.2,0.4l0.1,0.7l-0.1,0v0.3l-0.2,0.1l-0.1,0.1v0.1l-0.3,0.1
		l-0.2,0l-0.2,0l-0.1,0l-0.1,0v0.2v0.2l-0.2,0l-0.3,0.2l-0.1,0.1l-0.1,0.2v0.4l0-0.1l0,0.1l0.2,0.2l0.1,0.2l0.5,0l0.4,0.3L19.3,49
		L19.3,49z M18.1,52.2L18.1,52.2L18.1,52.2l0.1-0.4v-0.1v-0.1l0.2-0.2v-0.1v-0.1l-0.2-0.2l-0.1,0.3v0.1v0.1v0.1v0.1l-0.2,0.1
		l-0.2,0.3l-0.2,0l-0.1,0.1l-0.1,0.1l-0.1,0l-0.1,0.2l-0.1,0l-0.2,0l-0.1,0l-0.1,0.1v-0.1v-0.2l-0.1-0.1V52l0.1-0.3v-0.1l-0.2-0.1
		v-0.3l-0.1,0l-0.1,0l-0.1,0L16,50.9v-0.1v-0.1l0.1-0.1l0.2,0l0.1,0l0.2,0l0.1,0v-0.1l-0.1-0.1l-0.3,0l-0.3,0l-0.2,0l-0.1,0
		l-0.1,0.2l-0.2,0.1v0.1l-0.4,0.1v0.3l-0.2,0.1l-0.1,0.1v0.3v0.3v0.3l-0.1,0.2l-0.1,0.4l-0.2,0.2l-0.1,0.2l-0.1,0l-0.1,0.1v0.1
		l-0.1,0l-0.3,0.1l-0.2,0l-0.1,0v0.3l-0.1,0.1v0.1V54v0.1v0.1l-0.1,0.1l-0.1,0v0.3v0.2l-0.1,0.1l-0.1,0.3v0.3L13,55.5l-0.2,0.2
		l-0.1,0.1l-0.2,0.2l-0.2,0.4L12,56.5l-0.2,0.1l-0.3,0.1l-0.1,0.1l-0.3,0.1L11,57.1v0.2l-0.2,0l-0.4,0.3l-0.2,0.3v0.1L10.1,58L10,58
		l-0.1,0.1l-0.4,0l-0.2,0.2l-0.2,0.5l0.1,0l0,0.1l-0.1,0l-0.3,0v0.1l-0.1-0.1L8.7,59l-0.2,0L8.4,59l-0.1-0.2l-0.3,0.1l-0.2-0.1
		L7.7,59v0.2v0.1l-0.2,0.1l-0.1,0.1l0.1,0.2l-0.1,0.1l-0.3,0l-0.1,0.2L7,60.1l-0.1,0v0.1v0.1L7,60.4v0.1l-0.1,0l-0.1,0v-0.1l-0.1,0
		l-0.1,0.1v0.1l-0.2,0.1l0.2,0.1v0.2l-0.1,0l-0.1-0.2v0.2V61v0.1L6.4,61l-0.1-0.1L6.2,61l0.1,0.2v0.1l-0.1,0l-0.1-0.1v-0.1L6,61
		l-0.1,0.2v0.1L6,61.4l0.1,0.1l-0.1,0l-0.1-0.1l-0.1,0v0.1l0.1,0.1L6,61.8l-0.1,0l-0.1,0l-0.3,0l0.1,0.1l0.2,0v0.1l-0.3,0l-0.1,0V62
		l0.1,0h0.1l0.2,0l0.1,0v0.1L6,62.2l-0.1,0l-0.4,0l0.3,0.2l0.1,0v0.3l-0.1,0l-0.2-0.1l-0.1-0.2l-0.1,0v-0.1l-0.1-0.1l-0.1-0.1
		l-0.1,0.1v0.1v0.1l0.1,0v0.2v0.1l-0.1,0l-0.1,0L5,62.7v0.1v0.1l0.2-0.1l0.1-0.1l0.2,0l0.1,0.2l-0.2,0l-0.1,0L5.2,63l-0.1,0.1l0.1,0
		l0.1,0L5.4,63v0.1l-0.1,0.1v0.2l0.2-0.2l-0.1,0.2l-0.1,0.1l-0.1,0l-0.1,0L5,63.2v0.3l-0.2,0l-0.1,0.1l-0.2,0.3L4.7,64l0.2-0.3
		l0.2,0l0.1,0.1L5,64.1l-0.2,0L5,64.2l0.1,0l0.1-0.1L5.3,64l0.1-0.1L5.5,64l-0.1,0.1l-0.1,0v0.1v0.2l-0.1,0.1l-0.2,0l0.2,0.2l0.2,0
		l0.2,0l0.4,0l-0.4,0l0.2,0l0.2,0l0.3,0l0.2,0l0.1,0v-0.1v-0.1v-0.1l0.1-0.2l0.2,0v0.2v0.1v0.1l0.2,0v0.1L7,64.9L6.9,65L7,65.1
		l0.1,0.1l0.1,0v-0.1l0.3,0l0.1,0l0.1,0l0.1,0l0.2,0v0.1L8,65.4l0.1,0l0.2-0.2v0.2l-0.2,0.1l0,0.1H7.9L8,65.7l0.3,0l-0.1-0.1h0.1
		l0.1,0l0.1,0.1l0.1-0.1l0.1,0l0.1,0l0.1,0.1l0.1,0l0.3,0l0.1,0l0.1,0l0.2,0l0.1-0.1l0.1,0l0.2,0l0.1-0.1l0.1,0.1l0.1,0l0.1-0.2
		l0.2-0.2l0.1-0.1v-0.1v-0.2l0.2,0l0.1,0l0.2,0l0.1-0.2l0.1-0.3l0.1-0.1l0.3-0.2l-0.2-0.1l0.3,0l0.1-0.1l0.2-0.2l0.2-0.1v-0.2v-0.1
		l0.1-0.2L12,63.4v-0.1l0.1,0l0.3-0.1v-0.3v-0.2l0.2-0.1v-0.2v-0.1l0.1-0.4l0.2-0.1l0.2-0.1l0.1-0.1v-0.1v-0.1v-0.4V61v-0.1v-0.1
		v-0.4l0.1-0.2l0.1-0.2l0.1-0.1l0.3-0.3l0.3-0.2l0.3,0l0.2-0.2l0.4-0.3l0.2-0.2l-0.1-0.3l0.2,0.3l0.3-0.1l0.1-0.1l0.1-0.2l0.2,0
		l0.2,0.1l-0.2,0l-0.1,0.1l-0.1,0l0.2,0.1l0.1-0.1l0.1,0l0.2,0V59l0.1,0.1l0,0.1l0.1,0l0-0.2l-0.1,0l0-0.1v-0.1l0.1,0l0.1,0.1l0,0.2
		v0.1l0.1,0.1v-0.1l0.1-0.1l0.1-0.3v-0.1v-0.1l-0.1-0.1l-0.1,0.1l-0.1,0l0.1-0.1l-0.1,0l-0.1,0l-0.1,0l-0.1-0.2l-0.1,0.2l-0.1,0
		v-0.1l0.1-0.1L16,58.2l-0.1,0v-0.7l0.2-0.1l0.2-0.3l0.1,0l0.1,0l0.1-0.1l0.2-0.3l0.2,0l0.2-0.1v-0.2v-0.1l0.2-0.2l0.1,0l0.1-0.2
		l-0.1-0.2l0.1,0l0.1,0l0.2-0.3l0.2-0.2l0.1-0.1v-0.2l0.2-0.1l0.1,0v-0.2l-0.1-0.1v-0.2l0.2,0l0.1-0.1v-0.1l0.5-0.4v-0.2v-0.1
		l-0.2,0l0.1-0.1l-0.1-0.2l-0.2-0.2v-0.1v-0.4v-0.1l0.2,0.2l0.1,0l0.1-0.2l0.1-0.1l0.1-0.1l0.1,0v-0.1l-0.1,0l-0.1,0l-0.1,0.1v0.1
		l-0.2,0.1v-0.1l-0.2-0.1l0.2,0l0.1-0.1l-0.1,0v-0.1l0.2,0l0.1-0.1l0.1-0.1v-0.1L18.9,52v0.2l-0.1,0l-0.1,0l0.2-0.3v-0.1l-0.2-0.1
		v0.1v0.1l-0.2,0V52v0.2l-0.1,0.1v0.1l-0.1,0v0.1l-0.1-0.1L18.1,52.2L18.1,52.2z"/>
</g>
</svg>
