<svg xmlns="http://www.w3.org/2000/svg" viewBox="0 0 352.47 104.71"><defs><style>.cls-10{fill:#292562}</style></defs><path d="M61.71 28.35l-14.14-7.57-14.12 7.56-14.08 7.59 14.09 8.41 14.12 8.44 14.13-8.44 14.11-8.41-14.1-7.56" fill="#f7f8f8"/><path d="M33.45 60.41l-14.14 8.44 13.89 7.86.25-16.3zm14.12 8.41V52.81l-14.12-8.44v.02l.02.02-.02-.02-14.13-8.48-.01 16.92v16.01l14.02 7.88-.06.03 14.3 8.08-.02-16.05.02.04z" fill="#eaeaea"/><path d="M75.84 35.98L61.66 44.3v.1l-14.08 8.41h-.01v16.01l.04-.01-.03.02h-.01v16l14.42-8.14 13.8-7.94-.01-16h.01l.05-16.77z" fill="#d2d2d2"/><path d="M56.67 100.91l-9.15-16 46.77-26.66.34 16.06a6.93 6.93 0 01-3.5 6.17z" fill="#82153d"/><path d="M10.36 84.71l8.89-15.86 46.9 26.43-13.51 8.4a6.94 6.94 0 01-7.07.12z" fill="#87c388"/><path d="M.04 35.64h19.18v53.84l-14.74-7.7a6.89 6.89 0 01-3.77-6.1z" fill="#227d7a"/><path d="M38.48 3.87l9.15 16.86L.26 46.28.04 29.71a6.89 6.89 0 013.57-6.21z" fill="#58c0c9"/><path d="M84.82 19.76l-8.78 16.27-48.4-26 14.64-8.78a6.89 6.89 0 017.15-.44z" fill="#f29a3f"/><path d="M94.31 58.27L75.84 68.73V14.94l14.84 7.65a6.92 6.92 0 013.63 6.09z" fill="#d51f27"/><path class="cls-10" d="M148.38 28.03c-1.49-2.49-5.59-4.85-10.32-4.85-6.09 0-9 2.55-9 5.78 0 3.79 4.48 4.85 9.7 5.47 9.07 1.12 17.52 3.48 17.52 13.86 0 9.7-8.58 13.86-18.27 13.86-8.89 0-15.72-2.73-19-10.69l6.84-3.54c1.93 4.79 7 6.9 12.24 6.9s10-1.8 10-6.53c0-4.1-4.29-5.78-10.07-6.4-8.89-1.06-17.09-3.42-17.09-13.17 0-9 8.82-12.62 16.84-12.68 6.77 0 13.8 1.93 17.09 8.64z"/><path class="cls-10" d="M138.04 63.23c-10.31 0-16.84-3.71-19.94-11.35l-.37-.9 8.74-4.53.44 1.09c1.57 3.9 5.78 6.23 11.26 6.23 2.1 0 8.94-.39 8.94-5.46 0-1.87-.95-4.46-9.12-5.34-8.93-1.06-18-3.58-18-14.23 0-9.4 9-13.67 17.9-13.74s15.09 3.19 18.05 9.23l.46.94-8.34 4.29-.51-.86c-1.26-2.1-5-4.33-9.4-4.33-5 0-7.95 1.76-7.95 4.72 0 2.42 2.46 3.66 8.76 4.41 9.59 1.18 18.46 3.81 18.46 14.92-.09 9.19-7.5 14.91-19.38 14.91zm-17.62-11.27c2.9 6.23 8.52 9.14 17.58 9.14 8.32 0 17.21-3.36 17.21-12.79 0-8.93-6.63-11.57-16.59-12.8-3.71-.44-10.63-1.27-10.63-6.52 0-3.31 2.65-6.84 10.08-6.84a14.12 14.12 0 0110.65 4.54l4.74-2.44c-2.78-4.73-8-7.12-15.64-7.12-7.86.05-15.78 3.66-15.78 11.6 0 8.46 6.46 11 16.15 12.12 2.71.29 11 1.18 11 7.46 0 4.68-4.24 7.59-11.07 7.59-5.89 0-10.56-2.41-12.74-6.51zm86.37-34.35v24.92c0 12.86-7.89 19.45-18.83 19.45-10.44 0-19.33-6.34-19.33-19.45V17.61h8.14v24.92c0 7.83 4.48 12 11.25 12s10.63-4.54 10.63-12V17.61zm-18.83 45.42c-12.39 0-20.39-8-20.39-20.5v-26h10.27v26c0 6.95 3.71 10.93 10.18 10.93 6.08 0 9.56-4 9.56-10.93v-26h10.27v26c0 12.65-7.62 20.5-19.89 20.5zM169.7 18.67v23.86c0 13.56 9.43 18.39 18.26 18.39 11.12 0 17.76-6.87 17.76-18.39V18.67h-6v23.86c0 8.18-4.37 13.06-11.69 13.06-7.59 0-12.31-5-12.31-13.06V18.67zm86.49 11.49a8.85 8.85 0 01-5.65 8.39c5.1 1.55 7 7 7 9.7 0 9.69-7.27 12.8-16.28 12.8h-20.68v-43.5h20.63c8.58 0 14.98 3.85 14.98 12.61zm-27.53 4.87h12.55c5.16 0 6.84-2.18 6.84-4.66 0-2-1.62-5.34-6.84-5.34h-12.55zm0 18.4h12.55c3.36 0 8.14-1.12 8.14-5.22 0-3.91-4.79-6-8.14-6h-12.55zm12.55 8.68h-21.7V16.48h21.7c10 0 16 5.11 16 13.68a9.64 9.64 0 01-4.33 8.28 12.09 12.09 0 015.64 9.81c.04 9.07-5.96 13.86-17.31 13.86zm-19.57-2.08h19.57c10.1 0 15.22-3.95 15.22-11.74 0-2.21-1.52-7.25-6.21-8.68l-2.72-.83 2.6-1.16a7.73 7.73 0 005-7.42c0-10.05-8.72-11.55-13.91-11.55h-19.55zm19.57-5.51h-13.62V41.15h13.62c3.86 0 9.21 2.44 9.21 7s-4.96 6.32-9.21 6.32zm-11.49-2.13h11.49c1.18 0 7.08-.2 7.08-4.16 0-3.16-4.18-4.9-7.08-4.9h-11.49zm11.49-16.36h-13.62V23.94h13.62c5.8 0 7.9 3.83 7.9 6.41 0 1.68-.77 5.68-7.9 5.68zm-11.49-2.13h11.49c3.83 0 5.77-1.21 5.77-3.6 0-1.48-1.21-4.28-5.77-4.28h-11.49zm50.82-8.87h-13.8v-7.48h35.8v7.48h-13.8v36h-8.2zm9.27 37.08h-10.33V26.03h-13.8v-9.55h37.92v9.55h-13.8zm-8.2-2.08h6.07v-36h13.8v-5.42h-33.67v5.33h13.8zm56.6-7.18h-22.75l-3.72 8.18h-8.89l19.51-43.5h8.95l19.52 43.5h-8.95zm-11.37-26.17l-8.08 18.52h16.16zm25.63 35.43h-11.28l-3.67-8.2h-21.37l-3.73 8.2h-11.21l20.47-45.63h10.36zm-9.9-2.08h6.61l-18.56-41.42h-7.58l-18.55 41.42h6.55l3.73-8.2h24.12zm-6-13.72h-19.44l9.71-22.28zm-16.16-2.13h12.91l-6.48-14.84zM128.67 76.3a3.19 3.19 0 00-2.63-1.27c-1.56 0-2.31.65-2.31 1.48s1.15 1.24 2.48 1.4c2.33.29 4.49.89 4.49 3.55 0 2.48-2.2 3.55-4.68 3.55-2.28 0-4-.7-4.86-2.74l1.75-.91a3.18 3.18 0 003.13 1.81c1.32 0 2.56-.46 2.56-1.67 0-1.05-1.1-1.48-2.58-1.64-2.28-.27-4.38-.88-4.38-3.38 0-2.29 2.26-3.23 4.32-3.25 1.74 0 3.54.49 4.38 2.21zm5.83.61v4.12a1.87 1.87 0 001.89 2.1 2.07 2.07 0 002-2.2v-4h1.93v7.87h-1.74l-.13-1.07a3.5 3.5 0 01-2.66 1.18c-1.88 0-3.25-1.42-3.25-3.85v-4.15zm9.54-3.28v4.35a3.25 3.25 0 012.58-1.26 3.76 3.76 0 014 4.11 3.85 3.85 0 01-4 4.11 2.86 2.86 0 01-2.58-1.26l-.13 1.08h-1.87V73.63zm.13 7.2a2.255 2.255 0 104.51 0 2.17 2.17 0 00-2.23-2.29 2.24 2.24 0 00-2.32 2.29zm12.97-1.8a2.65 2.65 0 00-1.94-.7c-.92 0-1.43.29-1.43.78s.46.8 1.46.86c1.48.1 3.36.43 3.36 2.52 0 1.39-1.13 2.58-3.38 2.58a4.59 4.59 0 01-3.63-1.4l1-1.39a4.31 4.31 0 002.71 1.1c.73 0 1.42-.37 1.42-.94s-.45-.77-1.56-.83c-1.48-.11-3.25-.65-3.25-2.44s1.88-2.45 3.31-2.45a4.22 4.22 0 013.06 1zm9.43 4.73a4 4 0 01-3 1.24 4.16 4.16 0 110-8.31 3.73 3.73 0 012.83 1.16l-1.23 1.29a2.38 2.38 0 00-1.58-.62 2.21 2.21 0 00-2.26 2.32 2.14 2.14 0 002.23 2.29 2.36 2.36 0 001.72-.65zm2.67-6.85l.14.91a2.31 2.31 0 012.21-1.12 3 3 0 012 .75l-.88 1.69a1.94 1.94 0 00-1.4-.51 1.81 1.81 0 00-2 2v4.14h-1.87v-7.86zm7.23-2.22a1.15 1.15 0 01-2.29 0 1.15 1.15 0 012.29 0zm-2.12 2.18v7.88h1.94v-7.87zm3.69 11.16V76.91h1.82l.18 1.12a3.12 3.12 0 012.55-1.26 3.93 3.93 0 014 4.11 3.83 3.83 0 01-4 4.11 3.16 3.16 0 01-2.55-1.15v4.19zm6.58-7.2a2.23 2.23 0 10-4.46 0 2.23 2.23 0 104.46 0zm6.12-6.14v2.23h2.17v1.67h-2.18v3.44a1 1 0 001 1.12 2.24 2.24 0 00.94-.24l.54 1.66a4.33 4.33 0 01-1.61.33c-1.7.06-2.82-.91-2.82-2.87V78.6h-1.44v-1.68h1.47v-2zm5.74 0a1.15 1.15 0 01-2.29 0 1.15 1.15 0 012.29 0zm-2.12 2.18v7.88h1.94v-7.87zm11.68 3.97a4.08 4.08 0 11-4.11-4.09 4 4 0 014.11 4.09zm-6.23 0a2.14 2.14 0 104.27 0 2.22 2.22 0 00-2.13-2.32 2.16 2.16 0 00-2.14 2.32zm13.35 3.92v-4.11a1.87 1.87 0 00-1.9-2.1 2.07 2.07 0 00-2 2.2v4h-1.93v-7.86h1.71l.13 1.07a3.54 3.54 0 012.58-1.18c1.85 0 3.33 1.39 3.33 3.85v4.12zm9.88-9.24h-3.54v-1.91h9.17v1.91h-3.54v9.24h-2.09zm6.9 1.39l.14.91a2.31 2.31 0 012.21-1.12 3 3 0 012 .75l-.88 1.69a1.94 1.94 0 00-1.4-.51 1.81 1.81 0 00-2 2v4.14h-1.87v-7.86zm11.34 0h1.86v7.85h-1.83l-.1-1.15a3 3 0 01-2.55 1.39 4.14 4.14 0 010-8.28 2.88 2.88 0 012.5 1.27zm-4.71 3.92a2.25 2.25 0 002.32 2.39c3.06 0 3.06-4.76 0-4.76a2.24 2.24 0 00-2.32 2.37zm16.37-7.2v11.13h-1.82l-.08-1.08a2.86 2.86 0 01-2.53 1.26 3.85 3.85 0 01-4-4.11 3.76 3.76 0 014-4.11 3.25 3.25 0 012.53 1.26v-4.35zm-6.58 7.2a2.255 2.255 0 104.51 0 2.24 2.24 0 00-2.28-2.29 2.17 2.17 0 00-2.23 2.29zm10.11.7a2.09 2.09 0 002.34 1.67 3.24 3.24 0 002.1-.73l1.24 1.23a4.83 4.83 0 01-3.38 1.27 4.15 4.15 0 11-.14-8.3c2.63 0 4.27 1.62 4 4.86zm4.27-1.61a1.8 1.8 0 00-2-1.53 2.12 2.12 0 00-2.2 1.53zm14.64 2.74h-5.83l-1 2.1h-2.28l5-11.15h2.29l5 11.15h-2.29zm-2.92-6.7l-2.07 4.75h4.14zm12.08 3.07a2.65 2.65 0 00-1.94-.7c-.92 0-1.43.29-1.43.78s.46.8 1.46.86c1.48.1 3.36.43 3.36 2.52 0 1.39-1.13 2.58-3.38 2.58a4.59 4.59 0 01-3.63-1.4l1-1.39a4.31 4.31 0 002.71 1.1c.73 0 1.42-.37 1.42-.94s-.45-.77-1.56-.83c-1.48-.11-3.25-.65-3.25-2.44s1.88-2.45 3.31-2.45a4.22 4.22 0 013.06 1zm7.82 0a2.65 2.65 0 00-1.94-.7c-.92 0-1.43.29-1.43.78s.46.8 1.46.86c1.48.1 3.36.43 3.36 2.52 0 1.39-1.13 2.58-3.38 2.58a4.59 4.59 0 01-3.63-1.4l1-1.39a4.31 4.31 0 002.71 1.1c.73 0 1.42-.37 1.42-.94s-.45-.77-1.56-.83c-1.48-.11-3.25-.65-3.25-2.44s1.88-2.45 3.31-2.45a4.22 4.22 0 013.06 1zm10.5 1.81a4.08 4.08 0 11-4.11-4.09 4 4 0 014.11 4.09zm-6.23 0a2.14 2.14 0 104.27 0 2.22 2.22 0 00-2.13-2.32 2.16 2.16 0 00-2.14 2.32zm14.31 2.92a4 4 0 01-3 1.24 4.16 4.16 0 110-8.31 3.73 3.73 0 012.83 1.16l-1.23 1.29a2.38 2.38 0 00-1.58-.62 2.21 2.21 0 00-2.26 2.32 2.14 2.14 0 002.23 2.29 2.36 2.36 0 001.72-.65zm2.98-9.07a1.15 1.15 0 01-2.29 0 1.15 1.15 0 012.29 0zm-2.12 2.18v7.88h1.94v-7.87zm9.92.04h1.86v7.85h-1.83l-.1-1.15A3 3 0 01319.1 85a4.14 4.14 0 010-8.28 2.88 2.88 0 012.5 1.27zm-4.68 3.92a2.25 2.25 0 002.32 2.39c3.06 0 3.06-4.76 0-4.76a2.24 2.24 0 00-2.32 2.37zm10.59-6.14v2.23h2.17v1.67h-2.18v3.44a1 1 0 001 1.12 2.24 2.24 0 00.94-.24l.54 1.66a4.33 4.33 0 01-1.61.33c-1.7.06-2.82-.91-2.82-2.87V78.6h-1.47v-1.68h1.47v-2zm5.74 0a1.15 1.15 0 01-2.29 0 1.15 1.15 0 012.29 0zm-2.12 2.18v7.88h1.94v-7.87zm11.68 3.97a4.08 4.08 0 11-4.11-4.09 4 4 0 014.11 4.09zm-6.23 0a2.14 2.14 0 104.27 0 2.22 2.22 0 00-2.13-2.32 2.16 2.16 0 00-2.14 2.32zm13.34 3.92v-4.11a1.87 1.87 0 00-1.9-2.1 2.07 2.07 0 00-2 2.2v4h-1.93v-7.86h1.74l.13 1.07a3.54 3.54 0 012.58-1.18c1.85 0 3.33 1.39 3.33 3.85v4.12z"/></svg>