<?xml version="1.0"?>
<svg xmlns="http://www.w3.org/2000/svg" id="Layer_1" data-name="Layer 1" viewBox="0 0 512 512"><path fill="#33bdf1" d="M379.808,104.053c-39.867,34.37-87.718,65.84-142.341,93.6-55.226,28.038-117.074,52.5-189.076,74.786a26.445,26.445,0,1,0,15.59,50.539h0c75-23.206,139.56-48.768,197.37-78.143,59.821-30.371,112.254-65.1,155.955-103.278l16.917,16.918a7,7,0,0,0,11.882-3.962l12.076-84.643a7,7,0,0,0-7.918-7.921L365.621,74a7,7,0,0,0-3.967,11.88ZM443,77.128l-8.779,61.542L422.554,127a7,7,0,0,0-9.615-.27c-43.77,39.1-96.9,74.637-157.928,105.619-57.1,29.013-120.936,54.282-195.168,77.251a12.45,12.45,0,0,1-15.558-8.234,12.483,12.483,0,0,1,8.245-15.551C125.3,263.3,187.865,238.54,243.809,210.139c58.27-29.615,109.035-63.427,150.884-100.5A7,7,0,0,0,395,99.452L381.457,85.889ZM33.386,131.571l16.26,4.106a90.6,90.6,0,0,0,8.066,19.462L49.1,169.549a7,7,0,0,0,.436,7.829A112.191,112.191,0,0,0,70.94,198.783a7,7,0,0,0,7.823.442l14.424-8.615a90.725,90.725,0,0,0,19.454,8.06l4.107,16.263a7,7,0,0,0,5.817,5.223,108.829,108.829,0,0,0,30.319,0,7,7,0,0,0,5.818-5.223l4.09-16.265a91.009,91.009,0,0,0,19.465-8.061l14.43,8.618a7,7,0,0,0,7.822-.442A111.222,111.222,0,0,0,225.9,177.365a7,7,0,0,0,.426-7.816l-8.592-14.4a91.258,91.258,0,0,0,8.063-19.471l16.267-4.1a7,7,0,0,0,5.227-5.818,111.966,111.966,0,0,0,0-30.319,7.006,7.006,0,0,0-5.228-5.82L225.79,85.528a91.845,91.845,0,0,0-8.06-19.476l8.6-14.419a7,7,0,0,0-.43-7.81,110.28,110.28,0,0,0-21.4-21.4,7,7,0,0,0-7.808-.431l-14.437,8.6a91.269,91.269,0,0,0-19.458-8.06L158.7,6.26a7,7,0,0,0-5.818-5.228,112.44,112.44,0,0,0-30.321,0,7,7,0,0,0-5.817,5.228l-4.105,16.268a91.42,91.42,0,0,0-19.464,8.058L78.763,21.992a7,7,0,0,0-7.809.431A111.176,111.176,0,0,0,49.535,43.811a7,7,0,0,0-.44,7.822l8.617,14.445A90.551,90.551,0,0,0,49.65,85.527L33.386,89.616a7,7,0,0,0-5.223,5.819,108.931,108.931,0,0,0,0,30.319A7,7,0,0,0,33.386,131.571Zm8.11-29.556L57.1,98.1a7,7,0,0,0,5.119-5.214A76.6,76.6,0,0,1,71.8,69.738a7,7,0,0,0,.058-7.283L63.6,48.627A97.173,97.173,0,0,1,75.748,36.5l13.815,8.238a7,7,0,0,0,7.276-.063,77.615,77.615,0,0,1,23.17-9.595,7,7,0,0,0,5.182-5.087l3.955-15.617a100.1,100.1,0,0,1,17.157,0l3.921,15.6a7,7,0,0,0,5.193,5.108,77.428,77.428,0,0,1,23.165,9.595,7,7,0,0,0,7.267.067L199.7,36.5a96.242,96.242,0,0,1,12.12,12.121l-8.237,13.815a7,7,0,0,0,.056,7.266,77.914,77.914,0,0,1,9.6,23.2,7,7,0,0,0,5.109,5.192l15.6,3.921c.246,2.807.37,5.682.37,8.593s-.124,5.762-.369,8.563l-15.617,3.955a7,7,0,0,0-5.089,5.188,77.39,77.39,0,0,1-9.594,23.165,7,7,0,0,0-.067,7.267l8.238,13.828a97.161,97.161,0,0,1-12.125,12.139L185.9,176.463a7,7,0,0,0-7.28.047,77.166,77.166,0,0,1-23.183,9.595,7,7,0,0,0-5.215,5.118l-3.919,15.6a94.644,94.644,0,0,1-17.158,0l-3.954-15.62a7,7,0,0,0-5.2-5.1,76.823,76.823,0,0,1-23.149-9.59,7,7,0,0,0-7.291-.053l-13.791,8.251a98.093,98.093,0,0,1-12.148-12.147l8.252-13.805a7,7,0,0,0-.058-7.282,76.619,76.619,0,0,1-9.589-23.145,7,7,0,0,0-5.1-5.209L41.5,119.173c-.259-2.855-.39-5.722-.39-8.564S41.236,104.877,41.5,102.015Zm46.729,17.356a50.271,50.271,0,1,0,0-17.554,7,7,0,0,1-13.791-2.43,64.276,64.276,0,1,1,0,22.414,7,7,0,0,1,13.791-2.43Zm49.485,29.052A37.829,37.829,0,1,0,99.9,110.609,37.872,37.872,0,0,0,137.71,148.423Zm0-61.653A23.825,23.825,0,1,1,113.9,110.609,23.867,23.867,0,0,1,137.71,86.77ZM417.66,310.725V174.5a7,7,0,0,0-10.7-5.943c-20.358,12.677-38.183,24.613-60.344,39.763a7,7,0,0,0-3.051,5.78v96.858a103.794,103.794,0,0,0-19.3,9.887v-85.23a7,7,0,0,0-10.644-5.979c-19.075,11.621-39.13,22.755-59.607,33.093a7,7,0,0,0-3.846,6.25v46.148a7,7,0,1,0,14,0V273.277c15.709-8.027,31.155-16.506,46.091-25.3V331.78a103.784,103.784,0,0,0-32.62,88.372H264.164V335.141a7,7,0,1,0-14,0v85.011h-19.3V285.081a7,7,0,0,0-9.93-6.359c-19.048,8.771-39.143,17.321-59.727,25.411a7,7,0,0,0-4.441,6.517v109.5h-19.3V323.236a7,7,0,0,0-9.383-6.584c-19.262,6.968-39.387,13.765-59.817,20.2a7,7,0,0,0-4.9,6.677v76.621H47.37a7,7,0,0,0-7,7v32.512a7,7,0,0,0,7,7H295.1A103.969,103.969,0,1,0,417.66,310.725Zm-60.1-92.928c16.713-11.406,31.033-21.008,46.092-30.608V306.526a104.337,104.337,0,0,0-46.092.135Zm-186.8,97.613c15.751-6.261,31.2-12.783,46.092-19.458v124.2H170.762Zm-93.4,33.247c15.649-4.985,31.094-10.172,46.091-15.48v86.975H77.361ZM54.372,452.664V434.156H280.255a103.229,103.229,0,0,0,6.76,18.508ZM380.923,497.99a89.985,89.985,0,1,1,89.972-90A90.1,90.1,0,0,1,380.923,497.99Zm80.419-90A80.435,80.435,0,0,1,301.22,418.942a7,7,0,0,1,13.875-1.889,66.43,66.43,0,1,0,0-18.1,7,7,0,0,1-13.875-1.888,80.435,80.435,0,0,1,160.122,10.922ZM387.924,354.5V403.95l22.212,12.832a7,7,0,1,1-7.005,12.125L377.42,414.054a7,7,0,0,1-3.5-6.063V354.5a7,7,0,1,1,14,0Z"/></svg>
