<svg id="Layer_1" viewBox="0 0 512 512" xmlns="http://www.w3.org/2000/svg" data-name="Layer 1"><path fill="#33bdf1" d="m254.061 422.654-54.206-25.991a3.661 3.661 0 0 0 -5.394 1.9l-5.033 10.5a3.588 3.588 0 0 0 1.657 4.733l54.651 26.2a3.586 3.586 0 0 0 4.73-1.652l5.253-10.955a3.588 3.588 0 0 0 -1.658-4.732zm183.629-288.616a72.762 72.762 0 1 0 0 102.9 72.764 72.764 0 0 0 0-102.9zm-87.017 54.662a5.463 5.463 0 0 1 7.444-8l19.266 17.954 36.786-37.773a5.46 5.46 0 0 1 7.831 7.613l-40.432 41.519a5.463 5.463 0 0 1 -7.721.277zm-51.649 129.019c2.752 1.211 4.884 2.978 7.066 2.211a3.506 3.506 0 0 0 2.008-1.786l5.25-10.95a3.587 3.587 0 0 0 -1.657-4.733l-54.649-26.2a3.587 3.587 0 0 0 -4.733 1.657l-5.251 10.95a3.588 3.588 0 0 0 1.657 4.733l50.309 24.122zm-7.411 40.139-16.506 34.426c-.058.122-.118.242-.18.362 1.912.916 3.323 1.948 5.133 1.312a3.416 3.416 0 0 0 1.959-1.743l13.69-28.55a3.5 3.5 0 0 0 -1.612-4.616zm-42.831-40.658 4.475-9.334 36.143 17.334-4.475 9.334zm-18.63 58.315-8.4-4.025a4.359 4.359 0 0 1 -2.017-5.759l17.77-37.062a4.358 4.358 0 0 1 5.759-2.018l37.754 18.1a4.36 4.36 0 0 1 2.018 5.759l-17.771 37.062a4.359 4.359 0 0 1 -5.758 2.018l-13.229-6.344a5.453 5.453 0 1 0 -4.706 9.839l12.428 5.962-4.475 9.334-36.151-17.331 4.476-9.334 7.6 3.642a5.453 5.453 0 1 0 4.706-9.839zm-58.695-231.063 1.071-.9a5.45 5.45 0 0 1 7.016 8.342l-8.087 6.811v38.724a5.476 5.476 0 0 1 -5.475 5.476h-56.721a5.476 5.476 0 0 1 -5.476-5.476v-56.723a5.476 5.476 0 0 1 5.476-5.476h56.721a5.476 5.476 0 0 1 5.475 5.476zm-50.457 24.063a5.448 5.448 0 0 1 6.8-8.515l12.92 10.336 19.783-16.662v-7.495h-45.77v45.77h45.77v-24.023l-16.185 13.632a5.453 5.453 0 0 1 -6.909.086zm190.017-116.792h49.8a50.729 50.729 0 0 1 50.6 50.594v3.311a83.742 83.742 0 0 1 0 159.722v143.979c19.72 9.447 18.462 37.126-1.024 45.2a50.789 50.789 0 0 1 -49.58 40.571h-268.17a50.729 50.729 0 0 1 -50.595-50.594v-342.189a50.729 50.729 0 0 1 50.6-50.594h49.794v-7.2a5.476 5.476 0 0 1 5.476-5.476h38.624c5.758-14.718 23.858-22.147 40.186-22.147s34.424 7.429 40.19 22.146h38.624a5.476 5.476 0 0 1 5.475 5.476v7.2zm-157.628 33.741v7.164h146.677v-42.628h-37.231v-.021a5.455 5.455 0 0 1 -5.368-4.492c-.85-4.678-4.364-8.95-9.546-12.129-11.975-7.344-30.411-7.344-42.386 0-5.039 3.091-8.5 7.215-9.469 11.74a5.477 5.477 0 0 1 -5.446 4.902h-37.231zm222.444 319.612c10.8 4.745 21.225 9.467 31.067 14.186a13.733 13.733 0 0 1 7.035 7.848c4.094 11.637-7.969 22.31-18.977 17.033-24.369-11.685-47.519-24.129-72.284-37.35-9.353-4.993-18.77-10.021-28.329-15.057l8.545-17.821c10.2 4.389 20.159 8.6 30.034 12.781 14.306 6.053 28.442 12.034 42 17.981a5.526 5.526 0 0 0 .911.4zm7.209-135.934v127.191q8.894 3.928 17.414 7.85v-136.183a84.4 84.4 0 0 1 -17.414 1.145zm-72.025-189.053h49.8a22.281 22.281 0 0 1 22.224 21.748 84.454 84.454 0 0 1 17.419 1.143 39.779 39.779 0 0 0 -39.643-40.306h-49.8zm-180.327 367.511v-32.839a11.324 11.324 0 0 0 -11.277-11.278h-30.761zm5.5 19.138h224.623a22.3 22.3 0 0 0 21.506-16.608c5.269 2.591 10.488 5.646 16.35 6.187a39.8 39.8 0 0 1 -37.856 27.835h-268.17a39.773 39.773 0 0 1 -39.643-39.646v-342.189a39.773 39.773 0 0 1 39.643-39.643h49.794v17.415h-49.794a22.279 22.279 0 0 0 -22.229 22.228v295.69a5.436 5.436 0 0 0 1.793 4.053l59.733 62.681a5.422 5.422 0 0 0 2.578 1.741l1.648.253zm35.267-234.628v-3.746a5.476 5.476 0 0 0 -5.475-5.476h-56.721a5.476 5.476 0 0 0 -5.476 5.476v56.721a5.476 5.476 0 0 0 5.476 5.476h56.721a5.476 5.476 0 0 0 5.475-5.476v-38.724l8.087-6.811a5.45 5.45 0 0 0 -7.016-8.342l-1.071.9zm-50.457 24.063a5.448 5.448 0 0 1 6.8-8.513l12.923 10.34 19.783-16.662v-7.498h-45.77v45.77h45.77v-24.025l-16.185 13.631a5.451 5.451 0 0 1 -6.909.086zm50.456 63.595v-3.746a5.475 5.475 0 0 0 -5.475-5.475h-56.72a5.476 5.476 0 0 0 -5.476 5.475v56.721a5.476 5.476 0 0 0 5.476 5.476h56.721a5.476 5.476 0 0 0 5.475-5.476v-38.724l8.087-6.811a5.45 5.45 0 1 0 -7.016-8.341l-1.071.9zm-50.456 24.063a5.448 5.448 0 0 1 6.8-8.513l12.92 10.337 19.783-16.663v-7.492h-45.77v45.77h45.77v-24.027l-16.185 13.632a5.452 5.452 0 0 1 -6.909.085zm87.516 25.6 1.127 4.17-6.11 12.743a14.469 14.469 0 0 0 -18.685 7.035l-5.26 10.969a14.467 14.467 0 0 0 6.791 19.278l54.193 25.984a5.391 5.391 0 0 0 1.041.483c7.335 2.813 14.448.293 18.4-6.478l5.542-11.526a14.466 14.466 0 0 0 -6.21-18.983l6.11-12.742c.152-.043.3-.087.455-.135.949.793 5.419 2.785 6.784 3.439a14.374 14.374 0 0 0 16.093-2.535c27.33 14.394 56.432 30.327 83.29 43.886a11.328 11.328 0 0 1 -11.266 10.762h-219.169v-41.02a22.28 22.28 0 0 0 -22.229-22.229h-38.048v-290.215a11.323 11.323 0 0 1 11.278-11.277h49.794v7.06a5.476 5.476 0 0 0 5.476 5.476h157.629a5.476 5.476 0 0 0 5.475-5.476v-7.06h49.8a11.35 11.35 0 0 1 11.278 11.929 83.783 83.783 0 0 0 -58.665 41.19l-117.364-.088a5.454 5.454 0 1 0 0 10.908l112.167.085a83.378 83.378 0 0 0 -5.672 28.17l-106.495-.081a5.455 5.455 0 1 0 0 10.909l106.907.081a83.225 83.225 0 0 0 13.516 37.644l-120.423-.058a5.455 5.455 0 1 0 0 10.909l129.066.061a83.528 83.528 0 0 0 46.963 25.31v123.534l-52-22.134 25.962.045a5.454 5.454 0 1 0 0-10.908l-39.578-.069q-.144-.538-.329-1.064c-2.222-6.316-6.569-7.833-11.859-10.369l-1.153-4.4 6.111-12.744a14.386 14.386 0 0 0 10.27.393l36.538.06a5.454 5.454 0 1 0 0-10.908l-26.462-.044 3.6-7.5a14.466 14.466 0 0 0 -6.79-19.278l-22.7-10.883 52.353.042a5.455 5.455 0 1 0 0-10.909l-75.116-.06-9.188-4.394a14.469 14.469 0 0 0 -17.871 4.451l-47.814-.057a5.454 5.454 0 1 0 0 10.908l42.3.051-1.145 2.388a14.465 14.465 0 0 0 6.211 18.982l-6.11 12.743a15.31 15.31 0 0 0 -6.339 3.563l-34.919-.059a5.454 5.454 0 1 0 0 10.908l28.55.048-13.518 28.193-15.011-.067a5.454 5.454 0 1 0 -.043 10.908z" fill-rule="evenodd"/></svg>