<svg id="Layer_1" viewBox="0 0 512 512" xmlns="http://www.w3.org/2000/svg" data-name="Layer 1"><path fill="#33bdf1" d="m154.306 276.937v12.054c0 3.867-3.135 7.002-7.002 7.002s-7.002-3.135-7.002-7.002v-12.372c-15.009-2.431-28.277-11.614-37.48-26.285-2.055-3.276-1.065-7.598 2.21-9.652 3.276-2.054 7.597-1.063 9.652 2.211 11.932 19.021 27.942 20.874 36.433 20.277 11.865-.827 22.755-7.215 26.479-15.534 2.229-4.975 1.456-9.951-2.294-14.791-4.692-6.048-17.474-9.491-29.834-12.82-14.592-3.931-29.681-7.996-37.258-17.762-6.96-8.983-8.383-19.309-4.009-29.079 5.583-12.471 19.917-21.761 36.1-23.582v-12.037c0-3.867 3.135-7.002 7.002-7.002s7.002 3.135 7.002 7.002v12.357c15.011 2.43 28.277 11.608 37.48 26.271 2.056 3.274 1.066 7.597-2.209 9.652s-7.597 1.067-9.652-2.209c-10.284-16.386-23.609-20.021-32.53-20.333-.191-.002-.383-.003-.571-.016-1.214-.021-2.335.012-3.352.083-11.873.83-22.766 7.219-26.489 15.535-2.225 4.969-1.452 9.94 2.295 14.777 4.692 6.048 17.474 9.491 29.834 12.82 14.592 3.931 29.681 7.996 37.258 17.762 6.964 8.987 8.386 19.318 4.009 29.095-5.583 12.468-19.904 21.753-36.072 23.578zm348.719 45.814v36.34c0 10.535-8.571 19.106-19.106 19.106h-15.104c-2.719 9.313-6.437 18.278-11.101 26.766l10.689 10.688c7.419 7.466 7.419 19.587.015 27.037l-25.728 25.699c-7.447 7.447-19.569 7.447-27.021-.002l-10.683-10.683c-8.487 4.679-17.457 8.399-26.772 11.104v15.094c0 10.535-8.571 19.106-19.106 19.106h-36.34c-10.534 0-19.105-8.571-19.105-19.106v-15.104c-9.313-2.719-18.278-6.437-26.767-11.101l-10.688 10.689c-7.465 7.42-19.587 7.421-27.036.015l-25.697-25.696c-7.42-7.465-7.42-19.588-.015-27.037l10.697-10.677c-4.681-8.508-8.4-17.483-11.104-26.793h-15.095c-10.534 0-19.105-8.571-19.105-19.106v-27.906c-10.325 1.424-20.893 2.142-31.444 2.142-21.339 0-42.596-2.885-61.581-8.542-34.482-10.277-59.467-29.086-70.354-52.961-15.513-34.024-10.684-93.321 99.03-183.293-9.349-21.596-21.464-33.845-29.663-42.134-7.148-7.228-12.313-12.449-11.224-19.709 1.007-6.709 7.424-10.988 13.568-14.289 9.646-5.167 22.13-2.179 35.348.986 8.381 2.008 17.04 4.104 24.496 3.88 8.563-.23 16.632-2.354 24.435-4.405 12.688-3.337 24.674-6.488 35.924-.466 6.159 3.306 12.584 7.586 13.593 14.298 1.091 7.262-4.077 12.485-11.229 19.716-8.199 8.288-20.314 20.536-29.672 42.124 59.273 48.586 93.848 93.062 103.009 132.422 6.628-3.197 13.505-5.843 20.576-7.908v-15.104c0-10.534 8.571-19.105 19.105-19.105h36.34c10.535 0 19.106 8.571 19.106 19.105v15.104c9.286 2.713 18.251 6.433 26.763 11.103l10.692-10.692c7.448-7.448 19.57-7.45 27.022 0l25.711 25.711c7.449 7.45 7.449 19.572 0 27.022l-10.689 10.689c4.664 8.488 8.382 17.453 11.101 26.767h15.104c10.535 0 19.106 8.571 19.106 19.105zm-375.367-239.074h39.268c10.406-24.401 23.821-37.97 32.87-47.118 2.705-2.735 5.992-6.058 7.05-7.812-.668-.668-2.286-1.979-6.073-4.013-4.535-2.427-10.152-1.999-16.886-.534l-33.021 32.993c-1.367 1.365-3.158 2.049-4.949 2.049s-3.586-.685-4.953-2.053c-2.733-2.736-2.731-7.169.004-9.902l17.07-17.055c-3.42.545-6.962.931-10.628 1.03-9.309.25-18.873-2.041-28.137-4.26-10.089-2.417-20.521-4.915-25.465-2.266-3.775 2.028-5.389 3.338-6.055 4.004 1.057 1.753 4.342 5.074 7.046 7.809 9.049 9.149 22.463 22.717 32.861 47.128zm52.122 233.223c2.478-7.68 9.688-13.254 18.18-13.254h15.095c2.705-9.317 6.424-18.285 11.103-26.772l-10.682-10.683c-3.599-3.599-5.58-8.397-5.58-13.512s1.982-9.914 5.581-13.512l25.678-25.708c7.469-7.422 19.59-7.424 27.039-.018l.122.122c-12.16-34.071-45.304-73.674-97.185-115.883h-43.685c-44.4 36.131-74.833 69.908-90.451 100.415-13.248 25.877-15.528 48.728-6.778 67.918 9.184 20.14 31.064 36.245 61.613 45.351 27.381 8.16 59.885 10.123 89.95 5.536zm309.242 5.851c0-2.813-2.289-5.102-5.103-5.102h-20.466c-3.219 0-6.022-2.194-6.796-5.318-2.886-11.646-7.488-22.744-13.681-32.983-1.667-2.757-1.238-6.296 1.04-8.574l14.485-14.485c1.956-1.956 1.957-5.263 0-7.219l-25.71-25.711c-1.957-1.957-5.264-1.957-7.219 0l-14.485 14.485c-2.278 2.276-5.813 2.706-8.567 1.044-10.29-6.206-21.39-10.811-32.99-13.685-3.124-.773-5.318-3.577-5.318-6.796v-20.466c0-2.813-2.289-5.102-5.103-5.102h-36.34c-2.813 0-5.102 2.288-5.102 5.102v20.466c0 3.219-2.194 6.022-5.318 6.796-11.633 2.882-22.741 7.486-33.019 13.685-2.758 1.663-6.296 1.23-8.572-1.049l-14.457-14.485c-1.985-1.976-5.251-1.976-7.258.02l-25.663 25.693c-.957.956-1.482 2.238-1.482 3.612s.525 2.656 1.479 3.609l14.484 14.485c2.281 2.282 2.708 5.828 1.033 8.586-6.213 10.228-10.812 21.316-13.669 32.957-.769 3.131-3.576 5.333-6.8 5.333h-20.467c-2.813 0-5.102 2.288-5.102 5.102v36.34c0 2.813 2.288 5.103 5.102 5.103h20.467c3.224 0 6.031 2.202 6.8 5.333 2.854 11.627 7.454 22.727 13.673 32.992 1.672 2.76 1.241 6.305-1.042 8.584l-14.484 14.456c-1.976 1.986-1.976 5.252.02 7.259l25.667 25.666c1.99 1.98 5.255 1.979 7.263-.015l14.47-14.471c1.351-1.35 3.144-2.051 4.953-2.051 1.245 0 2.498.331 3.621 1.011 10.239 6.192 21.337 10.795 32.983 13.681 3.124.773 5.318 3.577 5.318 6.796v20.466c0 2.813 2.288 5.103 5.102 5.103h36.34c2.813 0 5.103-2.289 5.103-5.103v-20.466c0-3.224 2.202-6.031 5.333-6.8 11.639-2.856 22.728-7.456 32.957-13.67 2.758-1.674 6.303-1.248 8.586 1.033l14.485 14.485c1.954 1.957 5.262 1.958 7.22 0l25.712-25.684c1.977-1.989 1.977-5.255-.018-7.262l-14.47-14.469c-2.279-2.278-2.708-5.817-1.041-8.574 6.192-10.239 10.795-21.337 13.681-32.983.773-3.124 3.577-5.318 6.796-5.318h20.466c2.813 0 5.103-2.289 5.103-5.103v-36.34zm-59.867 18.17c0 48.642-39.573 88.215-88.215 88.215s-88.214-39.573-88.214-88.215 39.573-88.215 88.214-88.215 88.215 39.573 88.215 88.215zm-14.344 7.002h-7.342c-3.867 0-7.002-3.135-7.002-7.002s3.135-7.002 7.002-7.002h7.342c-3.324-35.341-31.528-63.545-66.869-66.869v7.342c0 3.867-3.135 7.002-7.002 7.002s-7.002-3.135-7.002-7.002v-7.342c-35.341 3.324-63.544 31.528-66.868 66.869h7.341c3.867 0 7.002 3.135 7.002 7.002s-3.135 7.002-7.002 7.002h-7.341c3.324 35.341 31.527 63.545 66.868 66.869v-7.342c0-3.867 3.135-7.002 7.002-7.002s7.002 3.135 7.002 7.002v7.342c35.341-3.324 63.545-31.528 66.869-66.869zm-49.237-14.004h-17.632v-24.179c0-3.867-3.135-7.002-7.002-7.002s-7.002 3.135-7.002 7.002v31.181c0 3.867 3.135 7.002 7.002 7.002h24.634c3.867 0 7.002-3.135 7.002-7.002s-3.135-7.002-7.002-7.002zm-264.156 158.233c1.583 2.4 1.537 5.524-.116 7.877-1.33 1.895-3.483 2.979-5.729 2.979-.545 0-1.096-.063-1.642-.195-39.56-9.538-62-38.156-66.768-85.1h-11.131c-2.5 0-4.812-1.334-6.062-3.499-1.251-2.166-1.252-4.834-.003-7l36.539-63.327c1.25-2.166 3.56-3.502 6.061-3.504h.004c2.5 0 4.81 1.333 6.061 3.497l36.569 63.33c1.25 2.166 1.251 4.835 0 7.002-1.25 2.166-3.562 3.501-6.063 3.501h-12.086c-3.59 19.434 4.588 44.44 24.367 74.439zm-22.089-9.479c-15.808-28.854-20.673-53.69-14.461-74.009.9-2.944 3.618-4.955 6.696-4.955h5.447l-24.43-42.324-24.429 42.324h5.456c3.691 0 6.748 2.865 6.987 6.549 2.357 36.348 15.079 60.221 38.735 72.415zm331.28-462.805c-1.582-2.4-1.536-5.524.116-7.877 1.652-2.354 4.578-3.458 7.37-2.783 39.561 9.538 62 38.156 66.769 85.1h11.159c2.502 0 4.812 1.335 6.063 3.501 1.251 2.167 1.251 4.836 0 7.002l-36.568 63.328c-1.251 2.165-3.562 3.498-6.062 3.499h-.006c-2.502-.002-4.813-1.34-6.062-3.509l-36.533-63.318c-1.251-2.166-1.251-4.835 0-7.002 1.251-2.166 3.562-3.501 6.063-3.501h12.058c3.59-19.433-4.588-44.439-24.366-74.439zm22.089 9.479c15.808 28.854 20.674 53.69 14.461 74.009-.899 2.944-3.617 4.955-6.695 4.955h-5.418l24.421 42.31 24.429-42.31h-5.476c-3.691 0-6.748-2.865-6.987-6.549-2.356-36.348-15.078-60.221-38.734-72.415z"/></svg>