<svg enable-background="new 0 0 512 512" viewBox="0 0 512 512" xmlns="http://www.w3.org/2000/svg"><g id="_x32_1_Risk_Evaluation"><g><g><path fill="#33bdf1" d="m148.939 284.17h150.482c4.022 0 7.281-3.261 7.281-7.281s-3.259-7.281-7.281-7.281h-150.482c-4.022 0-7.281 3.261-7.281 7.281s3.259 7.281 7.281 7.281z"/><path fill="#33bdf1" d="m148.939 324.317h86.856c4.022 0 7.281-3.261 7.281-7.281s-3.259-7.281-7.281-7.281h-86.856c-4.022 0-7.281 3.261-7.281 7.281 0 4.019 3.259 7.281 7.281 7.281z"/><path fill="#33bdf1" d="m100.862 257.107h-45.238c-9.502 0-17.234 7.732-17.234 17.236v45.238c0 9.5 7.732 17.231 17.234 17.231h45.238c9.502 0 17.234-7.732 17.234-17.231v-45.238c-.001-9.504-7.732-17.236-17.234-17.236zm2.671 62.474c0 1.47-1.199 2.669-2.671 2.669h-45.238c-1.472 0-2.671-1.199-2.671-2.669v-45.238c0-1.474 1.199-2.674 2.671-2.674h45.238c1.472 0 2.671 1.199 2.671 2.674z"/><path fill="#33bdf1" d="m148.939 174.102h150.482c4.022 0 7.281-3.261 7.281-7.281s-3.259-7.281-7.281-7.281h-150.482c-4.022 0-7.281 3.261-7.281 7.281s3.259 7.281 7.281 7.281z"/><path fill="#33bdf1" d="m148.939 214.244h86.856c4.022 0 7.281-3.261 7.281-7.281s-3.259-7.281-7.281-7.281h-86.856c-4.022 0-7.281 3.261-7.281 7.281s3.259 7.281 7.281 7.281z"/><path fill="#33bdf1" d="m100.862 147.039h-45.238c-9.502 0-17.234 7.732-17.234 17.236v45.233c0 9.505 7.732 17.236 17.234 17.236h45.238c9.502 0 17.234-7.732 17.234-17.236v-45.233c-.001-9.504-7.732-17.236-17.234-17.236zm2.671 62.469c0 1.474-1.199 2.674-2.671 2.674h-45.238c-1.472 0-2.671-1.199-2.671-2.674v-45.233c0-1.474 1.199-2.674 2.671-2.674h45.238c1.472 0 2.671 1.199 2.671 2.674z"/><path fill="#33bdf1" d="m85.342 172.253-12.209 13.97-2.448-2.332c-2.913-2.773-7.523-2.664-10.294.251-2.776 2.911-2.662 7.518.249 10.291l7.952 7.575c1.358 1.294 3.157 2.01 5.022 2.01.111 0 .22-.005.332-.009 1.984-.09 3.844-.986 5.15-2.479l17.21-19.692c2.648-3.029 2.337-7.627-.69-10.277-3.031-2.645-7.629-2.337-10.274.692z"/><path fill="#33bdf1" d="m148.939 394.238h112.346c4.022 0 7.281-3.261 7.281-7.281s-3.259-7.281-7.281-7.281h-112.346c-4.022 0-7.281 3.261-7.281 7.281 0 4.019 3.259 7.281 7.281 7.281z"/><path fill="#33bdf1" d="m243.077 427.103c0-4.02-3.259-7.281-7.281-7.281h-86.856c-4.022 0-7.281 3.261-7.281 7.281s3.259 7.281 7.281 7.281h86.856c4.021 0 7.281-3.261 7.281-7.281z"/><path fill="#33bdf1" d="m100.862 367.179h-45.238c-9.502 0-17.234 7.732-17.234 17.231v45.238c0 9.505 7.732 17.236 17.234 17.236h45.238c9.502 0 17.234-7.732 17.234-17.236v-45.238c-.001-9.499-7.732-17.231-17.234-17.231zm2.671 62.47c0 1.474-1.199 2.674-2.671 2.674h-45.238c-1.472 0-2.671-1.199-2.671-2.674v-45.238c0-1.47 1.199-2.669 2.671-2.669h45.238c1.472 0 2.671 1.199 2.671 2.669z"/><path fill="#33bdf1" d="m85.342 392.394-12.209 13.97-2.448-2.332c-2.913-2.768-7.523-2.664-10.294.251-2.776 2.911-2.662 7.518.249 10.291l7.952 7.575c3.017 2.875 7.796 2.618 10.505-.479l17.21-19.692c2.648-3.029 2.337-7.627-.69-10.277-3.032-2.64-7.63-2.332-10.275.693z"/><path fill="#33bdf1" d="m93.388 281.814c-2.844-2.844-7.452-2.844-10.296 0l-4.849 4.849-4.849-4.849c-2.844-2.844-7.452-2.844-10.296 0s-2.844 7.452 0 10.296l4.849 4.849-4.849 4.849c-2.844 2.844-2.844 7.452 0 10.296s7.452 2.844 10.296 0l4.849-4.849 4.849 4.849c2.844 2.844 7.452 2.844 10.296 0s2.844-7.452 0-10.296l-4.849-4.849 4.849-4.849c2.845-2.844 2.845-7.452 0-10.296z"/><path fill="#33bdf1" d="m502.524 456.095-25.24-42.28c-2.06-3.456-6.528-4.574-9.986-2.522-3.451 2.062-4.579 6.532-2.52 9.983l25.247 42.289c3.856 6.437-.791 14.51-8.22 14.51h-226.202c-7.428 0-12.027-8.099-8.251-14.491l112.561-189.982c3.737-6.279 12.791-6.286 16.52-.033l68.542 114.704c2.06 3.451 6.528 4.575 9.986 2.517 3.451-2.067 4.577-6.537 2.515-9.988l-68.542-114.704c-7.757-12.991-25.065-15.536-36.258-6.103v-173.439c0-17.051-13.875-30.926-30.931-30.926h-50.098c-4.377-6.108-11.493-10.13-19.563-10.13h-14.25v-8.391c0-9.794-7.971-17.762-17.767-17.762h-81.459c-9.796 0-17.767 7.969-17.767 17.762v8.391h-14.247c-8.071 0-15.187 4.022-19.563 10.13h-50.1c-17.056 0-30.931 13.875-30.931 30.926v375.166c0 17.056 13.875 30.931 30.931 30.931 5.953 0 397.615-.013 444.875-.014 18.759 0 30.377-20.424 20.718-36.544zm-374.403-396.033c4.022 0 7.281-3.261 7.281-7.281v-15.672c0-1.763 1.436-3.2 3.205-3.2h81.459c1.768 0 3.205 1.436 3.205 3.2v15.672c0 4.02 3.259 7.281 7.281 7.281h21.531c5.259 0 9.54 4.281 9.54 9.538v42.967c0 1.199-.974 2.171-2.171 2.171h-160.231c-1.197 0-2.169-.972-2.169-2.171v-42.967c0-5.257 4.281-9.538 9.54-9.538zm-107.558 401.66v-375.166c0-9.021 7.343-16.364 16.369-16.364h45.558v42.375c0 9.225 7.506 16.734 16.731 16.734h160.231c9.227 0 16.734-7.509 16.734-16.734v-42.375h45.559c9.026 0 16.369 7.343 16.369 16.364v195.274l-103.295 174.341c-4.02 6.808-4.448 14.821-1.336 21.92h-196.552c-9.026 0-16.368-7.343-16.368-16.369z"/><path fill="#33bdf1" d="m366.721 310.361c-13.513 0-24.218 11.49-23.254 24.973l4.013 56.292c.716 10.05 9.168 17.919 19.241 17.919 10.076 0 18.528-7.869 19.244-17.919l4.013-56.292c.962-13.475-9.74-24.973-23.257-24.973zm4.719 80.231c-.175 2.46-2.249 4.39-4.719 4.39s-4.541-1.929-4.717-4.39l-4.013-56.292c-.862-12.206 18.331-12.315 17.461 0z"/><path fill="#33bdf1" d="m366.721 416.574c-12.38 0-22.453 10.073-22.453 22.455s10.073 22.455 22.453 22.455c12.382 0 22.455-10.073 22.455-22.455 0-12.381-10.073-22.455-22.455-22.455zm0 30.349c-4.352 0-7.89-3.541-7.89-7.893s3.539-7.893 7.89-7.893c4.352 0 7.893 3.541 7.893 7.893s-3.541 7.893-7.893 7.893z"/></g></g></g><g id="Layer_1"/></svg>