<svg id="Workflow" viewBox="0 0 64 64" xmlns="http://www.w3.org/2000/svg"><path fill="#33bdf1" d="m39 25h-14c-1.65 0-3 1.35-3 3v8c0 1.65 1.35 3 3 3h14c1.65 0 3-1.35 3-3v-8c0-1.65-1.35-3-3-3zm1 11c0 .55-.45 1-1 1h-14c-.55 0-1-.45-1-1v-8c0-.55.45-1 1-1h14c.55 0 1 .45 1 1z"/><path fill="#33bdf1" d="m27 31h6c.55 0 1-.45 1-1s-.45-1-1-1h-6c-.55 0-1 .45-1 1s.45 1 1 1z"/><path fill="#33bdf1" d="m37 33h-10c-.55 0-1 .45-1 1s.45 1 1 1h10c.55 0 1-.45 1-1s-.45-1-1-1z"/><path fill="#33bdf1" d="m39 46h-14c-1.65 0-3 1.35-3 3v3h-8.5c-5.24 0-9.5-4.26-9.5-9.5s4.26-9.5 9.5-9.5h3.09l-1.29 1.29c-.39.39-.39 1.02 0 1.41.2.2.45.29.71.29s.51-.1.71-.29l3-3c.39-.39.39-1.02 0-1.41l-3-3c-.39-.39-1.02-.39-1.41 0s-.39 1.02 0 1.41l1.29 1.29h-3.09c-6.34 0-11.5 5.16-11.5 11.5s5.16 11.5 11.5 11.5h8.5v3c0 1.65 1.35 3 3 3h14c1.65 0 3-1.35 3-3v-8c0-1.65-1.35-3-3-3zm1 11c0 .55-.45 1-1 1h-14c-.55 0-1-.45-1-1v-8c0-.55.45-1 1-1h14c.55 0 1 .45 1 1z"/><path fill="#33bdf1" d="m27 52h6c.55 0 1-.45 1-1s-.45-1-1-1h-6c-.55 0-1 .45-1 1s.45 1 1 1z"/><path fill="#33bdf1" d="m37 54h-10c-.55 0-1 .45-1 1s.45 1 1 1h10c.55 0 1-.45 1-1s-.45-1-1-1z"/><path fill="#33bdf1" d="m27 10h6c.55 0 1-.45 1-1s-.45-1-1-1h-6c-.55 0-1 .45-1 1s.45 1 1 1z"/><path fill="#33bdf1" d="m37 12h-10c-.55 0-1 .45-1 1s.45 1 1 1h10c.55 0 1-.45 1-1s-.45-1-1-1z"/><path fill="#33bdf1" d="m53 44c-4.96 0-9 4.04-9 9s4.04 9 9 9 9-4.04 9-9-4.04-9-9-9zm0 16c-3.86 0-7-3.14-7-7s3.14-7 7-7 7 3.14 7 7-3.14 7-7 7z"/><path fill="#33bdf1" d="m55.79 49.79-4.29 4.29-1.29-1.29c-.39-.39-1.02-.39-1.41 0s-.39 1.02 0 1.41l2 2c.2.2.45.29.71.29s.51-.1.71-.29l5-5c.39-.39.39-1.02 0-1.41s-1.02-.39-1.41 0z"/><path fill="#33bdf1" d="m2.07 13.12c-.14.52-.07 1.06.2 1.52l1 1.73c.27.46.7.79 1.21.93.52.14 1.06.07 1.52-.2l.59-.34c.31.21.63.4.97.56v.68c0 1.1.9 2 2 2h2c1.1 0 2-.9 2-2v-.68c.34-.16.66-.35.97-.56l.59.34c.95.55 2.18.22 2.73-.73l1-1.73c.27-.46.34-1 .2-1.52s-.47-.95-.93-1.21l-.59-.34c.02-.19.02-.38.02-.56s0-.37-.02-.56l.59-.34c.46-.27.79-.7.93-1.21.14-.52.07-1.05-.2-1.52l-1-1.73c-.55-.96-1.78-1.28-2.73-.73l-.59.34c-.31-.21-.63-.4-.97-.56v-.68c0-1.1-.9-2-2-2h-2c-1.1 0-2 .9-2 2v.68c-.34.16-.67.35-.97.56l-.59-.34c-.46-.27-1-.34-1.52-.2s-.95.47-1.21.93l-1 1.73c-.27.46-.34 1-.2 1.52s.47.95.93 1.21l.59.34c-.02.19-.02.38-.02.56s0 .37.02.56l-.59.34c-.46.27-.79.7-.93 1.21zm3.58-1.2c-.06-.32-.09-.62-.09-.91s.03-.59.09-.91c.08-.42-.12-.84-.48-1.05l-1.17-.67 1-1.73 1.17.67c.37.21.83.17 1.15-.11.47-.4 1-.7 1.58-.91.4-.14.67-.52.67-.94v-1.35h2v1.35c0 .42.27.8.67.94.58.21 1.11.51 1.58.91.32.27.78.32 1.15.11l1.17-.67 1 1.73-1.17.67c-.37.21-.56.63-.48 1.05.06.32.09.62.09.91s-.03.59-.09.91c-.08.42.12.84.48 1.05l1.17.67-1 1.73-1.17-.67c-.37-.21-.83-.17-1.15.11-.47.4-1 .7-1.58.91-.4.14-.67.52-.67.94v1.35h-2v-1.35c0-.42-.27-.8-.67-.94-.58-.21-1.11-.51-1.58-.91-.19-.16-.42-.24-.65-.24-.17 0-.34.04-.5.13l-1.17.67-1-1.73 1.17-.67c.37-.21.56-.63.48-1.05z"/><path fill="#33bdf1" d="m10.56 14c1.65 0 3-1.35 3-3s-1.35-3-3-3-3 1.35-3 3 1.35 3 3 3zm0-4c.55 0 1 .45 1 1s-.45 1-1 1-1-.45-1-1 .45-1 1-1z"/><path fill="#33bdf1" d="m50.5 12c5.24 0 9.5 4.26 9.5 9.5s-4.26 9.5-9.5 9.5h-3.09l1.29-1.29c.39-.39.39-1.02 0-1.41s-1.02-.39-1.41 0l-3 3c-.39.39-.39 1.02 0 1.41l3 3c.2.2.45.29.71.29s.51-.1.71-.29c.39-.39.39-1.02 0-1.41l-1.29-1.29h3.09c6.34 0 11.5-5.16 11.5-11.5s-5.16-11.5-11.5-11.5h-8.5v-3c0-1.65-1.35-3-3-3h-14c-1.65 0-3 1.35-3 3v8c0 1.65 1.35 3 3 3h14c1.65 0 3-1.35 3-3v-3h8.5zm-10.5 3c0 .55-.45 1-1 1h-14c-.55 0-1-.45-1-1v-8c0-.55.45-1 1-1h14c.55 0 1 .45 1 1z"/></svg>