<svg id="Layer_1" enable-background="new 0 0 512 512" viewBox="0 0 512 512" xmlns="http://www.w3.org/2000/svg"><path fill="#33bdf1" d="m234.33 348.87-23.74-41.11c-1.59-2.76-5.06-3.79-7.9-2.36l-21.77 10.99c-3.7-3.03-7.66-5.76-11.8-8.16-4.15-2.39-8.49-4.45-12.96-6.14l-1.36-24.35c-.18-3.18-2.81-5.67-5.99-5.67h-47.48c-3.18 0-5.81 2.49-5.99 5.67l-1.36 24.35c-9.04 3.4-17.34 8.18-24.78 14.29l-21.76-10.98c-2.84-1.44-6.31-.4-7.9 2.36l-23.74 41.11c-1.59 2.76-.75 6.28 1.91 8.02l20.39 13.35c-1.57 9.49-1.56 19.08.02 28.6l-20.41 13.36c-2.66 1.74-3.5 5.26-1.91 8.02l23.74 41.12c1.59 2.76 5.06 3.79 7.9 2.36l21.76-10.99c3.7 3.03 7.66 5.76 11.8 8.15 4.15 2.39 8.49 4.45 12.96 6.14l1.36 24.34c.18 3.18 2.81 5.67 5.99 5.67h47.48c3.18 0 5.81-2.49 5.99-5.67l1.36-24.35c9.04-3.4 17.34-8.18 24.78-14.29l21.75 10.99c2.84 1.44 6.31.4 7.9-2.36l23.74-41.11c1.59-2.76.75-6.28-1.91-8.02l-20.39-13.35c1.57-9.49 1.56-19.08-.02-28.6l20.41-13.36c2.68-1.74 3.52-5.26 1.93-8.02zm-32.25 13.53c-2.07 1.36-3.1 3.85-2.58 6.27 2.25 10.55 2.26 21.23.02 31.75-.52 2.42.51 4.92 2.58 6.27l19 12.43-18.06 31.29-20.27-10.24c-2.21-1.12-4.88-.76-6.72.9-7.98 7.19-17.23 12.53-27.5 15.86-2.36.76-4 2.9-4.14 5.37l-1.28 22.7h-36.13l-1.27-22.67c-.14-2.47-1.78-4.6-4.13-5.37-5.06-1.64-9.96-3.83-14.59-6.5-4.62-2.67-8.97-5.82-12.92-9.38-1.84-1.66-4.51-2.01-6.72-.9l-20.27 10.24-18.06-31.29 19.02-12.44c2.07-1.36 3.1-3.85 2.58-6.27-2.25-10.55-2.26-21.23-.02-31.75.52-2.42-.51-4.92-2.58-6.27l-19-12.43 18.06-31.29 20.27 10.24c2.21 1.12 4.88.76 6.72-.9 7.97-7.19 17.23-12.53 27.5-15.86 2.36-.76 4-2.9 4.14-5.37l1.27-22.69h36.13l1.27 22.68c.14 2.47 1.78 4.61 4.13 5.37 5.06 1.64 9.96 3.83 14.59 6.5 4.62 2.67 8.97 5.83 12.92 9.38 1.84 1.65 4.51 2.01 6.72.89l20.27-10.24 18.06 31.29zm-104.69-25.79c-12.8 7.39-21.96 19.33-25.79 33.61s-1.86 29.2 5.53 42c10.24 17.74 28.88 27.66 48.03 27.66 9.38 0 18.89-2.39 27.58-7.4 26.43-15.26 35.52-49.18 20.26-75.61s-49.18-35.52-75.61-20.26zm49.35 85.47c-20.7 11.95-47.26 4.83-59.22-15.87-5.79-10.03-7.33-21.71-4.33-32.89s10.17-20.53 20.2-26.32c6.81-3.93 14.25-5.8 21.6-5.8 14.99 0 29.59 7.78 37.61 21.67 11.96 20.7 4.84 47.26-15.86 59.21zm98.31-302.51-57.1-40.96c-1.83-1.31-4.24-1.49-6.24-.46s-3.26 3.09-3.26 5.34v10.78c-33.31.48-63.95 13.14-86.84 36.01-23.32 23.31-36.17 54.47-35.24 85.5.08 2.67 1.91 4.96 4.5 5.63.5.13 1 .19 1.5.19 2.08 0 4.06-1.09 5.16-2.94 25.37-42.83 61.69-63.85 110.92-64.13v10.88c0 2.25 1.26 4.31 3.26 5.34s4.41.85 6.24-.46l57.1-40.96c1.57-1.13 2.5-2.94 2.5-4.88s-.93-3.76-2.5-4.88zm-54.6 34.14v-5.13c0-3.25-2.59-5.91-5.84-6-27.32-.72-51.69 4.45-72.41 15.4-15.78 8.33-29.79 20.18-41.84 35.35 4.17-20.04 14.59-39.45 29.73-54.58 21.07-21.05 49.47-32.52 80.34-32.52 1.27 0 2.55.02 3.83.06 1.62.05 3.2-.56 4.36-1.69s1.82-2.68 1.82-4.31v-5.14l40.81 29.27zm264.92-28.87h-7.78l-13.43-16.38c11.6-8.04 19.22-21.44 19.22-36.59v-12.38c0-24.53-19.96-44.49-44.5-44.49-24.53 0-44.49 19.96-44.49 44.49v12.38c0 15.15 7.62 28.55 19.22 36.59l-13.43 16.38h-7.78c-22.96 0-41.63 18.68-41.63 41.63v67.45c0 3.31 2.69 6 6 6h164.23c3.31 0 6-2.69 6-6v-67.45c0-22.95-18.68-41.63-41.63-41.63zm-78.99-52.97v-12.38c0-17.92 14.58-32.49 32.49-32.49 17.92 0 32.49 14.58 32.49 32.49v12.38c0 17.92-14.58 32.49-32.5 32.49-17.9.01-32.48-14.57-32.48-32.49zm32.5 44.5c5 0 9.8-.84 14.29-2.37l13.05 15.92-27.35 21.55-27.35-21.55 13.07-15.92c4.49 1.52 9.29 2.37 14.29 2.37zm76.12 111.55h-31.62v-38.93c0-3.31-2.69-6-6-6s-6 2.69-6 6v38.93h-65.01v-38.93c0-3.31-2.69-6-6-6s-6 2.69-6 6v38.93h-31.62v-61.45c0-16.34 13.29-29.63 29.63-29.63h8.54l34.23 26.97c2.18 1.72 5.25 1.72 7.43 0l34.23-26.97h8.54c16.34 0 29.63 13.29 29.63 29.63v61.45zm-33.87 62.67c-2.59-.67-5.3.45-6.66 2.75-25.37 42.83-61.69 63.85-110.92 64.13v-10.87c0-2.25-1.26-4.31-3.26-5.34s-4.41-.85-6.24.46l-57.1 40.96c-1.57 1.13-2.5 2.94-2.5 4.88s.93 3.75 2.5 4.88l57.1 40.96c1.04.75 2.27 1.12 3.5 1.12.94 0 1.88-.22 2.74-.66 2-1.03 3.26-3.09 3.26-5.34v-10.78c33.31-.48 63.95-13.14 86.84-36.01 23.32-23.31 36.17-54.47 35.24-85.5-.08-2.68-1.91-4.97-4.5-5.64zm-39.22 82.65c-21.93 21.92-51.81 33.45-84.17 32.46-1.61-.06-3.2.56-4.36 1.69-1.17 1.13-1.82 2.68-1.82 4.31v5.14l-40.81-29.27 40.81-29.27v5.13c0 3.25 2.59 5.91 5.84 6 27.32.73 51.69-4.45 72.41-15.4 15.78-8.33 29.78-20.18 41.84-35.35-4.19 20.01-14.6 39.43-29.74 54.56z"/></svg>