<?xml version="1.0" encoding="UTF-8" standalone="no"?>
<!-- Created with Inkscape (http://www.inkscape.org/) -->

<svg
   version="1.1"
   id="svg3402"
   xml:space="preserve"
   width="682.66669"
   height="682.66669"
   viewBox="0 0 682.66669 682.66669"
   xmlns="http://www.w3.org/2000/svg"
   xmlns:svg="http://www.w3.org/2000/svg"><defs
     id="defs3406"><clipPath
       clipPathUnits="userSpaceOnUse"
       id="clipPath3420"><path
         d="M 0,512 H 512 V 0 H 0 Z"
         id="path3418" /></clipPath></defs><g
     id="g3408"
     transform="matrix(1.3333333,0,0,-1.3333333,0,682.66667)"><g
       id="g3410"
       transform="translate(467.7793,404.9912)"><path
         d="M 0,0 V -128.867"
         style="fill:none;stroke:#33bdf1;stroke-width:15;stroke-linecap:butt;stroke-linejoin:miter;stroke-miterlimit:10;stroke-dasharray:15, 15, 15, 15, 350;stroke-dashoffset:0;stroke-opacity:1"
         id="path3412" /></g><g
       id="g3414"><g
         id="g3416"
         clip-path="url(#clipPath3420)"><g
           id="g3422"
           transform="translate(434.9404,126.8398)"><path
             d="M 0,0 H 44.5 C 58.34,0 69.56,11.22 69.56,25.061 V 73.55 H -7.5 -350.381 -427.44 V 25.061 C -427.44,11.22 -416.221,0 -402.381,0 H -233.351 -124.53 -15"
             style="fill:none;stroke:#33bdf1;stroke-width:15;stroke-linecap:butt;stroke-linejoin:miter;stroke-miterlimit:10;stroke-dasharray:none;stroke-opacity:1"
             id="path3424" /></g><g
           id="g3426"
           transform="translate(77.0596,490.7305)"><path
             d="m 0,0 h -44.5 c -13.84,0 -25.06,-11.221 -25.06,-25.061 v -265.28 H 7.5 350.381 427.44 v 265.28 C 427.44,-11.221 416.221,0 402.381,0 H 15"
             style="fill:none;stroke:#33bdf1;stroke-width:15;stroke-linecap:butt;stroke-linejoin:miter;stroke-miterlimit:10;stroke-dasharray:none;stroke-opacity:1"
             id="path3428" /></g><g
           id="g3430"
           transform="translate(322.8672,64.5742)"><path
             d="m 0,0 h -133.734 l 12.46,62.267 H -12.46 Z"
             style="fill:none;stroke:#33bdf1;stroke-width:15;stroke-linecap:butt;stroke-linejoin:miter;stroke-miterlimit:10;stroke-dasharray:none;stroke-opacity:1"
             id="path3432" /></g><path
           d="M 372.897,21.27 H 139.102 v 43.305 h 233.795 z"
           style="fill:none;stroke:#33bdf1;stroke-width:15;stroke-linecap:butt;stroke-linejoin:miter;stroke-miterlimit:10;stroke-dasharray:none;stroke-opacity:1"
           id="path3434" /><path
           d="m 263.5,156.113 h -15 v 15 h 15 z"
           style="fill:#33bdf1;fill-opacity:1;fill-rule:nonzero;stroke:none"
           id="path3436" /><g
           id="g3438"
           transform="translate(133.7227,283.8535)"><path
             d="M 0,0 C 0,67.531 54.745,122.277 122.277,122.277 189.81,122.277 244.555,67.531 244.555,0"
             style="fill:none;stroke:#33bdf1;stroke-width:15;stroke-linecap:butt;stroke-linejoin:miter;stroke-miterlimit:10;stroke-dasharray:none;stroke-opacity:1"
             id="path3440" /></g><g
           id="g3442"
           transform="translate(396.7373,264.6523)"><path
             d="m 0,0 c 0,-10.194 -8.265,-18.459 -18.46,-18.459 -10.194,0 -18.459,8.265 -18.459,18.459 0,10.195 8.265,18.459 18.459,18.459 C -8.265,18.459 0,10.195 0,0 Z"
             style="fill:none;stroke:#33bdf1;stroke-width:15;stroke-linecap:butt;stroke-linejoin:miter;stroke-miterlimit:10;stroke-dasharray:none;stroke-opacity:1"
             id="path3444" /></g><g
           id="g3446"
           transform="translate(152.1816,264.6523)"><path
             d="m 0,0 c 0,-10.194 -8.265,-18.459 -18.459,-18.459 -10.195,0 -18.46,8.265 -18.46,18.459 0,10.195 8.265,18.459 18.46,18.459 C -8.265,18.459 0,10.195 0,0 Z"
             style="fill:none;stroke:#33bdf1;stroke-width:15;stroke-linecap:butt;stroke-linejoin:miter;stroke-miterlimit:10;stroke-dasharray:none;stroke-opacity:1"
             id="path3448" /></g><g
           id="g3450"
           transform="translate(256,398.0869)"><path
             d="m 0,0 -54.187,-72.81 26.378,-71.123 h 55.618 l 26.378,71.123 z"
             style="fill:none;stroke:#33bdf1;stroke-width:15;stroke-linecap:butt;stroke-linejoin:miter;stroke-miterlimit:10;stroke-dasharray:none;stroke-opacity:1"
             id="path3452" /></g><g
           id="g3454"
           transform="translate(256,398.0869)"><path
             d="M 0,0 V -93.301"
             style="fill:none;stroke:#33bdf1;stroke-width:15;stroke-linecap:butt;stroke-linejoin:miter;stroke-miterlimit:10;stroke-dasharray:none;stroke-opacity:1"
             id="path3456" /></g><g
           id="g3458"
           transform="translate(283.8086,254.1543)"><path
             d="M 0,0 14.384,-53.769 H -70.001 L -55.617,0 Z"
             style="fill:none;stroke:#33bdf1;stroke-width:15;stroke-linecap:butt;stroke-linejoin:miter;stroke-miterlimit:10;stroke-dasharray:none;stroke-opacity:1"
             id="path3460" /></g><g
           id="g3462"
           transform="translate(118.8301,406.1309)"><path
             d="M 0,0 H 274.34"
             style="fill:none;stroke:#33bdf1;stroke-width:15;stroke-linecap:butt;stroke-linejoin:miter;stroke-miterlimit:10;stroke-dasharray:none;stroke-opacity:1"
             id="path3464" /></g><path
           d="m 424.588,389.144 h -33.975 v 33.975 h 33.975 z"
           style="fill:none;stroke:#33bdf1;stroke-width:15;stroke-linecap:butt;stroke-linejoin:miter;stroke-miterlimit:10;stroke-dasharray:none;stroke-opacity:1"
           id="path3466" /><path
           d="M 121.387,389.144 H 87.412 v 33.975 h 33.975 z"
           style="fill:none;stroke:#33bdf1;stroke-width:15;stroke-linecap:butt;stroke-linejoin:miter;stroke-miterlimit:10;stroke-dasharray:none;stroke-opacity:1"
           id="path3468" /></g></g></g></svg>
