<?xml version="1.0" encoding="UTF-8" standalone="no"?>
<!-- Created with Inkscape (http://www.inkscape.org/) -->

<svg
   version="1.1"
   id="svg2745"
   xml:space="preserve"
   width="682.66669"
   height="682.66669"
   viewBox="0 0 682.66669 682.66669"
   xmlns="http://www.w3.org/2000/svg"
   xmlns:svg="http://www.w3.org/2000/svg"><defs
     id="defs2749"><clipPath
       clipPathUnits="userSpaceOnUse"
       id="clipPath2759"><path
         d="M 0,512 H 512 V 0 H 0 Z"
         id="path2757" /></clipPath></defs><g
     id="g2751"
     transform="matrix(1.3333333,0,0,-1.3333333,0,682.66667)"><g
       id="g2753"><g
         id="g2755"
         clip-path="url(#clipPath2759)"><g
           id="g2761"
           transform="translate(256,471.165)"><path
             d="M 0,0 C 75.011,0 145.533,-29.211 198.573,-82.253"
             style="fill:#33bdf1;stroke:#33bdf1;stroke-width:15;stroke-linecap:round;stroke-linejoin:round;stroke-miterlimit:10;stroke-dasharray:none;stroke-opacity:1"
             id="path2763" /></g><g
           id="g2765"
           transform="translate(148.8101,414.5898)"><path
             d="m 0,0 c 32.46,15.55 68.81,24.25 107.19,24.25 66.77,0 127.4,-26.33 172.05,-69.2"
             style="fill:#33bdf1;stroke:#33bdf1;stroke-width:15;stroke-linecap:round;stroke-linejoin:round;stroke-miterlimit:10;stroke-dasharray:none;stroke-opacity:1"
             id="path2767" /></g><g
           id="g2769"
           transform="translate(118.3999,397.29)"><path
             d="m 0,0 c -13.73,-9.13 -26.5,-19.61 -38.12,-31.23 l 0.02,-0.02 c -44.97,-44.97 -72.8,-107.08 -72.8,-175.7 h 62.63 c 0,51.33 20.8,97.79 54.44,131.429 16.82,16.821 36.85,30.431 59.08,39.831 22.24,9.41 46.69,14.61 72.35,14.61 45.89,0 87.88,-16.62 120.3,-44.18"
             style="fill:none;stroke:#33bdf1;stroke-width:15;stroke-linecap:round;stroke-linejoin:round;stroke-miterlimit:10;stroke-dasharray:none;stroke-opacity:1"
             id="path2771" /></g><g
           id="g2773"
           transform="translate(435.2798,362.3701)"><path
             d="M 0,0 C 42.87,-44.65 69.22,-105.26 69.22,-172.03 H 6.59 c 0,25.66 -5.2,50.11 -14.61,72.35 -7.41,17.51 -17.43,33.659 -29.57,47.95"
             style="fill:none;stroke:#33bdf1;stroke-width:15;stroke-linecap:round;stroke-linejoin:round;stroke-miterlimit:10;stroke-dasharray:none;stroke-opacity:1"
             id="path2775" /></g><g
           id="g2777"
           transform="translate(80.2842,366.0557)"><path
             d="M 0,0 44.286,-44.286"
             style="fill:none;stroke:#33bdf1;stroke-width:15;stroke-linecap:round;stroke-linejoin:round;stroke-miterlimit:10;stroke-dasharray:none;stroke-opacity:1"
             id="path2779" /></g><g
           id="g2781"
           transform="translate(256,376.209)"><path
             d="M 0,0 V 62.631"
             style="fill:none;stroke:#33bdf1;stroke-width:15;stroke-linecap:round;stroke-linejoin:round;stroke-miterlimit:10;stroke-dasharray:none;stroke-opacity:1"
             id="path2783" /></g><g
           id="g2785"
           transform="translate(296.3198,273.9102)"><path
             d="M 0,0 158.25,115 72.27,-3.311"
             style="fill:none;stroke:#33bdf1;stroke-width:15;stroke-linecap:round;stroke-linejoin:round;stroke-miterlimit:10;stroke-dasharray:none;stroke-opacity:1"
             id="path2787" /></g><g
           id="g2789"
           transform="translate(348.02,242.29)"><path
             d="M 0,0 -38.5,-52.98"
             style="fill:none;stroke:#33bdf1;stroke-width:15;stroke-linecap:round;stroke-linejoin:round;stroke-miterlimit:10;stroke-dasharray:none;stroke-opacity:1"
             id="path2791" /></g><g
           id="g2793"
           transform="translate(171.1465,149.9326)"><path
             d="M 0,0 V -44.447 H 169.707 V 0 c 0,22.316 -18.09,40.407 -40.406,40.407 H 40.406 C 18.09,40.407 0,22.316 0,0 Z"
             style="fill:none;stroke:#33bdf1;stroke-width:15;stroke-linecap:round;stroke-linejoin:round;stroke-miterlimit:10;stroke-dasharray:none;stroke-opacity:1"
             id="path2795" /></g><g
           id="g2797"
           transform="translate(298.4268,125.6895)"><path
             d="M 0,0 V -20.204"
             style="fill:none;stroke:#33bdf1;stroke-width:15;stroke-linecap:round;stroke-linejoin:round;stroke-miterlimit:10;stroke-dasharray:none;stroke-opacity:1"
             id="path2799" /></g><g
           id="g2801"
           transform="translate(213.5732,125.6895)"><path
             d="M 0,0 V -20.204"
             style="fill:none;stroke:#33bdf1;stroke-width:15;stroke-linecap:round;stroke-linejoin:round;stroke-miterlimit:10;stroke-dasharray:none;stroke-opacity:1"
             id="path2803" /></g><g
           id="g2805"
           transform="translate(306.5083,240.8477)"><path
             d="m 0,0 c 0,-27.895 -22.613,-50.508 -50.508,-50.508 -27.895,0 -50.509,22.613 -50.509,50.508 0,27.895 22.614,50.508 50.509,50.508 C -22.613,50.508 0,27.895 0,0 Z"
             style="fill:none;stroke:#33bdf1;stroke-width:15;stroke-linecap:round;stroke-linejoin:round;stroke-miterlimit:10;stroke-dasharray:none;stroke-opacity:1"
             id="path2807" /></g><g
           id="g2809"
           transform="translate(229.4199,73.1602)"><path
             d="M 0,0 H 111.43 V -32.32 H -58.27 V 0 H -35"
             style="fill:none;stroke:#33bdf1;stroke-width:15;stroke-linecap:round;stroke-linejoin:round;stroke-miterlimit:10;stroke-dasharray:none;stroke-opacity:1"
             id="path2811" /></g><g
           id="g2813"
           transform="translate(441.8696,158.9102)"><path
             d="M 0,0 H 62.63"
             style="fill:none;stroke:#33bdf1;stroke-width:15;stroke-linecap:round;stroke-linejoin:round;stroke-miterlimit:10;stroke-dasharray:none;stroke-opacity:1"
             id="path2815" /></g><g
           id="g2817"
           transform="translate(484.2969,126.585)"><path
             d="M 0,0 H -22.224"
             style="fill:none;stroke:#33bdf1;stroke-width:15;stroke-linecap:round;stroke-linejoin:round;stroke-miterlimit:10;stroke-dasharray:none;stroke-opacity:1"
             id="path2819" /></g><g
           id="g2821"
           transform="translate(70.1304,158.9102)"><path
             d="M 0,0 H -62.63"
             style="fill:none;stroke:#33bdf1;stroke-width:15;stroke-linecap:round;stroke-linejoin:round;stroke-miterlimit:10;stroke-dasharray:none;stroke-opacity:1"
             id="path2823" /></g><g
           id="g2825"
           transform="translate(27.7031,126.585)"><path
             d="M 0,0 H 22.224"
             style="fill:none;stroke:#33bdf1;stroke-width:15;stroke-linecap:round;stroke-linejoin:round;stroke-miterlimit:10;stroke-dasharray:none;stroke-opacity:1"
             id="path2827" /></g></g></g></g></svg>
