<svg id="Layer_1" viewBox="0 0 512 512" xmlns="http://www.w3.org/2000/svg" data-name="Layer 1"><path fill="#33bdf1" d="m256 146.696c-29.15 0-52.866 23.703-52.866 52.839s23.715 52.866 52.866 52.866 52.866-23.716 52.866-52.866-23.716-52.839-52.866-52.839zm0 93.686c-22.523 0-40.847-18.323-40.847-40.847s18.324-40.819 40.847-40.819 40.848 18.312 40.848 40.819-18.324 40.847-40.848 40.847zm-58.439-178.653c-.761 2.342-.016 4.911 1.88 6.482l26.75 22.178-8.611 33.703c-.61 2.386.298 4.901 2.29 6.35 1.992 1.446 4.666 1.533 6.747.215l29.384-18.602 29.384 18.602c.984.623 2.1.933 3.214.933 1.243 0 2.482-.385 3.533-1.147 1.992-1.448 2.9-3.964 2.29-6.35l-8.611-33.703 26.75-22.178c1.896-1.571 2.641-4.141 1.88-6.482-.761-2.343-2.874-3.983-5.331-4.141l-34.697-2.223-12.826-32.321c-.909-2.289-3.123-3.793-5.586-3.793s-4.677 1.504-5.586 3.793l-12.826 32.321-34.696 2.223c-2.458.157-4.57 1.798-5.331 4.141zm44.594 5.388c2.319-.148 4.344-1.62 5.201-3.78l8.645-21.783 8.644 21.783c.857 2.16 2.883 3.632 5.202 3.78l23.396 1.499-18.031 14.949c-1.789 1.482-2.562 3.863-1.987 6.113l5.808 22.732-19.817-12.545c-.981-.622-2.098-.933-3.214-.933s-2.233.311-3.214.933l-19.816 12.545 5.808-22.732c.575-2.25-.198-4.631-1.987-6.113l-18.031-14.949 23.396-1.499zm69.416 85.361-7.54-13.067c-1.659-2.874-.673-6.549 2.202-8.208 2.874-1.658 6.549-.674 8.208 2.202l7.54 13.067c1.659 2.874.673 6.549-2.202 8.208-.946.546-1.979.806-2.998.806-2.078 0-4.098-1.078-5.211-3.008zm16.413-43.027c1.658-2.873 5.334-3.861 8.208-2.201l13.068 7.541c2.875 1.659 3.86 5.334 2.202 8.209-1.113 1.928-3.133 3.007-5.21 3.007-1.02 0-2.052-.26-2.998-.806l-13.068-7.541c-2.875-1.659-3.86-5.334-2.202-8.209zm-23.953-89.376 7.54-13.066c1.659-2.875 5.334-3.859 8.208-2.202 2.875 1.659 3.86 5.334 2.202 8.209l-7.54 13.066c-1.113 1.929-3.133 3.008-5.21 3.008-1.019 0-2.052-.26-2.998-.806-2.875-1.659-3.86-5.334-2.202-8.209zm37.917 53.659h15.108c3.319 0 6.009 2.69 6.009 6.01s-2.69 6.01-6.009 6.01h-15.108c-3.319 0-6.009-2.69-6.009-6.01s2.69-6.01 6.009-6.01zm-13.959-23.69c-1.664-2.872-.684-6.548 2.188-8.212l13.068-7.569c2.872-1.661 6.549-.684 8.212 2.188s.684 6.548-2.188 8.212l-13.068 7.569c-.948.549-1.984.811-3.007.811-2.074 0-4.091-1.075-5.206-2.999zm-143.97 59.407c1.659 2.875.673 6.55-2.201 8.209l-13.067 7.541c-.946.546-1.979.806-2.999.806-2.077 0-4.097-1.078-5.21-3.007-1.659-2.875-.673-6.55 2.201-8.209l13.067-7.541c2.875-1.658 6.549-.674 8.209 2.201zm6.002 37.021 7.541-13.067c1.658-2.873 5.333-3.861 8.208-2.201 2.875 1.659 3.86 5.334 2.202 8.209l-7.541 13.067c-1.113 1.928-3.133 3.007-5.211 3.007-1.019 0-2.051-.26-2.998-.806-2.875-1.659-3.86-5.334-2.202-8.209zm-29.475-110.021c1.663-2.871 5.34-3.851 8.212-2.188l13.067 7.569c2.872 1.664 3.852 5.341 2.188 8.212-1.114 1.924-3.132 2.999-5.206 2.999-1.022 0-2.058-.262-3.006-.811l-13.067-7.569c-2.872-1.664-3.852-5.341-2.188-8.212zm29.475-23.436c-1.659-2.875-.673-6.55 2.202-8.209 2.874-1.658 6.55-.674 8.208 2.201l7.541 13.067c1.659 2.875.673 6.55-2.202 8.209-.946.546-1.979.806-2.998.806-2.077 0-4.098-1.078-5.21-3.007zm-41.056 66.729c0-3.319 2.69-6.01 6.009-6.01h15.081c3.319 0 6.009 2.69 6.009 6.01s-2.69 6.01-6.009 6.01h-15.081c-3.319 0-6.009-2.69-6.009-6.01zm257.613 50.088c0-3.319 2.69-6.01 6.009-6.01h6.066v-6.095c0-3.319 2.69-6.01 6.009-6.01s6.009 2.69 6.009 6.01v6.095h6.095c3.319 0 6.009 2.69 6.009 6.01s-2.69 6.01-6.009 6.01h-6.095v6.065c0 3.319-2.69 6.01-6.009 6.01s-6.009-2.69-6.009-6.01v-6.065h-6.066c-3.319 0-6.009-2.69-6.009-6.01zm-402.578-88.528c0-3.319 2.69-6.01 6.009-6.01h6.066v-6.065c0-3.319 2.69-6.01 6.009-6.01s6.009 2.69 6.009 6.01v6.065h6.095c3.319 0 6.009 2.69 6.009 6.01s-2.69 6.01-6.009 6.01h-6.095v6.095c0 3.319-2.69 6.01-6.009 6.01s-6.009-2.69-6.009-6.01v-6.095h-6.066c-3.319 0-6.009-2.69-6.009-6.01zm467.802 0c0-3.319 2.69-6.01 6.009-6.01h6.095v-6.065c0-3.319 2.69-6.01 6.009-6.01s6.009 2.69 6.009 6.01v6.065h6.066c3.319 0 6.009 2.69 6.009 6.01s-2.69 6.01-6.009 6.01h-6.066v6.095c0 3.319-2.69 6.01-6.009 6.01s-6.009-2.69-6.009-6.01v-6.095h-6.095c-3.319 0-6.009-2.69-6.009-6.01zm36.198 177.023c0 3.319-2.69 6.01-6.009 6.01h-6.066v6.095c0 3.319-2.69 6.01-6.009 6.01s-6.009-2.69-6.009-6.01v-6.095h-6.095c-3.319 0-6.009-2.69-6.009-6.01s2.69-6.01 6.009-6.01h6.095v-6.065c0-3.319 2.69-6.01 6.009-6.01s6.009 2.69 6.009 6.01v6.065h6.066c3.319 0 6.009 2.69 6.009 6.01zm-504 0c0-3.319 2.69-6.01 6.009-6.01h6.066v-6.065c0-3.319 2.69-6.01 6.009-6.01s6.009 2.69 6.009 6.01v6.065h6.095c3.319 0 6.009 2.69 6.009 6.01s-2.69 6.01-6.009 6.01h-6.095v6.095c0 3.319-2.69 6.01-6.009 6.01s-6.009-2.69-6.009-6.01v-6.095h-6.066c-3.319 0-6.009-2.69-6.009-6.01zm65.226-88.497c0-3.319 2.69-6.01 6.009-6.01h6.095v-6.095c0-3.319 2.69-6.01 6.009-6.01s6.009 2.69 6.009 6.01v6.095h6.094c3.319 0 6.009 2.69 6.009 6.01s-2.69 6.01-6.009 6.01h-6.094v6.065c0 3.319-2.69 6.01-6.009 6.01s-6.009-2.69-6.009-6.01v-6.065h-6.095c-3.319 0-6.009-2.69-6.009-6.01zm379.906 271.169c10.463-9.685 17.029-23.522 17.029-38.87 0-29.197-23.767-52.951-52.979-52.951s-52.951 23.754-52.951 52.951c0 15.346 6.561 29.182 17.017 38.867-17.941 4.555-32.474 12.361-42.613 22.604-10.242-10.32-24.936-18.088-42.683-22.601 10.463-9.685 17.029-23.522 17.029-38.869 0-.143-.01-.283-.011-.425h26.118c3.306 0 5.992-2.671 6.009-5.978l.255-47.484c0-4.733 2.056-8.694 5.929-11.444 35.268-24.864 59.17-63.439 65.579-105.837 2.263-15.028-7.618-27.315-24.028-29.879-15.273-2.392-33.023 4.448-35.836 21.813-7.752 47.764-48.544 82.431-96.995 82.431s-89.243-34.667-96.994-82.429c-2.815-17.378-20.573-24.208-35.85-21.813-16.399 2.571-26.263 14.859-23.987 29.881 6.41 42.408 30.302 80.982 65.546 105.831 3.881 2.74 5.933 6.699 5.933 11.446v47.452c0 3.319 2.69 6.01 6.009 6.01h26.373c-.001.142-.011.282-.011.425 0 15.348 6.566 29.186 17.029 38.87-17.735 4.514-32.421 12.283-42.662 22.607-10.136-10.243-24.671-18.05-42.619-22.607 10.463-9.685 17.029-23.522 17.029-38.87 0-29.197-23.767-52.951-52.979-52.951s-52.979 23.754-52.979 52.951c0 15.348 6.566 29.186 17.029 38.87-35.67 9.057-57.847 30.966-58.865 59.248-.003.071-.004.144-.004.216v41.527c0 3.319 2.69 6.01 6.009 6.01h491.981c3.319 0 6.009-2.69 6.009-6.01v-41.527c0-.072 0-.144-.004-.216-1.017-28.282-23.195-50.191-58.865-59.248zm-76.883-38.87c0-22.57 18.362-40.932 40.933-40.932s40.961 18.361 40.961 40.932-18.375 40.961-40.961 40.961-40.933-18.375-40.933-40.961zm-189.581-12.444v-41.442c0-8.694-3.913-16.246-11.022-21.267-32.584-22.973-54.669-58.622-60.592-97.81-1.925-12.706 10.202-15.618 13.965-16.208 8.179-1.282 20.453 1.55 22.124 11.863 4.148 25.561 17.308 48.978 37.056 65.938 19.963 17.145 45.463 26.587 71.801 26.587s51.853-9.442 71.812-26.588c19.74-16.956 32.897-40.373 37.046-65.938 1.669-10.306 13.94-13.137 22.116-11.863 2.683.42 15.963 3.171 14 16.212-5.921 39.171-28.016 74.82-60.636 97.818-7.098 5.039-11.006 12.588-11.006 21.224l-.223 41.475h-21.622c-5.617-23.21-26.564-40.507-51.488-40.507s-45.871 17.296-51.488 40.507h-21.845zm32.372 12.444c0-1.956.147-3.878.414-5.762.003-.026.007-.051.01-.077 2.845-19.813 19.936-35.093 40.537-35.093s37.692 15.279 40.537 35.093c.003.026.007.051.01.077.267 1.884.414 3.806.414 5.762 0 22.586-18.375 40.961-40.961 40.961s-40.961-18.375-40.961-40.961zm19.097 48.239c6.671 3.036 14.07 4.741 21.864 4.741s15.192-1.705 21.862-4.74c21.012 3.37 38.562 11.489 49.133 22.643-5.274 8.098-8.262 17.269-8.629 27.229-.003.074-.004.147-.004.222v35.518h-124.725v-35.518c0-.072 0-.144-.004-.216-.358-9.962-3.342-19.135-8.614-27.235 10.617-11.291 27.813-19.241 49.117-22.644zm-176.279-48.239c0-22.57 18.375-40.932 40.961-40.932s40.961 18.361 40.961 40.932-18.375 40.961-40.961 40.961-40.961-18.375-40.961-40.961zm-41.839 98.445c1.151-30.008 31.882-45.527 60.921-50.213 6.675 3.04 14.079 4.749 21.879 4.749s15.205-1.708 21.88-4.749c29.039 4.686 59.77 20.205 60.921 50.213v35.406h-165.601v-35.406zm479.963 35.406h-165.601v-35.403c1.178-30.018 31.905-45.536 60.929-50.218 6.672 3.041 14.074 4.75 21.871 4.75s15.205-1.708 21.88-4.749c29.039 4.686 59.77 20.205 60.921 50.213v35.406z"/></svg>