<svg id="Layer_1" enable-background="new 0 0 512 512" viewBox="0 0 512 512" xmlns="http://www.w3.org/2000/svg"><path fill="#33bdf1" d="m276.72 179.15c-9.34 0-16.94 7.6-16.94 16.94s7.6 16.94 16.94 16.94 16.94-7.6 16.94-16.94-7.6-16.94-16.94-16.94zm0 23.87c-3.82 0-6.94-3.11-6.94-6.94s3.11-6.94 6.94-6.94 6.94 3.11 6.94 6.94-3.11 6.94-6.94 6.94zm3.67 24.81c-.94-.94-2.21-1.46-3.54-1.46s-2.6.53-3.54 1.46l-11.67 11.67c-1.95 1.95-1.95 5.12 0 7.07s5.12 1.95 7.07 0l3.13-3.13v7.79c0 4.6-3.74 8.35-8.35 8.35h-107.31c-10.12 0-18.35 8.23-18.35 18.35v15.61c-6.91 2.14-11.94 8.58-11.94 16.18 0 9.34 7.6 16.94 16.94 16.94s16.94-7.6 16.94-16.94c0-7.6-5.03-14.04-11.94-16.18v-15.61c0-4.6 3.74-8.35 8.35-8.35h107.33c10.12 0 18.35-8.23 18.35-18.35v-7.79l3.13 3.13c1.95 1.95 5.12 1.95 7.07 0s1.95-5.12 0-7.07zm-137.55 88.82c-3.82 0-6.94-3.11-6.94-6.94s3.11-6.94 6.94-6.94 6.94 3.11 6.94 6.94-3.12 6.94-6.94 6.94zm44.81-87.03 6.52-6.52-6.52-6.52c-1.95-1.95-1.95-5.12 0-7.07s5.12-1.95 7.07 0l6.52 6.52 6.52-6.52c1.95-1.95 5.12-1.95 7.07 0s1.95 5.12 0 7.07l-6.52 6.52 6.52 6.52c1.95 1.95 1.95 5.12 0 7.07s-5.12 1.95-7.07 0l-6.52-6.52-6.52 6.52c-.98.98-2.26 1.46-3.54 1.46s-2.56-.49-3.54-1.46c-1.94-1.96-1.94-5.12.01-7.07zm-59.02-41.93c-1.95-1.95-1.95-5.12 0-7.07s5.12-1.95 7.07 0l6.52 6.52 6.52-6.52c1.95-1.95 5.12-1.95 7.07 0s1.95 5.12 0 7.07l-6.52 6.52 6.52 6.52c1.95 1.95 1.95 5.12 0 7.07s-5.12 1.95-7.07 0l-6.52-6.52-6.52 6.52c-.98.98-2.26 1.46-3.54 1.46s-2.56-.49-3.54-1.46c-1.95-1.95-1.95-5.12 0-7.07l6.52-6.52zm121.04 130.42c1.95 1.95 1.95 5.12 0 7.07s-5.12 1.95-7.07 0l-6.52-6.52-6.52 6.52c-.98.98-2.26 1.46-3.54 1.46s-2.56-.49-3.54-1.46c-1.95-1.95-1.95-5.12 0-7.07l6.52-6.52-6.52-6.52c-1.95-1.95-1.95-5.12 0-7.07s5.12-1.95 7.07 0l6.52 6.52 6.52-6.52c1.95-1.95 5.12-1.95 7.07 0s1.95 5.12 0 7.07l-6.52 6.52zm61.69-48.1 6.52 6.52 6.52-6.52c1.95-1.95 5.12-1.95 7.07 0s1.95 5.12 0 7.07l-6.52 6.52 6.52 6.52c1.95 1.95 1.95 5.12 0 7.07-.98.98-2.26 1.46-3.54 1.46s-2.56-.49-3.54-1.46l-6.52-6.52-6.52 6.52c-1.95 1.95-5.12 1.95-7.07 0s-1.95-5.12 0-7.07l6.52-6.52-6.52-6.52c-1.95-1.95-1.95-5.12 0-7.07 1.97-1.95 5.13-1.95 7.08 0zm-200.94-13.47c1.95 1.95 1.95 5.12 0 7.07s-5.12 1.95-7.07 0l-6.52-6.52-6.52 6.52c-.98.98-2.26 1.46-3.54 1.46s-2.56-.49-3.54-1.46c-1.95-1.95-1.95-5.12 0-7.07l6.52-6.52-6.52-6.52c-1.95-1.95-1.95-5.12 0-7.07s5.12-1.95 7.07 0l6.52 6.52 6.52-6.52c1.95-1.95 5.12-1.95 7.07 0s1.95 5.12 0 7.07l-6.52 6.52zm390.02-121.03c-.78-7.55-6.61-13.32-14.17-14.02l-14.25-1.32c-2.54-.24-3.56-2.08-3.87-2.86-.32-.78-.89-2.8.76-4.75l9.22-10.93c4.89-5.8 5.01-14 .27-19.93-4.65-5.83-9.95-11.17-15.75-15.88-5.89-4.79-14.09-4.74-19.93.11l-11.01 9.14c-1.96 1.63-3.98 1.05-4.76.72s-2.61-1.36-2.82-3.9l-1.21-14.26c-.64-7.57-6.36-13.44-13.91-14.28-7.69-.86-15.48-.86-23.17 0-7.55.84-13.27 6.72-13.91 14.28l-1.21 14.26c-.22 2.54-2.05 3.57-2.82 3.9-.78.33-2.8.91-4.76-.72l-11.01-9.14c-5.84-4.85-14.04-4.89-19.93-.11-1.5 1.21-2.96 2.47-4.38 3.77l-8.2-8.2 4.55-20.51c.37-1.67-.14-3.41-1.35-4.62l-23.8-23.8c-1.29-1.29-3.18-1.77-4.93-1.26s-3.09 1.94-3.48 3.72l-4.46 20.08-20.08 4.46c-1.78.4-3.21 1.73-3.72 3.48s-.03 3.64 1.26 4.93l23.8 23.8c.95.95 2.22 1.46 3.54 1.46.36 0 .72-.04 1.08-.12l20.51-4.55 8.2 8.2c-1.48 1.63-2.92 3.31-4.3 5.03-4.74 5.93-4.63 14.13.27 19.93l9.22 10.93c1.64 1.95 1.08 3.97.76 4.75s-1.34 2.62-3.88 2.86l-14.25 1.32c-4.39.41-8.19 2.53-10.76 5.71h-257.88c-15.95.01-28.92 12.98-28.92 28.93v215.1c0 15.95 12.97 28.92 28.92 28.92h123.88c-.63 24.13-6.24 59.09-33.48 59.09h-15.95c-11.52 0-20.89 9.37-20.89 20.89v7.91c0 7.15 5.82 12.97 12.97 12.97h201.79c7.15 0 12.97-5.82 12.97-12.97v-7.91c0-11.52-9.37-20.89-20.89-20.89h-15.95c-27.24 0-32.85-34.97-33.48-59.09h123.88c15.95 0 28.92-12.97 28.92-28.92v-121.55c1.77-.11 3.53-.25 5.29-.45 7.55-.84 13.27-6.72 13.91-14.28l1.21-14.26c.22-2.54 2.05-3.57 2.82-3.9.78-.33 2.8-.91 4.76.72l11.01 9.14c5.84 4.85 14.04 4.89 19.93.11 5.8-4.71 11.09-10.05 15.75-15.88 4.74-5.93 4.63-14.13-.27-19.93l-9.22-10.93c-1.64-1.95-1.08-3.97-.76-4.75s1.34-2.62 3.88-2.86l14.25-1.32c7.56-.7 13.39-6.47 14.17-14.02.76-7.16.77-14.41.02-21.55zm-186.65-94.12-2.58 11.61-15.41-15.41 2.58-11.61zm-21.26 21.26-15.41-15.41 11.61-2.58 15.41 15.41zm23.9 148.21c4.65 5.83 9.95 11.17 15.75 15.88 5.9 4.79 14.09 4.74 19.93-.11l11.01-9.14c1.96-1.63 3.98-1.05 4.76-.72s2.61 1.36 2.82 3.9l1.21 14.26c.24 2.82 1.18 5.4 2.66 7.57v106.96h-334.43v-193.13h254.19c.02.24.04.47.06.71.79 7.55 6.61 13.32 14.17 14.02l14.25 1.32c2.54.24 3.56 2.08 3.88 2.86s.88 2.8-.76 4.75l-9.22 10.93c-4.9 5.81-5.01 14.01-.28 19.94zm-16.09 258.37c6 0 10.89 4.88 10.89 10.89v7.91c0 1.64-1.33 2.97-2.97 2.97h-201.8c-1.64 0-2.97-1.33-2.97-2.97v-7.91c0-6 4.88-10.89 10.89-10.89zm-48.58-19.98c2.22 3.88 4.79 7.21 7.65 9.98h-104.1c2.86-2.78 5.43-6.1 7.65-9.98 6.71-11.72 10.35-28.23 10.84-49.11h67.11c.5 20.87 4.14 37.38 10.85 49.11zm123.03-59.11h-334.87c-10.43 0-18.92-8.49-18.92-18.92v-215.1c0-10.43 8.49-18.92 18.92-18.92h254.31c-.27 3.04-.4 6.09-.4 9.14h-253.91c-5.4 0-9.78 4.39-9.78 9.78v193.56c0 5.39 4.39 9.78 9.78 9.78h334.87c5.4 0 9.78-4.39 9.78-9.78v-100.66c.41.08.83.15 1.25.19 2.62.29 5.25.48 7.88.57v121.43c.01 10.44-8.47 18.93-18.91 18.93zm115.71-234.13c-.29 2.75-2.4 4.84-5.15 5.1l-14.25 1.32c-5.46.51-10.13 3.96-12.2 9.02s-1.16 10.8 2.37 14.99l9.22 10.93c1.78 2.11 1.82 5.09.1 7.24-4.21 5.27-9 10.1-14.24 14.35-2.14 1.74-5.12 1.72-7.24-.04l-11.01-9.14c-4.22-3.5-9.97-4.36-15.01-2.25s-8.46 6.82-8.92 12.27l-1.21 14.26c-.23 2.75-2.31 4.89-5.06 5.19-6.95.77-14 .77-20.96 0-2.74-.31-4.82-2.44-5.06-5.19l-1.21-14.26c-.46-5.46-3.88-10.16-8.92-12.27-1.83-.77-3.75-1.14-5.66-1.14-3.35 0-6.67 1.16-9.35 3.39l-11.01 9.14c-2.12 1.76-5.1 1.78-7.24.04-5.24-4.25-10.03-9.08-14.24-14.35-1.72-2.16-1.68-5.13.1-7.24l9.22-10.93c3.53-4.19 4.44-9.93 2.37-14.99s-6.75-8.52-12.2-9.02l-14.25-1.32c-2.75-.26-4.87-2.35-5.15-5.1-.67-6.46-.67-13.01 0-19.47.29-2.74 2.4-4.84 5.15-5.1l14.25-1.32c5.46-.51 10.13-3.96 12.2-9.02s1.16-10.8-2.37-14.99l-9.22-10.93c-1.78-2.11-1.82-5.09-.1-7.24 1.14-1.43 2.34-2.82 3.56-4.19l27.12 27.12c-8.02 9.6-12.85 21.95-12.85 35.41 0 30.51 24.82 55.33 55.33 55.33s55.33-24.82 55.33-55.33-24.82-55.33-55.33-55.33c-13.46 0-25.81 4.83-35.41 12.85l-27.13-27.13c1.18-1.06 2.38-2.09 3.6-3.09 2.14-1.74 5.12-1.72 7.24.04l11.01 9.14c4.22 3.5 9.97 4.36 15.01 2.25s8.46-6.82 8.92-12.27l1.21-14.26c.23-2.75 2.31-4.89 5.06-5.19 6.95-.77 14-.77 20.96 0 2.74.31 4.82 2.44 5.06 5.19l1.21 14.26c.46 5.46 3.88 10.16 8.92 12.27s10.79 1.25 15.01-2.25l11.01-9.14c2.12-1.76 5.1-1.78 7.24-.04 5.24 4.25 10.03 9.08 14.24 14.35 1.72 2.16 1.68 5.13-.1 7.24l-9.22 10.93c-3.53 4.19-4.44 9.93-2.37 14.99s6.75 8.52 12.2 9.02l14.25 1.32c2.75.26 4.86 2.35 5.15 5.1.69 6.47.69 13.02.02 19.48zm-113.22-22.8c-2.45 3.76-3.88 8.25-3.88 13.07 0 13.25 10.78 24.02 24.02 24.02s24.02-10.78 24.02-24.02-10.78-24.02-24.02-24.02c-4.82 0-9.3 1.43-13.07 3.88l-15.23-15.23c7.76-6.22 17.6-9.96 28.3-9.96 25 0 45.33 20.34 45.33 45.33 0 25-20.34 45.33-45.33 45.33-25 0-45.33-20.34-45.33-45.33 0-10.7 3.73-20.54 9.96-28.3zm16.6 16.6c.98.98 2.26 1.46 3.54 1.46s2.56-.49 3.54-1.46c1.95-1.95 1.95-5.12 0-7.07l-9.25-9.25c1.75-.78 3.68-1.23 5.72-1.23 7.73 0 14.02 6.29 14.02 14.02s-6.29 14.02-14.02 14.02-14.02-6.29-14.02-14.02c0-2.04.45-3.97 1.23-5.72z"/></svg>