<svg id="Layer_1" height="512" viewBox="0 0 512 512" width="512" xmlns="http://www.w3.org/2000/svg" data-name="Layer 1"><path fill="#33bdf1" d="m484.817 137.197c0-48.857-39.748-88.605-88.605-88.605s-88.605 39.748-88.605 88.605 39.748 88.605 88.605 88.605 88.605-39.748 88.605-88.605zm-167.211 0c0-43.343 35.263-78.605 78.605-78.605s78.605 35.263 78.605 78.605-35.263 78.605-78.605 78.605-78.605-35.263-78.605-78.605zm83.605 57.181v-10.837c12.117-1.101 21.415-7.83 23.744-17.624 3.36-14.132-4.068-25.156-20.918-31.043-.918-.321-1.87-.621-2.826-.916v-32.819c.441.084.881.172 1.319.279 3.426.839 11.566 3.717 13.156 12.31.502 2.714 3.106 4.512 5.826 4.006 2.715-.502 4.509-3.11 4.006-5.826-1.839-9.94-9.544-17.493-20.61-20.202-1.226-.3-2.461-.514-3.697-.682v-11.007c0-2.762-2.238-5-5-5s-5 2.238-5 5v11.036c-7.468 1.089-14.182 4.527-18.296 9.793-7.683 9.834-6.605 23.802 2.505 32.489 4.347 4.144 10.179 6.357 15.791 8.082v31.542c-6.62-1.571-13.078-5.744-14.612-13.829-.515-2.714-3.136-4.491-5.844-3.98-2.713.515-4.495 3.131-3.98 5.844 2.486 13.105 13.313 20.216 24.437 22.163v11.221c0 2.762 2.238 5 5 5s5-2.238 5-5zm14.016-30.773c-1.399 5.883-7.624 9.017-14.016 9.869v-28.987c15.304 5.512 15.343 13.537 14.016 19.118zm-32.906-37.507c-6.187-5.899-5.449-14.071-1.524-19.096 2.276-2.914 6.065-4.93 10.415-5.817v29.717c-3.494-1.22-6.676-2.693-8.891-4.804zm-199.006 202.054c-1.754-.613-3.596-1.186-5.447-1.74v-50.791c1.508.185 3.015.449 4.506.814 5.28 1.293 17.83 5.752 20.32 19.206.502 2.715 3.107 4.512 5.826 4.007 2.715-.502 4.509-3.11 4.006-5.826-2.463-13.314-12.846-23.445-27.774-27.1-2.283-.559-4.585-.932-6.884-1.157v-17.553c0-2.762-2.239-5-5-5s-5 2.238-5 5v17.598c-10.824 1.153-20.649 5.875-26.509 13.375-10.437 13.36-9.025 31.627 3.358 43.435 6.237 5.948 14.936 9.016 23.15 11.474v49.112c-10.971-1.863-22.439-8.308-25.02-21.913-.514-2.713-3.128-4.495-5.844-3.98-2.713.515-4.495 3.131-3.98 5.844 3.477 18.331 19.16 27.966 34.844 30.15v17.797c0 2.762 2.239 5 5 5s5-2.238 5-5v-17.395c14.867-.871 30.208-8.203 33.878-23.634 4.5-18.929-5.597-33.746-28.431-41.724zm-31.697-12.968c-8.583-8.185-9.583-20.819-2.379-30.042 3.981-5.096 10.89-8.437 18.629-9.475v47.767c-6.283-1.998-12.21-4.398-16.25-8.25zm50.399 52.378c-2.407 10.122-13.519 15.103-24.149 15.913v-46.6c.731.234 1.449.472 2.149.716 26.892 9.396 23.21 24.883 22 29.971zm284.714-128.41h-49.801c40.435-16.207 69.07-55.798 69.07-101.955 0-60.537-49.251-109.787-109.788-109.787s-109.788 49.25-109.788 109.787c0 46.157 28.634 85.748 69.07 101.955h-49.801c-3.204 0-6.221.797-8.881 2.186-13.776-24.464-29.705-46.112-46.499-63.232 5.38-4.223 8.847-10.779 8.847-18.134 0-10.314-6.81-19.066-16.17-21.999 30.515-47.106 40.638-81.828 28.462-98.17-6.026-8.088-16.924-10.411-29.904-6.375-10.406 3.237-16.958 8.639-22.223 12.979l-.466.385c-3.595 2.959-8.11 6.292-11.169 5.89-1.822-.246-3.832-1.911-5.973-4.949-9.637-13.677-19.073-20.325-28.849-20.325s-19.213 6.648-28.85 20.325c-2.14 3.038-4.149 4.703-5.972 4.949-3.068.404-7.575-2.932-11.168-5.89l-.469-.387c-5.264-4.34-11.815-9.741-22.22-12.978-12.979-4.036-23.878-1.714-29.904 6.374-12.176 16.343-2.053 51.065 28.462 98.171-9.359 2.933-16.169 11.686-16.169 22 0 7.354 3.466 13.909 8.846 18.132-36.181 36.872-67.186 93.471-81.64 149.532-12.861 49.887-9.809 86.365 9.334 111.519 23.15 30.42 67.909 44.009 149.663 45.436h.087s.058 0 .087 0c52.139-.909 87.7-6.531 113.528-18.08.619 10.071 8.984 18.081 19.208 18.081h181.039c10.625 0 19.269-8.645 19.269-19.27v-30.322c0-5.659-2.467-10.74-6.365-14.268 3.898-3.529 6.365-8.61 6.365-14.269v-30.322c0-5.659-2.467-10.74-6.365-14.269 3.898-3.528 6.365-8.609 6.365-14.269v-30.322c0-5.659-2.467-10.74-6.365-14.269 3.898-3.528 6.365-8.609 6.365-14.269v-30.322c0-10.625-8.644-19.269-19.269-19.269zm-190.308-101.955c0-55.022 44.765-99.787 99.788-99.787s99.788 44.765 99.788 99.787-44.765 99.788-99.788 99.788-99.788-44.765-99.788-99.788zm-214.119-91.419c4.569-6.134 13.812-4.388 18.915-2.8 8.53 2.653 14.001 7.164 18.83 11.145l.474.39c5.757 4.741 12.028 9.007 18.861 8.08 4.758-.642 8.949-3.618 12.811-9.099 7.52-10.673 14.476-16.085 20.675-16.085s13.154 5.412 20.675 16.085c3.861 5.481 8.052 8.457 12.811 9.099 6.831.925 13.104-3.339 18.861-8.08l.471-.388c4.828-3.981 10.301-8.493 18.832-11.146 5.102-1.587 14.346-3.334 18.914 2.8 7.41 9.945 2.852 39.094-31.715 91.147h-117.699c-34.567-52.054-39.124-81.203-31.716-91.147zm27.322 101.147h126.484c7.195 0 13.049 5.854 13.049 13.049s-5.854 13.048-13.049 13.048h-126.484c-7.195 0-13.048-5.854-13.048-13.049s5.854-13.048 13.048-13.048zm63.242 327.664c-78.301-1.375-120.708-13.785-141.792-41.491-17.167-22.558-19.655-56.238-7.608-102.967 14.379-55.773 45.536-112.004 81.627-147.559 1.466.293 2.981.45 4.532.45h126.484c1.55 0 3.065-.156 4.53-.45 17.594 17.338 34.328 39.98 48.638 65.806-1.799 2.929-2.855 6.36-2.855 10.042v30.322c0 5.659 2.467 10.74 6.365 14.269-3.898 3.528-6.365 8.609-6.365 14.269v30.322c0 5.659 2.467 10.74 6.365 14.269-3.898 3.528-6.365 8.609-6.365 14.269v30.322c0 5.659 2.467 10.741 6.365 14.269-3.898 3.528-6.365 8.609-6.365 14.268v20.491c-24.74 12.248-59.992 18.159-113.556 19.1zm323.132-39.591v30.322c0 5.111-4.158 9.27-9.269 9.27h-181.039c-5.11 0-9.269-4.158-9.269-9.27v-30.322c0-5.11 4.158-9.268 9.269-9.268h181.039c5.11 0 9.269 4.157 9.269 9.268zm0-58.859v30.322c0 5.111-4.158 9.27-9.269 9.27h-181.039c-5.11 0-9.269-4.158-9.269-9.27v-30.322c0-5.11 4.158-9.269 9.269-9.269h181.039c5.11 0 9.269 4.158 9.269 9.269zm0-58.859v30.322c0 5.11-4.158 9.269-9.269 9.269h-181.039c-5.11 0-9.269-4.158-9.269-9.269v-30.322c0-5.11 4.158-9.269 9.269-9.269h181.039c5.11 0 9.269 4.158 9.269 9.269zm-190.308-19.269c-5.11 0-9.269-4.158-9.269-9.269v-30.322c0-5.11 4.158-9.269 9.269-9.269h181.039c5.11 0 9.269 4.158 9.269 9.269v30.322c0 5.11-4.158 9.269-9.269 9.269z"/></svg>