<svg id="Layer_1" viewBox="0 0 512 512" xmlns="http://www.w3.org/2000/svg" data-name="Layer 1"><path fill="#33bdf1" d="m351.021 87.58c-22.855 0-41.45 18.582-41.45 41.421s18.594 41.45 41.45 41.45 41.45-18.594 41.45-41.45-18.595-41.421-41.45-41.421zm0 66.871c-14.033 0-25.45-11.417-25.45-25.45s11.417-25.421 25.45-25.421 25.45 11.404 25.45 25.421-11.417 25.45-25.45 25.45zm76.613-8.779c2.828-1.31 4.637-4.143 4.637-7.259v-18.823c0-3.121-1.815-5.957-4.648-7.264l-11.843-5.464-3.303-7.97 4.506-12.259c1.076-2.927.353-6.212-1.852-8.417l-13.323-13.323c-2.206-2.206-5.493-2.929-8.421-1.851l-12.23 4.503-7.974-3.304-5.491-11.852c-1.31-2.828-4.143-4.637-7.259-4.637h-18.823c-3.121 0-5.957 1.815-7.264 4.648l-5.463 11.84-7.994 3.306-12.233-4.504c-2.927-1.077-6.215-.356-8.421 1.851l-13.323 13.323c-2.205 2.205-2.928 5.49-1.852 8.417l4.506 12.259-3.303 7.97-11.843 5.464c-2.833 1.308-4.648 4.144-4.648 7.264v18.823c0 3.116 1.81 5.949 4.637 7.259l11.852 5.491 3.306 7.977-4.506 12.26c-1.077 2.93-.352 6.218 1.858 8.423l13.323 13.295c2.206 2.201 5.491 2.921 8.415 1.844l12.233-4.504 7.994 3.306 5.463 11.84c1.308 2.833 4.144 4.648 7.264 4.648h18.823c3.116 0 5.949-1.81 7.259-4.637l5.491-11.852 7.974-3.305 12.23 4.503c2.928 1.078 6.216.355 8.421-1.851l13.323-13.324c2.206-2.206 2.929-5.494 1.851-8.421l-4.503-12.229 3.305-7.974 11.852-5.491zm-21.41-7.714c-1.821.844-3.259 2.342-4.027 4.196l-5.698 13.749c-.77 1.859-.812 3.939-.117 5.828l3.816 10.363-6.086 6.086-10.364-3.816c-1.888-.695-3.968-.653-5.827.117l-13.749 5.698c-1.854.769-3.352 2.206-4.196 4.028l-4.655 10.047h-8.593l-4.63-10.036c-.844-1.829-2.346-3.271-4.207-4.041l-13.777-5.698c-1.857-.769-3.937-.809-5.822-.115l-10.369 3.818-6.081-6.068 3.818-10.388c.693-1.887.651-3.965-.118-5.823l-5.698-13.749c-.769-1.854-2.206-3.352-4.028-4.196l-10.047-4.655v-8.593l10.036-4.63c1.827-.843 3.269-2.343 4.039-4.201l5.698-13.749c.77-1.857.812-3.936.118-5.823l-3.82-10.394 6.088-6.088 10.364 3.816c1.886.694 3.964.655 5.821-.115l13.777-5.697c1.861-.77 3.363-2.212 4.207-4.041l4.63-10.036h8.593l4.655 10.047c.844 1.822 2.342 3.259 4.196 4.028l13.749 5.697c1.858.77 3.938.812 5.827.117l10.364-3.816 6.088 6.088-3.82 10.394c-.693 1.887-.651 3.965.118 5.823l5.698 13.749c.771 1.858 2.212 3.358 4.039 4.201l10.036 4.63v8.593l-10.047 4.655zm-25.181 103.118c-9.831 2.631-19.875 3.918-29.866 3.919-19.968 0-39.726-5.155-57.206-14.999.528 3.927-1.922 7.73-5.851 8.784-.694.186-1.392.275-2.077.275-3.532 0-6.764-2.356-7.722-5.93l-4.706-17.547c-1.145-4.268 1.387-8.655 5.655-9.799l17.547-4.706c4.269-1.145 8.655 1.387 9.799 5.655 1.048 3.906-.99 7.905-4.615 9.433 22.577 12.658 49.548 16.243 74.902 9.46 53.257-14.277 84.99-69.231 70.736-122.501-3.246-12.14-8.668-23.417-16.116-33.52-2.622-3.556-1.865-8.565 1.691-11.187 3.557-2.623 8.564-1.864 11.187 1.691 8.641 11.72 14.93 24.801 18.695 38.88 16.533 61.788-20.275 125.53-82.054 142.091zm-110.53-52.679c-7.403-10.015-12.814-21.29-16.083-33.517-6.919-25.797-3.375-52.746 9.98-75.881 13.357-23.138 34.924-39.683 60.733-46.589 25.328-6.793 52.295-3.216 74.887 9.437-3.618 1.531-5.652 5.526-4.605 9.429.958 3.573 4.19 5.93 7.722 5.93.686 0 1.383-.089 2.077-.275l17.547-4.706c2.05-.55 3.797-1.892 4.857-3.73 1.061-1.838 1.347-4.022.796-6.072l-4.706-17.519c-1.146-4.267-5.531-6.797-9.801-5.651-3.921 1.053-6.366 4.844-5.85 8.763-26.246-14.769-57.613-18.961-87.066-11.061-29.936 8.01-54.955 27.204-70.45 54.045-15.492 26.837-19.604 58.099-11.579 88.019.678 2.534 1.438 5.033 2.275 7.496-1.091-.761-2.244-1.447-3.475-2.021-5.552-2.586-11.769-2.86-17.515-.769l-26.186 9.568-41.271-36.239c-2.242-2.017-4.801-4.135-7.691-6.018 3.012-1.816 5.816-4.129 8.33-6.912 6.719-7.436 10.575-17.376 10.86-28.003.563-22.408-15.089-41.054-34.892-41.563-19.836-.489-36.433 17.289-37.032 39.687-.36 14.297 5.902 27.052 15.626 34.545-10.169 5.307-17.131 15.947-17.131 28.188l-.028 81.352-.053 52.98-39.372 41.682c-4.365 4.613-6.668 10.674-6.484 17.067.184 6.395 2.833 12.317 7.448 16.664 4.458 4.219 10.255 6.519 16.39 6.519.228 0 .457-.003.686-.009 6.385-.178 12.311-2.822 16.692-7.452l47.749-50.58c3.331-3.428 4.186-7.282 4.587-10.65l3.144-27.776 24.392 4.461v44.186c0 13.305 10.824 24.129 24.129 24.129s24.13-10.824 24.13-24.129v-64.32c0-10.258-6.258-19.171-15.935-22.706l-36.548-13.39-.04-17.646 10.907 7.373c9.343 6.363 20.346 7.719 30.97 3.824l32.349-11.795c5.724-2.09 10.298-6.306 12.881-11.87 1.086-2.34 1.738-4.798 2.002-7.284 2.071 3.544 4.328 6.983 6.781 10.301 1.569 2.123 3.988 3.245 6.439 3.245 1.652 0 3.319-.51 4.749-1.567 3.553-2.626 4.304-7.636 1.678-11.188zm-162.143-93.737c.358-13.402 9.38-24.112 20.204-24.112.14 0 .282.001.422.005 10.988.284 19.65 11.573 19.309 25.153-.182 6.802-2.575 13.085-6.737 17.692-3.849 4.26-8.772 6.544-13.862 6.387-11.003-.282-19.678-11.559-19.336-25.125zm14.221 208.044c-.104.875-.193 1.261-.242 1.421-.014.014-.028.029-.042.043l-47.787 50.622c-1.438 1.52-3.396 2.39-5.51 2.448-2.102.065-4.113-.7-5.645-2.149-1.512-1.424-2.378-3.374-2.439-5.49-.061-2.114.69-4.107 2.117-5.616l41.558-43.995c1.401-1.483 2.183-3.445 2.185-5.485l.028-27.746c5.045 3.286 11.126 5.684 18.029 6.948l1.01.185-3.261 28.815zm111.76-114.55c-.782 1.685-2.152 2.955-3.854 3.577l-32.359 11.798c-5.741 2.105-11.436 1.407-16.492-2.037l-23.443-15.846s-.001 0-.002-.001c0 0-.001-.001-.002-.002l-16.044-10.829c-3.662-2.472-8.635-1.506-11.106 2.155-2.472 3.663-1.507 8.635 2.155 11.106l12.529 8.456.076 34.085c.007 3.351 2.102 6.342 5.248 7.494l41.792 15.311c3.401 1.242 5.432 4.113 5.432 7.68v64.32c0 4.482-3.647 8.129-8.13 8.129s-8.129-3.647-8.129-8.129v-50.855c0-3.863-2.761-7.174-6.561-7.87l-47.735-8.73c-10.095-1.849-20.881-7.977-20.881-19.625l.028-81.36c0-8.703 7.081-15.784 15.783-15.784h3.77.107c4.847-.083 9.391 2.189 15.602 7.782.025.022.05.044.075.066l44.874 39.403c2.198 1.931 5.276 2.507 8.024 1.503l30.634-11.194c1.723-.627 3.598-.542 5.278.241 1.679.782 2.948 2.159 3.577 3.887.625 1.71.538 3.582-.245 5.268zm-120.18 216.152h-93.171c-4.418 0-8 3.582-8 8v78.664c0 4.418 3.582 8 8 8h93.171c4.418 0 8-3.582 8-8v-78.664c0-4.418-3.582-8-8-8zm-8 78.664h-77.171v-62.664h77.171zm133.62-129.151h-93.171c-4.418 0-8 3.582-8 8v129.151c0 4.418 3.582 8 8 8h93.171c4.418 0 8-3.582 8-8v-129.151c0-4.418-3.582-8-8-8zm-8 129.151h-77.171v-113.151h77.171zm133.589-179.609h-93.171c-4.418 0-8 3.582-8 8v179.609c0 4.418 3.582 8 8 8h93.171c4.418 0 8-3.582 8-8v-179.609c0-4.418-3.582-8-8-8zm-8 179.609h-77.171v-163.609h77.171zm133.62-230.096h-93.171c-4.418 0-8 3.582-8 8v230.096c0 4.418 3.582 8 8 8h93.171c4.418 0 8-3.582 8-8v-230.096c0-4.418-3.582-8-8-8zm-8 230.096h-77.171v-214.096h77.171z"/></svg>