<svg id="Layer_1" enable-background="new 0 0 512 512" viewBox="0 0 512 512" xmlns="http://www.w3.org/2000/svg"><g><g><path d="m403.9 266.2c-26.5 0-48 21.5-48 48 1.2 59 85.5 65.2 95.4 7.2 4.8-28.6-18.4-55.4-47.4-55.2zm36.6 52c-6 45.7-72.3 42.1-73.3-3.9 2.2-51.3 76.6-47.2 73.3 3.9z" fill="#33bdf1"/></g><g><path d="m482.2 341.7 18.6-2c5.7-.5 10.1-5.2 10.1-10.9v-29c0-5.6-4.3-10.4-10-11.1l-18.8-1.9c-1-2.9-2.3-5.8-3.6-8.5l11.8-14.5c3.7-4.3 3.4-10.9-.7-15l-20.5-20.4c-4.7-4.8-12-4-16.5.6v-162.4c0-32.6-26.6-59.1-59.2-59.1-.1 0-33.5 0-33.6 0h-324.4c-18.8 0-34.4 15.5-34.4 34.7 0 19.1 15.6 34.7 34.7 34.7h23.3v368.4c0 32.6 26.5 59.2 59.1 59.2h358.2c19.2 0 34.7-15.6 34.7-34.7s-15.6-34.7-34.7-34.7h-23.3v-35.5c4.5 4.6 11.9 5.4 16.5.6 0 0 20.5-20.5 20.5-20.5 4.1-4.1 4.3-10.5.7-14.8l-12-14.6c1.3-2.8 2.6-6 3.5-8.6zm-446.5-276.1c-31-1-31-45.9 0-46.9h298.9c-12.1 12.6-12.1 34.4 0 46.9zm132.5 420.9c-4.2 4.2-10 6.8-16.5 6.8h-33.7c-26.4 0-47.9-21.5-47.9-47.9v-368.5h290c3.1 0 5.6-2.5 5.6-5.6s-2.6-5.7-5.6-5.6c-13 0-23.5-10.7-23.5-23.5-.1-13 10.8-23.6 23.5-23.5h33.5c26.4 0 47.9 21.5 47.9 47.9v171.3l-1.8 1.5c-2.8-1.4-5.6-2.5-8.5-3.6l-1.9-18.9c-.7-5.6-5.5-9.8-11.1-9.8h-28.9c-5.5 0-10.5 4.2-11.1 9.9l-2 18.8c-2.8 1-5.7 2.2-8.5 3.6l-14.6-11.8c-4.5-3.7-11-3.3-14.8.7l-20.6 20.4c-3.9 3.9-4.3 10.5-.8 14.9l12 14.6c-1.3 2.8-2.5 5.6-3.5 8.5l-18.9 1.9c-5.6.7-9.9 5.5-9.9 11.1v29c0 5.5 4.4 10.5 10 10.9l18.8 1.9c.9 2.7 2.2 5.8 3.6 8.6l-12 14.7c-3.6 4.4-3.2 10.9.8 14.8l20.4 20.2c3.9 4.3 10.5 4.7 15.1 1l14.6-11.9c2.7 1.3 5.6 2.5 8.5 3.6l2 18.7c.6 5.7 5.3 10 11.1 10h28.9c5.6 0 10.4-4.2 11.1-9.9l1.9-18.8c3-1.1 5.8-2.3 8.5-3.6l1.8 1.4v44.7h-289.9c-7.3.1-7.4 11.3 0 11.3 6.2 0 11.8 2.4 16 6.4 9.6 8.3 9.7 25.4.4 33.8zm308.1-40.1c31 1 31 45.9 0 46.9h-298.9c12.1-12.5 12-34.6.1-46.9zm-8.7-91.8 14.3 17.2-20.2 20.4-17.6-14.3c-1.7-1.4-4.2-1.6-6.2-.6-4 2.2-8.6 4.1-13.5 5.6-2.1.7-3.7 2.6-3.9 4.8l-2.1 22.2-28.7.2-2.4-22.4c-.2-2.2-1.7-4.1-3.9-4.8-5.5-1.5-10.1-4.2-14.9-6.1-1.7-.4-3.4.1-4.8 1.1l-17.3 14.3c-2.8-2.8-17.9-17.9-20.5-20.2l14.3-17.4c2.9-3.3-.1-7.4-1.5-10.6-3-5-1.9-12-8.2-13.2 0 0-22.3-2-22.3-2l-.2-28.9 22.5-2.3c2.3-.3 4.2-1.9 4.8-4.1 1.4-4.7 3.3-9.2 5.5-13.4 1.1-2 .9-4.5-.6-6.3l-14.3-17.3 20.3-20.4 17.5 14.2c1.8 1.5 4.2 1.7 6.3.6 4.5-2.4 8.9-4.2 13.3-5.5 2.2-.6 3.8-2.5 4.1-4.8l2.2-22.3 28.8-.2 2.3 22.5c.2 2.3 1.9 4.2 4.1 4.8 4.5 1.3 9 3.2 13.4 5.5 4.7 2.9 9.4-3.7 13-6 .1-.1.1-.1.1-.2l10.5-8.6 20.4 20.2-14.6 17.7c-1.4 1.8-1.6 4.3-.6 6.3 2.3 4.2 4.2 8.7 5.6 13.4.7 2.2 2.6 3.7 4.8 4l22.3 2.3.1 28.6-22.4 2.3c-2.2.2-4.1 1.8-4.8 3.9-1.1 3.4-2.5 7.5-4.3 10.9-1.5 2.7-3.1 6.1-.7 8.9z" fill="#33bdf1"/></g><g><path d="m467 348.4c2.3-4.2 4.3-9.3 5.7-13.6.7-2.1 2.6-3.7 4.8-3.9l22.4-2.3-.1-28.6-22.3-2.3c-2.2-.3-4.1-1.8-4.8-4-1.5-4.7-3.3-9.2-5.6-13.4-1.1-2-.8-4.5.6-6.3l14.3-17.5-20.4-20.2-10.5 8.6c-.1.1-.1.1-.1.2-3.6 2.3-8.2 8.9-13 6-4.3-2.3-8.9-4.2-13.4-5.5-2.2-.6-3.8-2.5-4.1-4.8l-2.3-22.5-28.8.2-2.2 22.3c-.2 2.4-1.8 4.3-4.1 4.8-4.4 1.3-8.9 3.1-13.3 5.5-2 1.1-4.5.8-6.3-.6l-17.5-14.2-20.3 20.4 14.3 17.3c1.5 1.8 1.7 4.2.6 6.3-2.2 4.1-4.1 8.6-5.5 13.4-.7 2.2-2.5 3.8-4.8 4.1l-22.5 2.3.2 28.9 22.3 2c6.3 1.2 5.2 8.2 8.2 13.2 1.4 3.2 4.5 7.3 1.5 10.6 0 0-14.3 17.4-14.3 17.4 2.5 2.2 17.8 17.5 20.5 20.2l17.3-14.3c1.4-1 3.1-1.5 4.8-1.1 4.9 2 9.5 4.6 14.9 6.1 2.1.7 3.7 2.6 3.9 4.8l2.4 22.4 28.7-.2 2.1-22.2c.2-2.2 1.7-4.1 3.9-4.8 5-1.6 9.5-3.4 13.5-5.6 2-1.1 4.5-.8 6.2.6l17.6 14.3 20.2-20.4-14.3-17.2c-1.2-2-1.4-4.4-.4-6.4zm-15.6-27c-4.5 36.6-51.7 54-78.9 29.1-33.3-28.6-12.5-84.5 31.5-84.3 28.9-.2 52.1 26.6 47.4 55.2z" fill="#33bdf1"/></g><g><path d="m247.3 181.7h-146.3c-3.2 0-5.6 2.5-5.6 5.6v41.8c0 3.1 2.5 5.6 5.6 5.6h146.3c3.1 0 5.6-2.5 5.6-5.6v-41.8c0-3-2.5-5.6-5.6-5.6zm-5.7 41.8h-135v-30.5h135z" fill="#33bdf1"/></g><g><path d="m106.6 193h135v30.5h-135z" fill="#9bc8ff"/></g><g><path d="m100.9 271.1c-7.3 0-7.4 11.2 0 11.3h81.3c7.3 0 7.4-11.2 0-11.3z" fill="#33bdf1"/></g><g><path d="m254.7 311h-153.8c-7.3 0-7.4 11.2 0 11.3h153.8c7.3 0 7.4-11.3 0-11.3z" fill="#33bdf1"/></g><g><path d="m254.7 351h-153.8c-7.3 0-7.4 11.2 0 11.3h153.8c7.3-.1 7.4-11.3 0-11.3z" fill="#33bdf1"/></g><g><path d="m254.7 390.9h-153.8c-7.3 0-7.4 11.2 0 11.3h153.8c7.3 0 7.4-11.3 0-11.3z" fill="#33bdf1"/></g><g><path d="m196.7 150.8h27.4c3.1 0 5.6-2.5 5.6-5.6v-44.3c0-3.1-2.5-5.6-5.6-5.6h-27.4c-3.1 0-5.6 2.5-5.6 5.6v44.3c-.1 3 2.4 5.6 5.6 5.6zm5.6-44.3h16.1v33h-16.1z" fill="#33bdf1"/></g><g><path d="m334.1 100.8v44.3c0 3.1 2.5 5.6 5.6 5.6h27.4c7.4 0 7.4-11.2 0-11.3h-21.8v-33h21.8c7.4 0 7.4-11.2 0-11.3h-27.4c-3.1.1-5.6 2.6-5.6 5.7z" fill="#33bdf1"/></g><g><path d="m271.8 95.2c-3.1 0-5.6 2.5-5.6 5.6v38.7h-16.2v-4.5c0-7.4-11.2-7.4-11.3 0v10.1c0 3.1 2.5 5.6 5.6 5.6h27.4c3.1 0 5.6-2.5 5.6-5.6v-44.3c.1-3.1-2.4-5.6-5.5-5.6z" fill="#33bdf1"/></g><g><path d="m319.5 106.5c7.4 0 7.4-11.3 0-11.3h-27.4c-3.1 0-5.6 2.5-5.6 5.6v44.3c0 3.1 2.5 5.6 5.6 5.6h27.4c7.4 0 7.4-11.2 0-11.3h-21.8v-10.9h21.8c3.1 0 5.6-2.5 5.6-5.6s-2.5-5.6-5.6-5.6h-21.8v-10.9h21.8z" fill="#33bdf1"/></g><g><path d="m385.8 106.5h8.1v38.7c0 3.1 2.5 5.6 5.6 5.6s5.6-2.5 5.6-5.6v-38.7h8.1c7.4 0 7.4-11.2 0-11.3h-27.4c-7.3 0-7.4 11.2 0 11.3z" fill="#33bdf1"/></g><g><path d="m104.2 145.1v-16.5h21.8c3.1 0 5.6-2.5 5.6-5.6v-22.1c0-3.1-2.5-5.6-5.6-5.6h-27.4c-3.1 0-5.6 2.5-5.6 5.6v44.3c0 7.3 11.2 7.3 11.2-.1zm0-38.6h16.1v10.9h-16.1z" fill="#33bdf1"/></g><g><path d="m148.9 150.8c3.1 0 5.6-2.5 5.6-5.6v-11.2l18.1 15.5c1.1.9 2.4 1.4 3.7 1.4 5 .2 7.7-6.7 3.7-9.9 0 0-14.3-12.2-14.3-12.2h10.6c3.1 0 5.6-2.5 5.6-5.6v-22.1c0-3.1-2.5-5.6-5.6-5.6h-27.4c-3.1 0-5.6 2.5-5.6 5.6v44.3c0 2.8 2.5 5.4 5.6 5.4zm5.7-44.3h16.1v10.9h-16.1z" fill="#33bdf1"/></g></g></svg>