<svg id="Layer_1" viewBox="0 0 64 64" xmlns="http://www.w3.org/2000/svg" data-name="Layer 1"><path fill="#33bdf1" d="m32.54 53.92c-.15 0-.3-.06-.42-.17l-10.83-10.83c-.23-.23-.23-.61 0-.84s.61-.23.84 0l10.83 10.83c.23.23.23.61 0 .84-.12.12-.27.17-.42.17z"/><path fill="#33bdf1" d="m34.03 52.43c-.15 0-.3-.06-.42-.17-.23-.23-.23-.61 0-.84l19.4-19.4c.71-.71.71-1.85 0-2.56l-7.43-7.43c-.7-.71-1.86-.7-2.56 0l-19.4 19.4c-.23.23-.61.23-.84 0s-.23-.61 0-.84l19.4-19.4c1.17-1.17 3.07-1.17 4.24 0l7.43 7.43c1.17 1.17 1.17 3.07 0 4.24l-19.4 19.4c-.12.12-.27.17-.42.17z"/><path fill="#33bdf1" d="m53.03 29.22c-.16 0-.31-.06-.42-.17l-6.62-6.62c-.23-.23-.23-.61 0-.84l3.35-3.35c1.07-1.07 2.93-1.07 4 0l3.46 3.46c1.1 1.1 1.1 2.9 0 4.01l-3.35 3.35c-.11.11-.26.17-.42.17zm-5.78-7.21 5.78 5.78 2.93-2.93c.64-.64.64-1.68 0-2.32l-3.46-3.46c-.64-.64-1.68-.64-2.32 0z"/><path fill="#33bdf1" d="m24.45 54.52c-.15 0-.3-.06-.42-.17l-3.35-3.33c-.11-.11-.18-.26-.18-.42s.06-.31.17-.42l4.36-4.35c.23-.23.61-.23.84 0l1.07 1.06s.05.05.07.08l2.2 2.2c.11.11.17.26.17.42s-.06.31-.17.42l-4.35 4.35c-.12.12-.27.17-.42.17zm-2.5-3.93 2.5 2.49 3.51-3.51-1.84-1.84s-.04-.05-.06-.08l-.59-.58-3.52 3.51z"/><path fill="#33bdf1" d="m26.33 59.58c-.51 0-1.01-.2-1.36-.56l-8.96-8.97c-.36-.35-.57-.84-.57-1.35s.2-.99.57-1.36c.67-.7 2.01-.72 2.71.02l8.96 8.95c.74.74.74 1.95 0 2.71 0 0 0 0-.01.01-.37.35-.84.55-1.34.55zm.93-.98h.01zm-9.9-10.62c-.19 0-.37.08-.5.21-.15.15-.23.33-.23.52s.08.37.21.5l8.96 8.97c.25.25.73.28 1.03 0 .28-.29.28-.75 0-1.03l-8.97-8.96c-.14-.14-.32-.22-.51-.22z"/><path fill="#33bdf1" d="m54.65 20.98c-.15 0-.31-.06-.42-.18-.23-.23-.23-.61 0-.84l7.75-7.66c.23-.23.61-.23.84 0s.23.61 0 .84l-7.75 7.66c-.12.11-.27.17-.42.17z"/><path fill="#33bdf1" d="m45.22 28.05c-.15 0-.3-.06-.42-.17l-4.23-4.23c-.23-.23-.23-.61 0-.84s.61-.23.84 0l4.23 4.23c.23.23.23.61 0 .84-.12.12-.27.17-.42.17z"/><path fill="#33bdf1" d="m41.61 28.6c-.15 0-.3-.06-.42-.17l-2.7-2.7c-.23-.23-.23-.61 0-.84s.61-.23.84 0l2.7 2.7c.23.23.23.61 0 .84-.12.12-.27.17-.42.17z"/><path fill="#33bdf1" d="m41.05 32.22c-.15 0-.3-.06-.42-.17l-4.23-4.23c-.23-.23-.23-.61 0-.84s.61-.23.84 0l4.23 4.23c.23.23.23.61 0 .84-.12.12-.27.17-.42.17z"/><path fill="#33bdf1" d="m37.43 32.78c-.15 0-.3-.06-.42-.17l-2.7-2.7c-.23-.23-.23-.61 0-.84s.61-.23.84 0l2.7 2.7c.23.23.23.61 0 .84-.12.12-.27.17-.42.17z"/><path fill="#33bdf1" d="m36.87 36.4c-.15 0-.3-.06-.42-.17l-4.23-4.23c-.23-.23-.23-.61 0-.84s.61-.23.84 0l4.23 4.23c.23.23.23.61 0 .84-.12.12-.27.17-.42.17z"/><path fill="#33bdf1" d="m33.26 36.96c-.15 0-.3-.06-.42-.17l-2.71-2.7c-.23-.23-.23-.61 0-.84s.61-.23.84 0l2.71 2.7c.23.23.23.61 0 .84-.12.12-.27.17-.42.17z"/><path fill="#33bdf1" d="m32.7 40.57c-.15 0-.3-.06-.42-.17l-4.23-4.23c-.23-.23-.23-.61 0-.84s.61-.23.84 0l4.23 4.23c.23.23.23.61 0 .84-.12.12-.27.17-.42.17z"/><path fill="#33bdf1" d="m29.08 41.13c-.15 0-.3-.06-.42-.17l-2.7-2.7c-.23-.23-.23-.61 0-.84s.61-.23.84 0l2.7 2.7c.23.23.23.61 0 .84-.12.12-.27.17-.42.17z"/><path fill="#33bdf1" d="m34.19 55.12c-.42 0-.84-.16-1.16-.48l-12.64-12.64c-.64-.64-.64-1.68 0-2.32s1.68-.64 2.32 0l12.64 12.64c.64.64.64 1.68 0 2.32-.32.32-.74.48-1.16.48zm-12.64-14.73c-.12 0-.23.04-.32.13-.18.18-.18.46 0 .64l12.64 12.64c.18.18.46.18.64 0s.18-.46 0-.64l-12.64-12.64c-.09-.09-.2-.13-.32-.13z"/><path fill="#33bdf1" d="m26.54 47.91c-.33 0-.6-.26-.6-.59 0-.34.27-.61.6-.61s.6.27.6.6-.27.6-.6.6z"/><path fill="#33bdf1" d="m26.54 31.51h-24.94c-.33 0-.6-.27-.6-.6v-2.74c0-4.16 1.91-7.98 5.25-10.48.73-.55 1.15-1.35 1.15-2.21v-3.34c0-.33.27-.6.6-.6h12.15c.33 0 .6.27.6.6v3.33c0 .86.43 1.67 1.17 2.23.49.37.96.77 1.4 1.22 2.47 2.46 3.83 5.74 3.83 9.25v2.74c0 .33-.27.6-.6.6zm-24.34-1.19h23.75v-2.14c0-3.19-1.24-6.17-3.48-8.4-.4-.4-.83-.78-1.27-1.11-1.04-.79-1.64-1.94-1.64-3.18v-2.73h-10.96v2.74c0 1.24-.59 2.39-1.62 3.16-3.03 2.27-4.77 5.74-4.77 9.52v2.14z"/><path fill="#33bdf1" d="m26.54 38.26c-.33 0-.6-.27-.6-.6v-6.75c0-.33.27-.6.6-.6s.6.27.6.6v6.75c0 .33-.27.6-.6.6z"/><path fill="#33bdf1" d="m22.8 56.61h-17.37c-2.44 0-4.43-1.99-4.43-4.43v-21.26c0-.33.27-.6.6-.6s.6.27.6.6v21.26c0 1.79 1.45 3.24 3.24 3.24h17.27c.33 0 .64.27.64.6s-.22.6-.55.6z"/><path fill="#33bdf1" d="m21.2 12.75h-14.27c-1.04 0-1.88-.84-1.88-1.88v-4.56c0-1.04.84-1.89 1.88-1.89h14.27c1.04 0 1.88.85 1.88 1.89v4.56c0 1.04-.84 1.88-1.88 1.88zm-14.27-7.14c-.38 0-.69.32-.69.7v4.56c0 .39.3.69.69.69h14.27c.39 0 .69-.3.69-.69v-4.56c0-.39-.31-.7-.69-.7z"/></svg>