<?xml version="1.0"?>
<svg xmlns="http://www.w3.org/2000/svg" viewBox="0 0 64 64"><g id="_11-Api" data-name="11-Api"><path fill="#33bdf1" d="M31,8a1,1,0,0,1,1-1H47a1,1,0,0,1,0,2H32A1,1,0,0,1,31,8ZM9,9A1,1,0,1,0,8,8,1,1,0,0,0,9,9Zm5,0a1,1,0,1,0-1-1A1,1,0,0,0,14,9Zm5,0a1,1,0,1,0-1-1A1,1,0,0,0,19,9ZM8.0635,26.6489l3-8a1,1,0,0,1,1.873,0l3,8a1,1,0,1,1-1.873.7022L13.5568,26H10.4432l-.5067,1.3511a1,1,0,1,1-1.873-.7022ZM11.1931,24h1.6138L12,21.8481ZM19,28a1,1,0,0,1-1-1V19a1,1,0,0,1,1-1h2.5a3.5,3.5,0,0,1,0,7H20v2A1,1,0,0,1,19,28Zm1-5h1.5a1.5,1.5,0,0,0,0-3H20Zm9,4V19a1,1,0,0,0-2,0v8a1,1,0,0,0,2,0Zm.999,24a1,1,0,0,1-1,1H7a5.0059,5.0059,0,0,1-5-5V7A5.0059,5.0059,0,0,1,7,2H49a5.0059,5.0059,0,0,1,5,5V31a1,1,0,0,1-2,0V14H4V47a3.0033,3.0033,0,0,0,3,3H28.999A1,1,0,0,1,29.999,51ZM4,7v5H52V7a3.0033,3.0033,0,0,0-3-3H7A3.0033,3.0033,0,0,0,4,7ZM62,44.6768v2.646A1.9917,1.9917,0,0,1,60.7422,49.18l-2.4268.9707a12.9929,12.9929,0,0,1-.6689,1.6284l1.0264,2.3975a1.9881,1.9881,0,0,1-.4239,2.2011L56.3779,58.249a1.9933,1.9933,0,0,1-2.2011.4239L51.7793,57.646a13.022,13.022,0,0,1-1.6289.67L49.18,60.7432A1.9888,1.9888,0,0,1,47.3232,62H44.6768A1.9883,1.9883,0,0,1,42.82,60.7422L41.85,58.3159a13.022,13.022,0,0,1-1.6289-.67l-2.3975,1.0269a1.9923,1.9923,0,0,1-2.2011-.4239L33.751,56.3779a1.9894,1.9894,0,0,1-.4239-2.2021l1.0264-2.3965a12.9929,12.9929,0,0,1-.6689-1.6284L31.2578,49.18A1.9905,1.9905,0,0,1,30,47.3228V44.6772A1.9917,1.9917,0,0,1,31.2578,42.82l2.4268-.9707a12.9415,12.9415,0,0,1,.67-1.6284l-1.0274-2.397a1.9905,1.9905,0,0,1,.4229-2.2016l1.8721-1.8711a1.988,1.988,0,0,1,2.2011-.4239l2.3975,1.0269a13.022,13.022,0,0,1,1.6289-.67l.9707-2.4273A1.9888,1.9888,0,0,1,44.6768,30h2.6464A1.9883,1.9883,0,0,1,49.18,31.2578l.9707,2.4263a13.022,13.022,0,0,1,1.6289.67l2.3975-1.0269a1.9889,1.9889,0,0,1,2.2011.4239l1.8711,1.8711a1.9894,1.9894,0,0,1,.4239,2.2021l-1.0274,2.3965a12.9415,12.9415,0,0,1,.67,1.6284l2.4268.9712A1.99,1.99,0,0,1,62,44.6768Zm-2,0L57.1328,43.53a.9987.9987,0,0,1-.5879-.646,10.92,10.92,0,0,0-.8818-2.1426,1,1,0,0,1-.042-.874l1.2139-2.8321L54.9639,35.165l-2.8321,1.2134a1,1,0,0,1-.872-.041,11.0028,11.0028,0,0,0-2.1446-.8828,1,1,0,0,1-.6455-.5874L47.3223,32H44.6768L43.53,34.8672a1,1,0,0,1-.6455.5874,11.0028,11.0028,0,0,0-2.1446.8828,1,1,0,0,1-.872.041L37.0361,35.165,35.165,37.0356l1.2139,2.8321a1,1,0,0,1-.042.874,10.92,10.92,0,0,0-.8818,2.1426.9987.9987,0,0,1-.5879.646L32,44.6768v2.646L34.8672,48.47a.9987.9987,0,0,1,.5879.646,10.9155,10.9155,0,0,0,.8818,2.1436,1,1,0,0,1,.041.8725L35.165,54.9639l1.8711,1.8711,2.8321-1.2134a.9971.9971,0,0,1,.872.041,11.0028,11.0028,0,0,0,2.1446.8828,1,1,0,0,1,.6455.5874L44.6777,60h2.6455L48.47,57.1328a1,1,0,0,1,.6455-.5874,11.0028,11.0028,0,0,0,2.1446-.8828.9969.9969,0,0,1,.872-.041l2.8321,1.2134,1.8711-1.8711-1.2129-2.8321a1,1,0,0,1,.041-.8725,10.9155,10.9155,0,0,0,.8818-2.1436.9987.9987,0,0,1,.5879-.646L60,47.3228ZM54,46a8,8,0,1,1-8-8A8.0092,8.0092,0,0,1,54,46Zm-2,0a6,6,0,1,0-6,6A6.0066,6.0066,0,0,0,52,46ZM9,34H21a1,1,0,0,0,0-2H9a1,1,0,0,0,0,2Zm20,5a1,1,0,0,0-1-1H9a1,1,0,0,0,0,2H28A1,1,0,0,0,29,39ZM9,44a1,1,0,0,0,0,2H21a1,1,0,0,0,0-2ZM32,33a1,1,0,0,0-1-1H25a1,1,0,0,0,0,2h6A1,1,0,0,0,32,33Z"/></g></svg>
