<svg height="512" viewBox="0 0 128 128" width="512" xmlns="http://www.w3.org/2000/svg"><g><path fill="#33bdf1" d="m115.7 8.081h-103.4a6.758 6.758 0 0 0 -6.75 6.75c.031 79.892-.071 75.5.077 76.335a6.761 6.761 0 0 0 6.673 5.785h40.426a12.132 12.132 0 0 1 -5.23 9.468h-6.814a6.75 6.75 0 0 0 0 13.5h46.636a6.75 6.75 0 0 0 0-13.5h-6.626a12.113 12.113 0 0 1 -5.229-9.468h40.237a6.758 6.758 0 0 0 6.75-6.75v-75.37a6.758 6.758 0 0 0 -6.75-6.75zm-103.4 3.5h103.4a3.254 3.254 0 0 1 3.25 3.25v62.8h-4.382v-59.8a1.749 1.749 0 0 0 -1.75-1.75h-97.454a1.749 1.749 0 0 0 -1.75 1.75v59.8h-4.564v-62.8a3.254 3.254 0 0 1 3.25-3.25zm4.814 66.05v-58.046h93.954v58.046zm73.454 35.538a3.254 3.254 0 0 1 -3.25 3.25h-46.636a3.25 3.25 0 0 1 0-6.5h46.636a3.254 3.254 0 0 1 3.25 3.25zm-14.962-6.75h-23.027a15.287 15.287 0 0 0 3.665-9.468h15.7a15.287 15.287 0 0 0 3.662 9.468zm43.344-16.219a3.254 3.254 0 0 1 -3.25 3.25h-103.4a3.247 3.247 0 0 1 -3.19-2.719v-9.6h109.84z"/><path fill="#33bdf1" d="m55.909 44.858h-15a1.751 1.751 0 0 0 -1.75 1.75v8a1.75 1.75 0 0 0 1.75 1.75h15a1.75 1.75 0 0 0 1.75-1.75v-8a1.751 1.751 0 0 0 -1.75-1.75zm-1.75 8h-11.5v-4.5h11.5z"/><path fill="#33bdf1" d="m94.384 59.815 2.786-2.787a1.75 1.75 0 0 0 -.7-2.9l-8.454-2.741c0-2.654 0 9.6 0-25.868a1.749 1.749 0 0 0 -1.75-1.75h-53.857a1.75 1.75 0 0 0 -1.75 1.75v37.093a1.75 1.75 0 0 0 1.75 1.75h44.625l2.25 6.954a1.751 1.751 0 0 0 2.9.7l2.787-2.786 4.489 4.49a1.75 1.75 0 0 0 2.474 0l6.938-6.938a1.749 1.749 0 0 0 0-2.474zm-60.224-32.545h50.359v6.5h-50.359zm0 33.59v-23.593h50.359v12.983l-10.2-3.308a1.752 1.752 0 0 0 -2.2 2.2l3.781 11.718zm56.54 9.14-4.489-4.49a1.75 1.75 0 0 0 -2.475 0l-2 2-5.236-16.181 16.178 5.245-2 2a1.75 1.75 0 0 0 0 2.475l4.49 4.489z"/><path fill="#33bdf1" d="m58.212 89.041h11.637a1.75 1.75 0 0 0 0-3.5h-11.637a1.75 1.75 0 1 0 0 3.5z"/></g></svg>