<svg height="512pt" viewBox="0 0 511 512" width="512pt" xmlns="http://www.w3.org/2000/svg"><path fill="#33bdf1" d="m463.933594 93.917969h-113.960938c-4.144531 0-7.5 3.355469-7.5 7.5s3.355469 7.5 7.5 7.5h113.960938c4.140625 0 7.5-3.355469 7.5-7.5s-3.359375-7.5-7.5-7.5zm0 0"/><path fill="#33bdf1" d="m463.933594 137.878906h-113.960938c-4.144531 0-7.5 3.359375-7.5 7.5 0 4.144532 3.355469 7.5 7.5 7.5h113.960938c4.140625 0 7.5-3.355468 7.5-7.5 0-4.140625-3.359375-7.5-7.5-7.5zm0 0"/><path fill="#33bdf1" d="m200.441406 375.457031c-15.546875 0-28.195312 12.648438-28.195312 28.195313s12.648437 28.195312 28.195312 28.195312 28.195313-12.648437 28.195313-28.195312-12.652344-28.195313-28.195313-28.195313zm0 41.390625c-7.277344 0-13.195312-5.917968-13.195312-13.195312s5.917968-13.195313 13.195312-13.195313c7.273438 0 13.195313 5.917969 13.195313 13.195313s-5.921875 13.195312-13.195313 13.195312zm0 0"/><path fill="#33bdf1" d="m476.621094 44.769531h-173.8125c-2.683594-4.019531-5.617188-7.882812-8.792969-11.546875-18.546875-21.421875-42.375-33.222656-67.09375-33.222656h-52.964844c-24.71875 0-48.546875 11.800781-67.09375 33.222656-17.332031 20.019532-27.585937 45.890625-28.148437 71.011719l-6.582032 90.992187c-1.765624 24.402344 6.421876 47.722657 23.054688 65.664063 12.621094 13.609375 28.6875 22.609375 46.386719 26.199219-4.480469 1.289062-13.539063 3.925781-24.457031 7.253906h-57.191407c-6.183593 0-12.148437 2.597656-16.363281 7.121094-4.214844 4.523437-6.378906 10.660156-5.9375 16.828125l.375 5.292969c-21.453125 12.816406-34.410156 33.136718-35.777344 56.414062-.003906.105469-.007812.210938-.011718.316406l-1.707032 103.238282c-.09375 7.570312 2.785156 14.707031 8.105469 20.09375 5.324219 5.386718 12.421875 8.351562 19.996094 8.351562h343.667969c7.574218 0 14.671874-2.964844 19.992187-8.351562 5.324219-5.386719 8.203125-12.519532 8.109375-20.125l-1.707031-103.207032c-.003907-.105468-.007813-.210937-.011719-.316406-1.433594-24.394531-16.050781-45.945312-39.390625-58.46875l.230469-3.238281c.4375-6.167969-1.726563-12.300781-5.9375-16.828125-4.214844-4.523438-10.179688-7.121094-16.363282-7.121094h-53.433593c-10.917969-3.328125-19.972657-5.960938-24.457031-7.253906 17.699218-3.589844 33.765624-12.589844 46.382812-26.199219 10.1875-10.988281 17.207031-23.992187 20.710938-38.027344h19.417968l-8.507812 34.355469c-1.421875 5.726562.855468 11.519531 5.792968 14.75 2.320313 1.519531 4.921876 2.269531 7.511719 2.269531 2.929688 0 5.84375-.960937 8.328125-2.867187l63.148438-48.507813h54.53125c19.761718 0 35.835937-16.078125 35.835937-35.835937v-106.421875c0-19.761719-16.074219-35.835938-35.835937-35.835938zm-382.914063 59.96875c.441407-21.742187 9.371094-44.230469 24.496094-61.699219 15.652344-18.082031 35.453125-28.039062 55.753906-28.039062h52.964844c20.300781 0 40.101563 9.957031 55.753906 28.039062 3.449219 3.984376 6.578125 8.230469 9.355469 12.667969.175781.339844.375.664063.597656.972657 9.03125 14.789062 14.207032 31.636718 14.542969 48.058593.003906.128907.007813.257813.019531.386719l1.230469 17.039062c-1.6875-.425781-3.453125-.652343-5.273437-.652343h-12.328126c-.882812-1.074219-1.917968-2.03125-3.082031-2.84375-4.160156-2.890625-9.488281-3.5625-14.265625-1.796875-12.371094 4.582031-50.777344 11.644531-139.960937-21.675782-6.136719-2.296874-13.007813-1.4375-18.386719 2.292969-5.371094 3.722657-8.578125 9.851563-8.582031 16.390625-.003907 2.324219-.003907 4.898438-.007813 7.632813h-8.804687c-1.820313 0-3.585938.226562-5.273438.652343l1.230469-17.039062c.007812-.128906.015625-.257812.019531-.386719zm150.691407 123.636719-26.738282 3.097656c-.171875.019532-.351562.03125-.523437.03125-2.277344 0-4.191407-1.714844-4.457031-3.984375-.136719-1.191406.199218-2.367187.945312-3.308593.746094-.945313 1.8125-1.539063 3.007812-1.675782l26.734376-3.097656c.179687-.023438.355468-.03125.527343-.03125 1.007813 0 1.976563.335938 2.777344.972656.941406.746094 1.539063 1.8125 1.675781 3.011719.140625 1.191406-.195312 2.367187-.941406 3.308594-.75.941406-1.816406 1.535156-3.007812 1.675781zm16.511718-13.988281c-1.230468-2.199219-2.890625-4.15625-4.921875-5.765625-4.085937-3.234375-9.179687-4.6875-14.351562-4.085938l-26.730469 3.097656c-5.175781.601563-9.804688 3.179688-13.039062 7.261719-3.234376 4.082031-4.6875 9.175781-4.089844 14.351563 1.140625 9.839844 9.460937 17.257812 19.355468 17.257812.753907 0 1.515626-.042968 2.257813-.132812l18.671875-2.160156c-.199219.152343-.398438.308593-.597656.464843-.273438.179688-.535156.378907-.78125.59375-10.121094 7.628907-21.894532 13.441407-36.246094 13.636719-14.347656-.195312-26.121094-6.007812-36.242188-13.632812-.246093-.21875-.511718-.417969-.785156-.601563-5.492187-4.222656-10.496094-8.960937-15.164062-13.585937-10.164063-10.078126-21.003906-28.867188-25.070313-48.027344-.050781-.441406-.140625-.875-.265625-1.292969-.8125-4.152344-1.304687-8.316406-1.390625-12.402344 0-1.863281.007813-36.804687.023438-55.472656 0-2.34375 1.488281-3.628906 2.132812-4.074219.640625-.445312 2.375-1.394531 4.585938-.566406 17.445312 6.519531 43.992187 15.484375 71.390625 21.199219 34.117187 7.109375 60.703125 7.277343 79.03125.492187.082031-.03125.273437-.105468.492187.046875.042969.03125.078125.0625.097657.09375.019531.058594.035156.117188.054687.175781v.035157l.03125 38.074219c-.085937 4.082031-.574219 8.242187-1.390625 12.394531-.125.417969-.214844.855469-.265625 1.304687-2.3125 10.890625-6.8125 21.660156-12.136719 30.777344l-4.660156.542969c0-.003907 0 0 .003906 0zm1.519532 3.492187s0-.003906 0-.007812zm-1.292969-3.074218c-.003907-.007813-.011719-.019532-.015625-.027344.003906.007812.011718.019531.015625.027344zm-.113281-.207032c-.003907-.011718-.011719-.023437-.015626-.03125.003907.007813.011719.019532.015626.03125zm-169.832032-71.546875c0-3.605469 2.933594-6.539062 6.539063-6.539062h8.800781c-.007812 16.5625-.011719 32.925781-.011719 32.925781 0 .050781 0 .101562.003907.148438.042968 2.265624.191406 4.542968.429687 6.824218h-9.222656c-3.605469 0-6.539063-2.933594-6.539063-6.539062zm199.917969 48.359375h.53125v19.410156l-8.046875.933594c3.050781-6.441406 5.640625-13.3125 7.515625-20.34375zm12.039063-15h-9.222657c.238281-2.28125.386719-4.558594.429688-6.824218.003906-.050782.003906-.101563.003906-.152344l-.027344-32.921875h8.816407c3.609374 0 6.542968 2.933593 6.542968 6.539062v26.820313c0 3.609375-2.933594 6.539062-6.542968 6.539062zm-196.957032 74.28125c-13.777344-14.859375-20.558594-34.171875-19.097656-54.386718l.535156-7.410157c3.015625 1.605469 6.453125 2.515625 10.101563 2.515625h12.039062c5.421875 20.300782 16.796875 39.296875 27.917969 50.324219 4.484375 4.441406 9.144531 8.800781 14.085938 12.804687v18.933594c-17.476563-1.757812-33.457032-9.695312-45.582032-22.78125zm238.902344 235.445313c2.992188 0 5.429688 2.4375 5.429688 5.433593 0 2.992188-2.4375 5.429688-5.429688 5.429688h-289.308594c-2.992187 0-5.429687-2.4375-5.429687-5.429688 0-2.996093 2.4375-5.433593 5.429687-5.433593zm-325.8125 6.96875c-2.480469-2.511719-3.824219-5.839844-3.78125-9.335938l1.707031-103.042969c.964844-15.699218 8.835938-29.757812 22.023438-39.878906l8.875 124.519532c.167969 2.359374.703125 4.613281 1.546875 6.710937-8.277344 2.609375-14.296875 10.359375-14.296875 19.488281 0 1.878906.253906 3.703125.734375 5.433594h-7.488282c-3.527343 0-6.839843-1.382812-9.320312-3.894531zm364.390625-112.378907 1.707031 103.011719c.042969 3.53125-1.300781 6.855469-3.78125 9.367188-2.480468 2.511719-5.792968 3.894531-9.324218 3.894531h-7.480469c.476562-1.730469.730469-3.550781.730469-5.429688 0-10.363281-7.753907-18.949218-17.765626-20.257812.675782-1.875 1.109376-3.871094 1.257813-5.941406l9.058594-127.105469c15.363281 10.207031 24.539062 25.238281 25.597656 42.460937zm-41.09375-69.039062c1.40625 1.511719 2.101563 3.476562 1.953125 5.539062l-.574219 8.113282c-.011719.082031-.015625.167968-.019531.25l-9.886719 138.710937c-.273437 3.835938-3.496093 6.835938-7.339843 6.835938h-256.304688c-3.839844 0-7.066406-3-7.339844-6.835938l-9.757812-136.894531c-.003906-.097656-.011719-.191406-.019532-.289062l-.703124-9.890626c-.148438-2.0625.546874-4.027343 1.953124-5.539062s3.320313-2.34375 5.386719-2.34375h58.140625c.058594 0 .113282.003906.167969.003906s.105469-.003906.160156-.003906h164.085938c.054687 0 .109375.003906.164062.003906.054688 0 .109375-.003906.164063-.003906h54.386718c2.066407 0 3.976563.832031 5.382813 2.34375zm-182.394531-17.34375c4.105468-4.171875 6.589844-9.882812 6.589844-16.089844v-13.460937c9.824218 5.429687 20.828124 8.960937 33.578124 9.113281h.089844.089844c12.75-.152344 23.753906-3.683594 33.574219-9.113281v13.460937c0 6.207032 2.488281 11.917969 6.589843 16.089844zm134.507812-43.652344c-12.128906 13.085938-28.109375 21.023438-45.585937 22.785156v-18.9375c4.945312-4.003906 9.605469-8.359374 14.085937-12.804687 3.796875-3.765625 7.625-8.460937 11.234375-13.820313l25.578125-2.960937c3.785156-.4375 6.636719-3.644531 6.636719-7.449219v-26.375c2.351563-.386718 4.578125-1.152344 6.609375-2.234375l.535156 7.410157c.421875 5.824218.160156 11.566406-.757812 17.15625-.105469.398437-.175782.808593-.214844 1.230468-2.425781 13.34375-8.605469 25.734375-18.121094 36zm202.765625-63.664062c0 11.488281-9.347656 20.835937-20.835937 20.835937h-57.078125c-1.652344 0-3.261719.542969-4.570313 1.550781l-62.207031 47.785157 9.917969-40.035157c.554687-2.238281.046875-4.605468-1.375-6.425781-1.417969-1.8125-3.597656-2.875-5.90625-2.875h-26.632813c.289063-4.167969.285157-8.386719-.019531-12.640625l-6.582031-90.988281c-.339844-15.023437-4.140625-30.316406-10.851563-44.464844h165.308594c11.488281 0 20.835938 9.34375 20.835938 20.835938v106.421875zm0 0"/></svg>