<svg id="Layer_1" enable-background="new 0 0 512 512" viewBox="0 0 512 512" xmlns="http://www.w3.org/2000/svg"><path fill="#33bdf1" d="m446.85 76.32h-109.37l3.28-3.96c5.05-6.09 5.1-14.63.11-20.77-4.98-6.14-10.64-11.75-16.81-16.67-6.18-4.93-14.72-4.82-20.77.28l-11.61 9.79c-1.52 1.29-3.53 1.61-5.36.86s-3.04-2.38-3.22-4.37l-1.41-15.13c-.73-7.88-6.74-13.95-14.61-14.76-7.85-.81-15.81-.78-23.66.09-7.87.88-13.83 7-14.5 14.88l-1.28 15.14c-.17 1.99-1.36 3.63-3.19 4.4s-3.83.46-5.37-.81l-11.69-9.7c-6.09-5.05-14.63-5.1-20.77-.11-6.13 4.98-11.74 10.63-16.67 16.81-4.94 6.18-4.82 14.72.28 20.76l2.76 3.27h-107.84c-17.79 0-32.26 14.47-32.26 32.26v245.18c0 17.79 14.47 32.26 32.26 32.26h141.92c-.63 27.78-6.98 68.76-38.88 68.76h-18.18c-12.74 0-23.11 10.37-23.11 23.11v9.02c0 7.77 6.32 14.09 14.09 14.09h230c7.77 0 14.09-6.32 14.09-14.09v-9.02c0-12.74-10.37-23.11-23.11-23.11h-18.18c-31.9 0-38.25-40.97-38.88-68.76h141.92c17.79 0 32.26-14.47 32.26-32.26v-245.17c.03-17.79-14.45-32.27-32.24-32.27zm-269.06-17.79c4.48-5.62 9.58-10.76 15.16-15.29 2.39-1.94 5.71-1.92 8.08.04l11.69 9.7c4.39 3.64 10.37 4.54 15.62 2.34s8.81-7.09 9.29-12.77l1.28-15.14c.26-3.07 2.58-5.45 5.64-5.79 7.14-.8 14.38-.82 21.52-.08 3.06.32 5.4 2.68 5.68 5.74l1.41 15.13c.53 5.68 4.12 10.54 9.39 12.7 5.26 2.16 11.24 1.21 15.6-2.46l11.61-9.79c2.35-1.98 5.67-2.03 8.08-.11 5.61 4.48 10.75 9.58 15.29 15.16 1.94 2.39 1.92 5.71-.04 8.08l-9.7 11.69c-3.64 4.39-4.54 10.37-2.34 15.62s7.09 8.8 12.77 9.29l15.14 1.28c3.07.26 5.45 2.58 5.79 5.64.8 7.14.82 14.38.08 21.52-.32 3.06-2.68 5.4-5.74 5.68l-15.13 1.41c-5.68.53-10.54 4.12-12.7 9.39-2.16 5.26-1.21 11.24 2.46 15.6l9.79 11.61c1.98 2.35 2.03 5.67.11 8.08-4.48 5.61-9.58 10.76-15.16 15.29-2.39 1.94-5.71 1.92-8.08-.04l-11.69-9.7c-4.39-3.64-10.37-4.54-15.62-2.34s-8.8 7.09-9.29 12.77l-1.29 15.14c-.26 3.07-2.58 5.45-5.64 5.79-7.14.79-14.38.82-21.52.08-3.06-.32-5.4-2.68-5.68-5.74l-1.41-15.12c-.53-5.68-4.12-10.54-9.39-12.7-1.87-.77-3.83-1.14-5.77-1.14-3.53 0-7.02 1.24-9.83 3.61l-11.61 9.79c-2.35 1.98-5.67 2.03-8.08.11-5.61-4.48-10.76-9.58-15.29-15.16-1.94-2.39-1.92-5.71.04-8.08l9.7-11.69c3.64-4.39 4.54-10.37 2.34-15.62s-7.09-8.8-12.77-9.29l-15.14-1.29c-3.07-.26-5.45-2.58-5.79-5.64-.8-7.14-.82-14.38-.08-21.52.32-3.06 2.68-5.4 5.74-5.68l15.13-1.41c5.68-.53 10.54-4.12 12.7-9.39 2.16-5.26 1.21-11.24-2.46-15.6l-9.78-11.63c-1.98-2.35-2.03-5.67-.11-8.07zm186.98 73.52c.82-7.85.79-15.81-.09-23.66-.01-.09-.03-.17-.04-.25h82.21c.22 0 .45.24.45.45v220.63c0 .22-.24.45-.45.45h-381.7c-.22 0-.45-.24-.45-.45v-220.63c0-.22.24-.45.45-.45h81.65c-.06.37-.13.74-.16 1.12-.82 7.85-.79 15.81.09 23.66.88 7.87 7 13.83 14.88 14.5l15.14 1.29c1.99.17 3.63 1.36 4.4 3.19.76 1.83.46 3.83-.81 5.37l-9.7 11.69c-5.05 6.09-5.1 14.63-.11 20.77 2.05 2.52 4.21 4.95 6.48 7.28v51.83h-30.44c-2.26-9.55-10.86-16.68-21.09-16.68-11.95 0-21.67 9.72-21.67 21.68 0 11.95 9.72 21.67 21.67 21.67 10.23 0 18.82-7.13 21.09-16.67h35.43c2.76 0 5-2.24 5-5v-47.72c.11.09.22.18.33.27 6.18 4.94 14.72 4.82 20.77-.28l11.61-9.79c1.52-1.29 3.53-1.6 5.36-.85s3.04 2.38 3.22 4.37l1.41 15.13c.73 7.88 6.74 13.95 14.61 14.77 2.13.22 4.26.37 6.4.47v39.66c-9.55 2.26-16.68 10.86-16.68 21.09 0 11.95 9.72 21.67 21.68 21.67 11.95 0 21.67-9.72 21.67-21.67 0-10.23-7.13-18.82-16.67-21.09v-39.66c2.43-.11 4.85-.29 7.26-.56 7.87-.88 13.83-7 14.5-14.88l1.29-15.14c.17-1.99 1.36-3.63 3.19-4.39 1.83-.77 3.83-.46 5.37.81l11.69 9.7c6.09 5.05 14.63 5.1 20.77.11.08-.07.16-.13.24-.2v47.6c0 2.76 2.24 5 5 5h35.44c2.26 9.55 10.86 16.68 21.09 16.68 11.95 0 21.67-9.72 21.67-21.68 0-11.95-9.72-21.67-21.67-21.67-10.23 0-18.82 7.13-21.09 16.67h-30.46v-51.86c2.25-2.36 4.4-4.81 6.43-7.35 4.94-6.18 4.82-14.72-.28-20.76l-9.79-11.61c-1.29-1.52-1.61-3.53-.86-5.36s2.38-3.04 4.37-3.22l15.13-1.41c7.88-.76 13.95-6.77 14.77-14.64zm-227.61 121.77c0 6.44-5.24 11.67-11.68 11.67s-11.67-5.24-11.67-11.67c0-6.44 5.24-11.68 11.67-11.68 6.44.01 11.68 5.24 11.68 11.68zm118.54 25.44c6.44 0 11.67 5.24 11.67 11.68s-5.24 11.67-11.67 11.67c-6.44 0-11.68-5.24-11.68-11.67.01-6.45 5.24-11.68 11.68-11.68zm119.14-26.03c0-6.44 5.24-11.67 11.68-11.67s11.67 5.24 11.67 11.67c0 6.44-5.24 11.68-11.67 11.68-6.44-.01-11.68-5.24-11.68-11.68zm-12.86 211.56c7.23 0 13.11 5.88 13.11 13.11v9.02c0 2.25-1.83 4.09-4.09 4.09h-230c-2.25 0-4.09-1.83-4.09-4.09v-9.02c0-7.23 5.88-13.11 13.11-13.11zm-54.77-22.43c2.83 4.95 6.15 9.08 9.9 12.43h-122.22c3.75-3.34 7.07-7.48 9.9-12.43 7.66-13.39 11.79-32.32 12.29-56.33h77.85c.49 24.01 4.62 42.94 12.28 56.33zm161.91-88.59c0 12.28-9.99 22.26-22.26 22.26h-381.71c-12.28 0-22.26-9.99-22.26-22.26v-245.18c0-12.28 9.99-22.26 22.26-22.26h115.85c.42 1.18.4 2.47-.1 3.69-.75 1.83-2.38 3.04-4.37 3.22l-15.13 1.41c-3.32.31-6.31 1.56-8.73 3.49h-87.52c-5.76 0-10.45 4.69-10.45 10.45v220.63c0 5.76 4.69 10.45 10.45 10.45h381.7c5.76 0 10.45-4.69 10.45-10.45v-220.63c0-5.76-4.69-10.45-10.45-10.45h-87.33c-2.59-2.38-5.95-3.93-9.73-4.25l-15.14-1.28c-1.99-.17-3.63-1.36-4.4-3.19-.42-1.01-.51-2.08-.29-3.1h116.89c12.28 0 22.26 9.99 22.26 22.26v245.19zm-213.42-181.14c28.66 0 51.98-23.32 51.98-51.98s-23.32-51.98-51.98-51.98-51.98 23.32-51.98 51.98 23.32 51.98 51.98 51.98zm0-93.96c23.15 0 41.98 18.83 41.98 41.98s-18.83 41.98-41.98 41.98-41.98-18.83-41.98-41.98 18.84-41.98 41.98-41.98zm15.32 50.63 8.65-8.65-8.65-8.65c-1.95-1.95-1.95-5.12 0-7.07s5.12-1.95 7.07 0l12.19 12.19c.94.94 1.46 2.21 1.46 3.54s-.53 2.6-1.46 3.54l-12.19 12.19c-.98.98-2.26 1.46-3.54 1.46s-2.56-.49-3.54-1.46c-1.95-1.97-1.95-5.13.01-7.09zm-37.7 7.08-12.19-12.19c-.94-.94-1.46-2.21-1.46-3.54s.53-2.6 1.46-3.54l12.19-12.19c1.95-1.95 5.12-1.95 7.07 0s1.95 5.12 0 7.07l-8.65 8.65 8.65 8.65c1.95 1.95 1.95 5.12 0 7.07-.98.98-2.26 1.46-3.54 1.46s-2.56-.47-3.53-1.44zm9.37 13.5 16.36-61.05c.71-2.67 3.46-4.25 6.12-3.54 2.67.71 4.25 3.46 3.54 6.12l-16.36 61.05c-.6 2.23-2.62 3.71-4.83 3.71-.43 0-.86-.05-1.3-.17-2.66-.71-4.24-3.45-3.53-6.12z"/></svg>