<svg enable-background="new 0 0 512 512" viewBox="0 0 512 512" xmlns="http://www.w3.org/2000/svg"><g id="_x31_4_Development"><g><path fill="#33bdf1" d="m64.111 493.37h383.777c26.456 0 47.979-21.523 47.979-47.977v-.485c0-13.531-11.01-24.538-24.541-24.538h-6.899v-213.74c0-27-21.969-48.967-48.967-48.967h-34.14v-34.749c0-8.924-7.262-16.184-16.186-16.184h-13.324c-.556-1.428-1.139-2.836-1.755-4.216l9.425-9.423c6.311-6.309 6.311-16.576 0-22.885l-29.735-29.735c-6.104-6.111-16.774-6.116-22.887 0l-9.42 9.42c-1.378-.611-2.788-1.196-4.221-1.755v-13.323c0-8.924-7.257-16.184-16.181-16.184h-42.072c-8.924 0-16.186 7.259-16.186 16.184v13.322c-1.41.547-2.82 1.13-4.226 1.748l-9.411-9.411c-6.109-6.116-16.778-6.111-22.887 0l-29.735 29.735c-6.311 6.309-6.311 16.576 0 22.885l9.42 9.423c-.611 1.373-1.194 2.781-1.755 4.216h-13.324c-8.924 0-16.181 7.259-16.181 16.184v34.749h-34.14c-26.998 0-48.967 21.966-48.967 48.967v213.74h-6.903c-13.531 0-24.536 11.007-24.536 24.538v.485c-.001 26.453 21.522 47.976 47.978 47.976zm75.974-370.455c0-3.736 3.041-6.777 6.775-6.777h16.599c1.993 0 3.771-1.258 4.437-3.139 1.162-3.302 2.48-6.474 3.918-9.425.882-1.803.519-3.966-.9-5.385l-11.744-11.747c-2.641-2.643-2.641-6.94 0-9.583l29.735-29.735c2.558-2.561 7.018-2.565 9.586 0l11.726 11.724c1.41 1.41 3.555 1.778 5.355.919 3.119-1.49 6.302-2.809 9.462-3.913 1.888-.659 3.151-2.441 3.151-4.439v-16.602c0-3.736 3.041-6.777 6.779-6.777h42.072c3.734 0 6.775 3.041 6.775 6.777v16.599c0 1.996 1.258 3.775 3.142 4.437 3.289 1.155 6.458 2.476 9.43 3.92 1.791.875 3.968.517 5.383-.903l11.744-11.744c2.568-2.565 7.023-2.561 9.586 0l29.735 29.735c2.641 2.643 2.641 6.94 0 9.583l-11.749 11.747c-1.419 1.419-1.782 3.583-.9 5.385 1.451 2.985 2.77 6.152 3.918 9.418.661 1.885 2.439 3.146 4.437 3.146h16.599c3.739 0 6.779 3.041 6.779 6.777v42.072c0 3.736-3.041 6.777-6.779 6.777h-16.599c-2.003 0-3.78 1.265-4.441 3.153-1.093 3.137-2.407 6.322-3.909 9.466-.859 1.798-.491 3.943.919 5.351l11.726 11.726c2.641 2.643 2.641 6.942 0 9.586l-29.735 29.735c-2.641 2.639-6.936 2.643-9.586 0l-11.744-11.747c-1.415-1.415-3.587-1.775-5.383-.903-2.972 1.445-6.141 2.765-9.43 3.92-1.883.661-3.142 2.441-3.142 4.437v16.599c0 3.736-3.041 6.777-6.775 6.777h-42.072c-3.739 0-6.779-3.041-6.779-6.777v-16.595c0-1.998-1.263-3.78-3.151-4.439-3.16-1.105-6.343-2.423-9.462-3.913-1.787-.856-3.942-.498-5.355.919l-11.726 11.726c-2.641 2.639-6.936 2.643-9.586 0l-29.735-29.735c-2.641-2.643-2.641-6.942 0-9.586l11.726-11.726c1.41-1.41 1.778-3.557.919-5.355-1.484-3.098-2.802-6.283-3.918-9.466-.657-1.885-2.439-3.149-4.437-3.149h-16.601c-3.734 0-6.775-3.041-6.775-6.777zm-83.107 83.715c0-21.812 17.748-39.56 39.56-39.56h34.351c1.035 7.933 7.76 14.101 15.971 14.101h13.324c.547 1.417 1.13 2.827 1.745 4.226l-9.411 9.413c-6.311 6.309-6.311 16.576 0 22.887l29.735 29.735c6.306 6.306 16.572 6.311 22.887 0l9.416-9.413c1.401.618 2.811 1.201 4.221 1.748v13.322c0 8.924 7.262 16.184 16.186 16.184h42.072c8.924 0 16.181-7.259 16.181-16.184v-13.324c1.433-.558 2.843-1.144 4.221-1.755l9.42 9.423c6.315 6.313 16.581 6.309 22.887 0l29.735-29.735c6.311-6.311 6.311-16.579 0-22.887l-9.416-9.413c.62-1.408 1.203-2.818 1.75-4.226h13.32c8.211 0 14.94-6.168 15.975-14.101h34.351c21.812 0 39.56 17.748 39.56 39.56v213.74c-47.539 0-348.603 0-398.043 0v-213.741zm252.995 223.147-2.94 16.836c-.335 1.918-1.989 3.309-3.941 3.309h-94.185c-1.952 0-3.606-1.392-3.941-3.312l-2.94-16.834h107.947zm-284.434 15.132c0-8.343 6.789-15.132 15.13-15.132h151.81l3.22 18.448c1.121 6.435 6.678 11.104 13.21 11.104h94.185c6.531 0 12.089-4.669 13.21-11.101l3.22-18.45h151.805c8.346 0 15.134 6.789 15.134 15.132v.485c0 21.268-17.302 38.57-38.572 38.57h-383.78c-21.27 0-38.572-17.302-38.572-38.57z"/><path fill="#33bdf1" d="m256 206.934c34.733 0 62.994-28.247 62.994-62.968 0-34.737-28.261-62.996-62.994-62.996-34.737 0-62.998 28.259-62.998 62.996 0 34.72 28.261 62.968 62.998 62.968zm0-116.558c29.547 0 53.587 24.04 53.587 53.589 0 29.533-24.04 53.562-53.587 53.562-29.552 0-53.592-24.029-53.592-53.562 0-29.549 24.04-53.589 53.592-53.589z"/><path fill="#33bdf1" d="m169.876 266.976c-2.407-.969-5.144.198-6.118 2.609l-34.595 86.039c-.969 2.409.198 5.149 2.609 6.118 2.404.971 5.145-.195 6.118-2.609l34.595-86.039c.969-2.409-.198-5.149-2.609-6.118z"/><path fill="#33bdf1" d="m214.125 314.351c0-1.445-.666-2.809-1.8-3.7l-28.068-22.024c-2.039-1.605-5.002-1.245-6.605.797-1.603 2.044-1.245 5 .799 6.603l23.356 18.326-23.356 18.338c-2.044 1.605-2.402 4.561-.795 6.605 1.613 2.052 4.57 2.391 6.6.795l28.068-22.04c1.14-.893 1.801-2.257 1.801-3.7z"/><path fill="#33bdf1" d="m123.996 289.425c-1.603-2.042-4.561-2.402-6.605-.797l-28.068 22.024c-1.134.891-1.8 2.255-1.8 3.7 0 1.442.661 2.806 1.8 3.7l28.068 22.04c2.029 1.595 4.986 1.259 6.6-.795 1.608-2.044 1.249-5-.795-6.605l-23.356-18.338 23.356-18.326c2.044-1.604 2.403-4.559.8-6.603z"/><path fill="#33bdf1" d="m255.394 398.705h117.5c2.6 0 4.703-2.106 4.703-4.703s-2.104-4.703-4.703-4.703h-117.5c-2.6 0-4.703 2.106-4.703 4.703s2.103 4.703 4.703 4.703z"/><path fill="#33bdf1" d="m255.394 352.278h160.83c2.6 0 4.703-2.106 4.703-4.703s-2.104-4.703-4.703-4.703h-160.83c-2.6 0-4.703 2.106-4.703 4.703-.001 2.598 2.103 4.703 4.703 4.703z"/><path fill="#33bdf1" d="m255.394 305.854h68.482c2.6 0 4.703-2.106 4.703-4.703s-2.104-4.703-4.703-4.703h-68.482c-2.6 0-4.703 2.106-4.703 4.703s2.103 4.703 4.703 4.703z"/></g></g><g id="Layer_1"/></svg>