<svg id="Layer_1" enable-background="new 0 0 64 64" height="512" viewBox="0 0 64 64" width="512" xmlns="http://www.w3.org/2000/svg"><path fill="#33bdf1" d="m60.9 1.8h-57.8c-1.7 0-3.1 1.4-3.1 3.2v41c0 1.7 1.4 3.1 3.1 3.1h20.1v7.6l-3.9 1.8c-.2.1-.3.3-.3.4v2.6c0 .3.2.5.5.5h24.9c.3 0 .5-.2.5-.5v-2.6c0-.2-.1-.4-.3-.4l-3.9-1.8v-7.6h20.1c1.7 0 3.1-1.4 3.1-3.1v-41c.1-1.8-1.3-3.2-3-3.2zm-16.9 57.6v1.8h-24v-1.8l3.8-1.8h16.3zm-19.8-2.8v-7.4h15.6v7.4zm38.8-10.6c0 1.2-1 2.1-2.1 2.1h-57.8c-1.2 0-2.1-1-2.1-2.1v-5.1h62zm0-6h-62v-35c0-1.2 1-2.1 2.1-2.1h57.7c1.2 0 2.1 1 2.1 2.1v35z"/><path fill="#33bdf1" d="m32.6 47.1c1.4 0 2.6-1.2 2.6-2.6s-1.2-2.5-2.6-2.5-2.6 1.2-2.6 2.6 1.2 2.5 2.6 2.5zm0-4.1c.9 0 1.6.7 1.6 1.6s-.7 1.6-1.6 1.6-1.6-.7-1.6-1.6.7-1.6 1.6-1.6z"/><path fill="#33bdf1" d="m55.4 6.6h-46.8c-.3 0-.5.2-.5.5s.2.5.5.5h46.7c.3 0 .5-.2.5-.5s-.2-.5-.4-.5z"/><path fill="#33bdf1" d="m55.4 35.8h-46.8c-.3 0-.5.2-.5.5s.2.5.5.5h46.7c.3 0 .5-.2.5-.5s-.2-.5-.4-.5z"/><path fill="#33bdf1" d="m9.3 15.3c-.3 0-.5.2-.5.5v7.8c0 2.3 1.8 4.1 4.1 4.1s4.1-1.8 4.1-4.1v-7.8c0-.3-.2-.5-.5-.5s-.5.2-.5.5v7.8c0 1.7-1.4 3.1-3.1 3.1s-3.1-1.4-3.1-3.1v-7.8c0-.3-.2-.5-.5-.5z"/><path fill="#33bdf1" d="m21 27.7c.1 0 .1.1.2.1.2 0 .4-.1.4-.3l2.5-4.9 2.4 4.9c.1.2.3.3.4.3s.1 0 .2-.1c.2-.1.3-.4.2-.7l-2.7-5.6 2.8-5.5c.1-.2 0-.5-.2-.7-.2-.1-.5 0-.7.2l-2.5 4.9-2.4-4.9c-.1-.2-.4-.3-.7-.2-.2.1-.3.4-.2.7l2.7 5.6-2.8 5.5c0 .3.1.6.4.7z"/><path fill="#33bdf1" d="m42.8 15.3c-.3 0-.5.2-.5.5v7.8c0 2.3 1.8 4.1 4.1 4.1s4.1-1.8 4.1-4.1v-7.8c0-.3-.2-.5-.5-.5s-.5.2-.5.5v7.8c0 1.7-1.4 3.1-3.1 3.1s-3.1-1.4-3.1-3.1v-7.8c0-.3-.3-.5-.5-.5z"/><path fill="#33bdf1" d="m32 31.9c.2 0 .4-.1.5-.3l7.3-19.6c.1-.3 0-.5-.3-.6s-.5 0-.6.3l-7.4 19.6c-.1.3 0 .5.3.6z"/><path fill="#33bdf1" d="m55.3 27.3v-11.5c0-.3-.2-.5-.5-.5s-.5.2-.5.5v11.5c0 .3.2.5.5.5s.5-.2.5-.5z"/></svg>