<svg clip-rule="evenodd" fill-rule="evenodd" height="1.707in" image-rendering="optimizeQuality" shape-rendering="geometricPrecision" text-rendering="geometricPrecision" viewBox="0 0 1707 1707" width="1.707in" xmlns="http://www.w3.org/2000/svg"><g id="Layer_x0020_1"><path fill="#33bdf1" d="m1612 1250h-1518c-51 0-93-41-93-93v-1022c0-52 42-93 93-93h1518c52 0 93 41 93 93v1022c0 52-41 93-93 93zm-1518-1170c-29 0-52 24-52 53v1023c0 29 23 53 52 53h1518c29 0 53-24 53-53v-1021c0-30-24-53-53-53h-1518z"/><path fill="#33bdf1" d="m963 1562h-219c-11 0-20-8-20-19v-312c0-11 9-20 20-20s19 9 19 20v291h179v-291c0-11 8-20 20-20 11 0 19 9 19 20v311c1 11-7 20-18 20z"/><path fill="#33bdf1" d="m1185 1665h-663c-7 0-13-3-17-8-4-6-4-13-3-18l82-208c3-9 10-13 18-13h142c11 0 19 8 19 19 0 12-8 20-19 20h-128l-65 168h605l-65-168h-128c-11 0-19-8-19-20 0-11 8-19 19-19h140c8 0 15 6 18 13l82 208c3 5 1 12-3 18-3 5-8 8-15 8z"/><path fill="#33bdf1" d="m1686 1031h-1665c-11 0-20-8-20-19 0-12 9-20 20-20h1665c11 0 19 8 19 20 0 11-8 19-19 19z"/><path fill="#33bdf1" d="m185 1141h-56c-11 0-19-9-19-20s8-19 19-19h56c11 0 19 8 19 19s-8 20-19 20z"/><path fill="#33bdf1" d="m323 1141h-55c-11 0-20-9-20-20s9-19 20-19h55c11 0 20 8 20 19s-9 20-20 20z"/><path fill="#33bdf1" d="m462 1141h-55c-12 0-20-9-20-20s8-19 20-19h55c11 0 19 8 19 19s-8 20-19 20z"/><path fill="#33bdf1" d="m601 1141h-56c-11 0-19-9-19-20s8-19 19-19h56c11 0 19 8 19 19s-8 20-19 20z"/><path fill="#33bdf1" d="m960 1558c-7 0-12-2-17-8l-216-308c-7-10-4-21 6-28 9-7 20-4 27 4l217 307c7 10 4 21-4 28-5 4-9 5-13 5z"/><path fill="#33bdf1" d="m1166 626h-533c-10 0-18-7-20-15l-58-285c-1-5 0-12 4-17 4-4 10-7 15-7h138c11 0 19 9 19 20s-8 19-19 19h-113l50 245h500l50-245h-113c-11 0-19-8-19-19s8-20 19-20h138c5 0 11 3 15 7 4 5 6 12 4 17l-58 285c-3 8-10 15-19 15z"/><path fill="#33bdf1" d="m1166 788h-489c-36 0-64-29-64-64 0-34 29-64 64-64h489c11 0 19 9 19 20s-8 19-19 19h-489c-14 0-25 11-25 25s11 25 25 25h489c11 0 19 9 19 20s-8 19-19 19z"/><path fill="#33bdf1" d="m755 959c-38 0-70-31-70-70 0-38 31-69 70-69s69 31 69 69c0 39-30 70-69 70zm0-99c-17 0-29 13-29 29 0 17 12 30 29 30 16 0 29-13 29-30 0-16-13-29-29-29z"/><path fill="#33bdf1" d="m1042 959c-37 0-69-31-69-70 0-38 30-69 69-69s69 31 69 69c0 39-30 70-69 70zm0-99c-17 0-29 13-29 29 0 17 12 30 29 30s29-13 29-30c0-16-12-29-29-29z"/><path fill="#33bdf1" d="m574 341c-8 0-16-5-19-15l-24-83h-50c-11 0-19-9-19-20s8-19 19-19h67c10 0 17 6 19 15l27 99c3 11-3 22-14 25-3-2-4-2-6-2z"/><path fill="#33bdf1" d="m899 529c-114 0-207-93-207-207s93-207 207-207 207 93 207 207-93 207-207 207zm0-375c-91 0-168 75-168 168s75 168 168 168 168-75 168-168-76-168-168-168z"/><path fill="#33bdf1" d="m899 529c-60 0-104-89-104-207s44-207 104-207 104 89 104 207-44 207-104 207zm0-375c-26 0-64 64-64 168s38 168 64 168 64-64 64-168-38-168-64-168z"/><path fill="#33bdf1" d="m1086 341h-374c-11 0-20-8-20-19s9-20 20-20h374c12 0 20 9 20 20s-8 19-20 19z"/><path fill="#33bdf1" d="m899 529c-11 0-19-9-19-20v-374c0-12 8-20 19-20s20 8 20 20v374c0 11-9 20-20 20z"/><path fill="#33bdf1" d="m276 695c-11 0-19-8-19-19v-278c0-11 8-19 19-19s20 8 20 19v278c0 9-9 19-20 19z"/><path fill="#33bdf1" d="m1431 695c-12 0-20-8-20-19v-278c0-11 8-19 20-19 11 0 19 8 19 19v278c1 9-8 19-19 19z"/></g></svg>