<svg enable-background="new 0 0 512 512" height="512" viewBox="0 0 512 512" width="512" xmlns="http://www.w3.org/2000/svg"><g id="_x36_14_x2C__Location_x2C__Map_x2C__Pin_x2C_"><g><g><g><path fill="#33bdf1" d="m251.008 272.741c-53.87 0-97.696-43.826-97.696-97.696s43.826-97.697 97.696-97.697 97.697 43.827 97.697 97.697-43.827 97.696-97.697 97.696zm0-185.393c-48.356 0-87.696 39.341-87.696 87.697s39.341 87.696 87.696 87.696c48.356 0 87.697-39.34 87.697-87.696s-39.341-87.697-87.697-87.697z"/></g><g><path fill="#33bdf1" d="m251.008 242.741c-37.328 0-67.696-30.369-67.696-67.697s30.368-67.697 67.696-67.697 67.697 30.369 67.697 67.697-30.369 67.697-67.697 67.697zm0-125.393c-31.814 0-57.696 25.883-57.696 57.697s25.883 57.697 57.696 57.697c31.814 0 57.697-25.883 57.697-57.697s-25.883-57.697-57.697-57.697z"/></g><g><path fill="#33bdf1" d="m251.025 366c-1.188 0-2.375-.422-3.322-1.264-.846-.751-20.95-18.718-42.427-45.616-1.199-1.502-1.432-3.558-.599-5.288.833-1.731 2.585-2.832 4.506-2.832h83.781c1.917 0 3.666 1.097 4.501 2.822.835 1.727.609 3.777-.581 5.281-21.536 27.205-41.723 44.923-42.571 45.663-.942.823-2.115 1.234-3.288 1.234zm-31.267-45c13.426 15.913 25.644 27.884 31.293 33.214 5.67-5.282 17.931-17.181 31.387-33.214z"/></g><g><path fill="#33bdf1" d="m405.999 481c-.718 0-1.439-.154-2.113-.469l-72.952-34.045-77.93 34.095c-1.277.559-2.731.559-4.008 0l-77.93-34.095-72.952 34.045c-1.664.777-3.617.578-5.093-.515-1.474-1.094-2.23-2.906-1.972-4.724l22.834-159.844c1.588-11.106 9.036-20.616 19.439-24.817l14.707-5.939c2.561-1.03 5.474.204 6.509 2.765 1.033 2.561-.204 5.475-2.765 6.509l-14.707 5.938c-7.108 2.87-12.199 9.369-13.283 16.959l-21.528 150.699 66.63-31.094c1.303-.607 2.804-.625 4.118-.05l77.997 34.124 77.996-34.123c1.315-.575 2.816-.557 4.118.05l66.63 31.094-21.528-150.684c-1.084-7.598-6.181-14.099-13.301-16.967l-14.986-6.035c-2.562-1.031-3.802-3.944-2.77-6.506 1.03-2.561 3.94-3.805 6.506-2.769l14.986 6.035c10.42 4.196 17.878 13.711 19.465 24.829l22.834 159.827c.259 1.817-.498 3.63-1.972 4.724-.877.65-1.924.983-2.979.983z"/></g><g><path fill="#33bdf1" d="m251.008 416c-1.188 0-2.375-.421-3.322-1.263-.35-.313-35.51-31.727-70.155-76.521-46.825-60.541-70.567-115.44-70.567-163.171-.001-79.427 64.617-144.045 144.044-144.045 39.639 0 78.112 16.348 105.556 44.851 26.216 27.229 39.884 62.524 38.485 99.384-2.371 62.559-40.599 124.421-72.25 165.301-34.103 44.048-68.163 73.935-68.504 74.232-.941.821-2.114 1.232-3.287 1.232zm0-375c-73.913 0-134.045 60.132-134.045 134.045 0 56.63 37.238 116.663 68.478 157.054 27.951 36.139 56.16 63.352 65.593 72.141 9.275-8.525 36.6-34.594 63.974-69.975 30.703-39.685 67.78-99.555 70.05-159.409 1.294-34.119-11.384-66.816-35.697-92.069-25.57-26.557-61.418-41.787-98.353-41.787z"/></g><g><path fill="#33bdf1" d="m446 221c-19.299 0-35-15.701-35-35s15.701-35 35-35 35 15.701 35 35-15.701 35-35 35zm0-60c-13.785 0-25 11.215-25 25s11.215 25 25 25 25-11.215 25-25c0-13.786-11.215-25-25-25z"/></g><g><path fill="#33bdf1" d="m61 336c-16.542 0-30-13.458-30-30s13.458-30 30-30 30 13.458 30 30-13.458 30-30 30zm0-50c-11.028 0-20 8.972-20 20s8.972 20 20 20 20-8.972 20-20c0-11.029-8.972-20-20-20z"/></g><circle fill="#33bdf1" cx="403.5" cy="58.5" r="7.5"/><circle fill="#33bdf1" cx="468.5" cy="263.5" r="7.5"/><circle fill="#33bdf1"  cx="418.5" cy="348.5" r="7.5"/><circle fill="#33bdf1" cx="103.5" cy="53.5" r="7.5"/><circle fill="#33bdf1" cx="48.5" cy="183.5" r="7.5"/><circle fill="#33bdf1" cx="68.5" cy="403.5" r="7.5"/><circle fill="#33bdf1" cx="468.5" cy="463.5" r="7.5"/></g></g></g></svg>