<?xml version="1.0"?>
<svg xmlns="http://www.w3.org/2000/svg" id="Layer_1" data-name="Layer 1" viewBox="0 0 512 512"><path fill="#33bdf1" d="M418.354,281.429a36.562,36.562,0,0,0-51.647,0l-56.578,56.578a12.213,12.213,0,0,1-15.232,1.921,367.905,367.905,0,0,1-69.529-53.3,367.957,367.957,0,0,1-53.3-69.528,12.211,12.211,0,0,1,1.922-15.232l56.578-56.578a36.56,36.56,0,0,0,0-51.647L150.857,13.933a47.732,47.732,0,0,0-67.408,0L20.6,76.777a68.566,68.566,0,0,0-18.5,66.068c23.25,95.191,66.418,175.46,128.305,238.575.056.057.11.111.167.167C193.7,443.475,273.965,486.643,369.155,509.892A72.537,72.537,0,0,0,386.379,512c18.171,0,35.364-7.123,48.844-20.6l62.844-62.845a47.733,47.733,0,0,0,0-67.409ZM117.153,24a23.493,23.493,0,0,1,16.734,6.9L213.6,110.616a12.535,12.535,0,0,1,0,17.706l-19.647,19.647-105.3-105.3L100.42,30.9A23.491,23.491,0,0,1,117.153,24Zm301.1,450.425c-11.791,11.793-27.206,16.108-43.4,12.152-90.9-22.2-167.4-63.264-227.382-122.044C88.688,304.554,47.624,228.049,25.423,137.151c-3.956-16.2.36-31.611,12.152-43.4L71.683,59.64l105.3,105.3-19.96,19.96a36.054,36.054,0,0,0-5.6,44.428A391.993,391.993,0,0,0,208.3,303.5c.064.066.13.132.2.2a391.9,391.9,0,0,0,74.176,56.88,36.06,36.06,0,0,0,44.428-5.6l19.96-19.961,105.3,105.3ZM481.1,411.58l-11.766,11.766-105.3-105.3L383.678,298.4a12.534,12.534,0,0,1,17.706,0L481.1,378.112a23.734,23.734,0,0,1,0,33.468ZM512,213.386a12,12,0,0,1-24,0C488,108.958,403.042,24,298.614,24a12,12,0,0,1,0-24C416.275,0,512,95.725,512,213.386ZM298.614,105.569a12,12,0,0,1,0-24c72.684,0,131.817,59.133,131.817,131.817a12,12,0,1,1-24,0A107.94,107.94,0,0,0,298.614,105.569Z"/></svg>
